P3
# Created by GIMP version 2.10.30 PNM plug-in
64 64
255
0
0
0
0
0
0
0
0
0
0
0
0
0
0
0
0
0
0
0
0
0
0
0
0
0
0
0
0
0
0
0
0
0
0
0
0
0
0
0
0
0
0
0
0
0
0
0
0
0
0
0
0
0
0
0
0
0
0
0
0
0
0
0
0
0
0
0
0
0
0
0
0
0
0
0
0
0
0
0
0
0
0
0
0
0
0
0
0
0
0
0
0
0
0
0
0
0
0
0
0
0
0
0
0
0
0
0
0
0
0
0
0
0
0
0
0
0
0
0
0
0
0
0
0
0
0
0
0
0
0
0
0
0
0
0
0
0
0
0
0
0
0
0
0
0
0
0
0
0
0
0
0
0
0
0
0
0
0
0
0
0
0
0
0
0
0
0
0
0
0
0
0
0
0
0
0
0
0
0
0
0
0
0
0
0
0
0
0
0
0
0
0
0
0
0
0
0
0
0
0
0
0
0
0
0
0
0
0
0
0
0
0
0
0
0
0
0
0
0
0
0
0
0
0
0
0
0
0
0
0
0
0
0
0
0
0
0
0
0
0
0
0
0
0
0
0
0
0
0
0
0
0
0
0
0
0
0
0
0
0
0
0
0
0
0
0
0
0
0
0
0
0
0
0
0
0
0
0
0
0
0
0
0
0
0
0
0
0
0
0
0
0
0
0
0
0
0
0
0
0
0
0
0
0
0
0
0
0
0
0
0
0
0
0
0
0
0
0
0
0
0
0
0
0
0
0
0
0
0
0
0
0
0
0
0
0
0
0
0
0
0
0
0
0
0
0
0
0
0
0
0
0
0
0
0
0
0
0
0
0
0
0
0
0
0
0
0
0
0
0
0
0
0
0
0
0
0
0
0
0
0
0
0
0
0
0
0
0
0
0
0
0
0
0
0
0
0
0
0
0
0
0
0
0
0
0
0
0
0
0
0
0
0
0
0
0
0
0
0
0
0
0
0
0
0
0
0
0
0
0
0
0
0
0
0
0
0
0
0
0
0
0
0
0
0
0
0
0
0
0
0
0
0
0
0
0
0
0
0
0
0
0
0
0
0
0
0
0
0
0
0
0
0
0
0
0
0
0
0
0
0
0
0
0
0
0
0
0
0
0
0
0
0
0
0
0
0
0
0
0
0
0
0
0
0
0
0
0
0
0
0
0
0
0
0
0
0
0
0
0
0
0
0
0
0
0
0
0
0
0
0
0
0
0
0
0
0
0
0
0
0
0
0
0
0
0
0
0
0
0
0
0
0
0
0
0
0
0
0
0
0
0
0
0
0
0
0
0
0
0
0
0
0
0
0
0
0
0
0
0
0
0
0
0
0
0
0
0
0
0
0
0
0
0
0
0
0
0
0
0
0
0
0
0
0
0
0
0
0
0
0
0
0
0
0
0
0
0
0
0
0
0
0
0
0
0
0
0
0
0
0
0
0
0
0
0
0
0
0
0
0
0
0
0
0
0
0
0
0
0
0
0
0
0
0
0
0
0
0
0
0
0
0
0
0
0
0
0
0
0
0
0
0
0
0
0
0
0
0
0
0
0
0
0
0
0
0
0
0
0
0
0
0
0
0
0
0
0
0
0
0
0
0
0
0
0
0
0
0
0
0
0
0
0
0
0
0
0
0
0
0
0
0
0
0
0
0
0
0
0
0
0
0
0
0
0
0
0
0
0
0
0
0
0
0
0
0
0
0
0
0
0
0
0
0
0
0
0
0
0
0
0
0
0
0
0
0
0
0
0
0
0
0
0
0
0
0
0
0
0
0
0
0
0
0
0
0
0
0
0
0
0
0
0
0
0
0
0
0
0
0
0
0
0
0
0
0
0
0
0
0
0
0
0
0
0
0
0
0
0
0
0
0
0
0
0
0
0
0
0
0
0
0
0
0
0
0
0
0
0
0
0
0
0
0
0
0
0
0
0
0
0
0
0
0
0
0
0
0
0
0
0
0
0
0
0
0
0
0
0
0
0
0
0
0
0
0
0
0
0
0
0
0
0
0
0
0
0
0
0
0
0
0
0
0
0
0
0
0
0
0
0
0
0
0
0
0
0
0
0
0
0
0
0
0
0
0
0
0
0
0
0
0
0
0
0
0
0
0
0
0
0
0
0
0
0
0
0
0
0
0
0
0
0
0
0
0
0
0
0
0
0
0
0
0
0
0
0
0
0
0
0
0
0
0
0
0
0
0
0
0
0
0
0
0
0
0
0
0
0
0
0
0
0
0
0
0
0
0
0
0
0
0
0
0
0
0
0
0
0
0
0
0
0
0
0
0
0
0
0
0
0
0
0
0
0
0
0
0
0
0
0
0
0
0
0
0
0
0
0
0
0
0
0
0
0
0
0
0
0
0
0
0
0
0
0
0
0
0
0
0
0
0
0
0
0
0
0
0
0
0
0
0
0
0
0
0
0
0
0
0
0
0
0
0
0
0
0
0
0
0
0
0
0
0
0
0
0
0
0
0
0
0
0
0
0
0
0
0
0
0
0
0
0
0
0
0
0
0
0
0
0
0
0
0
0
0
0
0
0
0
0
0
0
0
0
0
0
0
0
0
0
0
0
0
0
0
0
0
0
0
0
0
0
0
0
0
0
0
0
0
0
0
0
0
0
0
0
0
0
0
0
0
0
0
0
0
0
0
0
0
0
0
0
0
0
0
0
0
0
0
0
0
0
0
0
0
0
0
0
0
0
0
0
0
0
0
0
0
0
0
0
0
0
0
0
0
0
0
0
0
0
0
0
0
0
0
0
0
0
0
0
0
0
0
0
0
0
0
0
0
0
0
0
0
0
0
0
0
0
0
0
0
0
0
0
0
0
0
0
0
0
0
0
0
0
0
0
0
0
0
0
0
0
0
0
0
0
0
0
0
0
0
0
0
0
0
0
0
0
0
0
0
0
0
0
0
0
0
0
0
0
0
0
0
0
0
0
0
0
0
0
0
0
0
0
0
0
0
0
0
0
0
0
0
0
0
0
0
0
0
0
0
0
0
0
0
0
0
0
0
0
0
0
0
0
0
0
0
0
0
0
0
0
0
0
0
0
0
0
0
0
0
0
0
0
0
0
0
0
0
0
0
0
0
0
0
0
0
0
0
0
0
0
0
0
0
0
0
0
0
0
0
0
0
0
0
0
0
0
0
0
0
0
0
0
0
0
0
0
0
0
0
0
0
0
0
0
0
0
0
0
0
0
0
0
0
0
0
0
0
0
0
0
0
0
0
0
0
0
0
0
0
0
0
0
0
0
0
0
0
0
0
0
0
0
0
0
0
0
0
0
0
0
0
0
0
0
0
0
0
0
0
0
0
0
0
0
0
0
0
0
0
0
0
0
0
0
0
0
0
0
0
0
0
0
0
0
0
0
0
0
0
0
0
0
0
0
0
0
0
0
0
0
0
0
0
0
0
0
0
0
0
0
0
0
0
0
0
0
0
0
0
0
0
0
0
0
0
0
0
0
0
0
0
0
0
0
0
0
0
0
0
0
0
0
0
0
0
0
0
0
0
0
0
0
0
0
0
0
142
0
0
255
0
0
255
0
0
190
0
0
0
0
0
0
0
0
0
0
0
0
0
0
0
0
0
0
0
0
92
0
0
206
0
0
244
0
0
252
0
0
237
0
0
185
0
0
38
0
0
0
0
0
0
0
0
0
0
0
0
0
0
0
0
0
0
0
0
0
0
0
0
0
0
0
0
0
142
0
0
255
0
0
255
0
0
190
0
0
0
0
0
0
0
0
0
0
0
0
0
0
0
0
0
0
0
0
0
0
0
0
0
0
0
0
0
0
0
0
0
0
0
0
0
0
0
0
0
0
0
0
0
0
0
0
0
0
0
0
0
0
0
0
0
0
0
0
0
0
0
0
0
0
0
0
0
0
0
0
0
0
0
0
0
0
0
0
0
0
0
0
0
0
0
0
0
0
0
0
0
0
0
0
0
0
0
0
0
46
0
0
238
0
0
254
0
0
255
0
0
190
0
0
0
0
0
0
0
0
0
0
0
0
0
0
0
0
0
96
0
0
244
0
0
255
0
0
255
0
0
255
0
0
255
0
0
255
0
0
220
0
0
28
0
0
0
0
0
0
0
0
0
0
0
0
0
0
0
0
0
0
0
0
0
0
0
46
0
0
238
0
0
254
0
0
255
0
0
190
0
0
0
0
0
0
0
0
0
0
0
0
0
0
0
0
0
0
0
0
0
0
0
0
0
0
0
0
0
0
0
0
0
0
0
0
0
0
0
0
0
0
0
0
0
0
0
0
0
0
0
0
0
0
0
0
0
0
0
0
0
0
0
0
0
0
0
0
0
0
0
0
0
0
0
0
0
0
0
0
0
0
0
0
0
0
0
0
0
0
0
0
0
0
0
0
0
0
0
0
0
186
0
0
253
0
0
204
0
0
255
0
0
190
0
0
0
0
0
0
0
0
0
0
0
0
0
0
0
0
0
218
0
0
255
0
0
227
0
0
113
0
0
50
0
0
145
0
0
245
0
0
255
0
0
170
0
0
0
0
0
0
0
0
0
0
0
0
0
0
0
0
0
0
0
0
0
0
0
186
0
0
253
0
0
204
0
0
255
0
0
190
0
0
0
0
0
0
0
0
0
0
0
0
0
0
0
0
0
0
0
0
0
0
0
0
0
0
0
0
0
0
0
0
0
0
0
0
0
0
0
0
0
0
0
0
0
0
0
0
0
0
0
0
0
0
0
0
0
0
0
0
0
0
0
0
0
0
0
0
0
0
0
0
0
0
0
0
0
0
0
0
0
0
0
0
0
0
0
0
0
0
0
0
0
0
0
0
0
0
101
0
0
251
0
0
193
0
0
177
0
0
255
0
0
190
0
0
0
0
0
0
0
0
0
0
0
0
0
0
98
0
0
255
0
0
250
0
0
77
0
0
0
0
0
0
0
0
0
0
0
151
0
0
255
0
0
234
0
0
0
0
0
0
0
0
0
0
0
0
0
0
0
0
0
0
0
0
101
0
0
251
0
0
193
0
0
177
0
0
255
0
0
190
0
0
0
0
0
0
0
0
0
0
0
0
0
0
0
0
0
0
0
0
0
0
0
0
0
0
0
0
0
0
0
0
0
0
0
0
0
0
0
0
0
0
0
0
0
0
0
0
0
0
0
0
0
0
0
0
0
0
0
0
0
0
0
0
0
0
0
0
0
0
0
0
0
0
0
0
0
0
0
0
0
0
0
0
0
0
0
0
0
0
0
0
0
0
0
0
0
0
219
0
0
242
0
0
59
0
0
177
0
0
255
0
0
190
0
0
0
0
0
0
0
0
0
0
0
0
0
0
169
0
0
255
0
0
209
0
0
0
0
0
0
0
0
0
0
0
0
0
0
13
0
0
246
0
0
255
0
0
86
0
0
0
0
0
0
0
0
0
0
0
0
0
0
0
0
0
219
0
0
242
0
0
59
0
0
177
0
0
255
0
0
190
0
0
0
0
0
0
0
0
0
0
0
0
0
0
0
0
0
0
0
0
0
0
0
0
0
0
0
0
0
0
0
0
0
0
0
0
0
0
0
0
0
0
0
0
0
0
0
0
0
0
0
0
0
0
0
0
0
0
0
0
0
0
0
0
0
0
0
0
0
0
0
0
0
0
0
0
0
0
0
0
0
0
0
0
0
0
0
0
0
0
0
0
0
0
0
152
0
0
255
0
0
153
0
0
0
0
0
177
0
0
255
0
0
190
0
0
0
0
0
0
0
0
0
0
0
0
0
0
197
0
0
255
0
0
176
0
0
0
0
0
0
0
0
0
0
0
0
0
0
0
0
0
221
0
0
255
0
0
139
0
0
0
0
0
0
0
0
0
0
0
0
0
0
152
0
0
255
0
0
153
0
0
0
0
0
177
0
0
255
0
0
190
0
0
0
0
0
0
0
0
0
0
0
0
0
0
0
0
0
0
0
0
0
0
0
0
0
0
0
0
0
0
0
0
0
0
0
0
0
0
0
0
0
0
0
0
0
0
0
0
0
0
0
0
0
0
0
0
0
0
0
0
0
0
0
0
0
0
0
0
0
0
0
0
0
0
0
0
0
0
0
0
0
0
0
0
0
0
0
0
0
0
0
0
56
0
0
241
0
0
219
0
0
0
0
0
0
0
0
177
0
0
255
0
0
190
0
0
0
0
0
0
0
0
0
0
0
0
0
0
210
0
0
255
0
0
156
0
0
0
0
0
0
0
0
0
0
0
0
0
0
0
0
0
206
0
0
255
0
0
158
0
0
0
0
0
0
0
0
0
0
0
56
0
0
241
0
0
219
0
0
0
0
0
0
0
0
177
0
0
255
0
0
190
0
0
0
0
0
0
0
0
0
0
0
0
0
0
0
0
0
0
0
0
0
0
0
1
1
0
58
24
5
92
37
7
102
43
8
103
43
8
89
37
7
49
20
6
0
0
0
0
0
0
0
0
0
0
0
0
0
0
0
0
0
0
0
0
0
0
0
0
0
0
0
0
0
0
0
0
0
0
0
0
0
0
0
0
0
0
0
0
0
0
0
0
192
0
0
251
0
0
102
0
0
0
0
0
0
0
0
177
0
0
255
0
0
190
0
0
0
0
0
0
0
0
0
0
0
0
0
0
215
0
0
255
0
0
150
0
0
0
0
0
0
0
0
0
0
0
0
0
0
0
0
0
202
0
0
255
0
0
165
0
0
0
0
0
0
0
0
0
0
0
192
0
0
251
0
0
102
0
0
0
0
0
0
0
0
177
0
0
255
0
0
190
0
0
0
0
0
0
0
0
0
0
0
0
0
0
0
0
0
0
0
0
3
3
3
116
81
68
169
114
98
159
103
86
125
65
40
123
49
4
124
49
4
123
49
5
96
40
8
24
9
2
0
0
0
0
0
0
0
0
0
0
0
0
0
0
0
0
0
0
0
0
0
0
0
0
0
0
0
0
0
0
0
0
0
0
0
0
0
0
0
110
0
0
252
0
0
186
0
0
0
0
0
0
0
0
0
0
0
177
0
0
255
0
0
190
0
0
0
0
0
0
0
0
0
0
0
0
0
0
210
0
0
255
0
0
156
0
0
0
0
0
0
0
0
0
0
0
0
0
0
0
0
0
206
0
0
255
0
0
158
0
0
0
0
0
0
0
0
110
0
0
252
0
0
186
0
0
0
0
0
0
0
0
0
0
0
177
0
0
255
0
0
190
0
0
0
0
0
0
0
0
0
0
0
0
0
0
0
0
0
0
0
0
137
137
137
208
193
189
217
183
174
253
183
161
221
168
152
164
125
113
150
107
93
169
113
96
119
55
26
106
49
22
9
6
4
0
0
0
0
0
0
0
0
0
0
0
0
0
0
0
0
0
0
0
0
0
0
0
0
0
0
0
0
0
0
0
0
0
0
0
0
223
0
0
238
0
0
46
0
0
0
0
0
0
0
0
0
0
0
177
0
0
255
0
0
190
0
0
0
0
0
0
0
0
0
0
0
0
0
0
197
0
0
255
0
0
176
0
0
0
0
0
0
0
0
0
0
0
0
0
0
0
0
0
221
0
0
255
0
0
139
0
0
0
0
0
0
0
0
223
0
0
238
0
0
46
0
0
0
0
0
0
0
0
0
0
0
177
0
0
255
0
0
190
0
0
0
0
0
0
0
0
0
0
0
0
0
0
35
24
20
124
94
84
224
224
223
255
255
255
243
243
243
219
166
148
245
244
244
255
255
254
240
238
238
215
160
143
113
51
16
208
154
136
158
121
108
0
0
0
0
0
0
0
0
0
0
0
0
0
0
0
0
0
0
0
0
0
0
0
0
0
0
0
0
0
0
0
0
0
34
0
0
255
0
0
255
0
0
255
0
0
255
0
0
255
0
0
255
0
0
255
0
0
255
0
0
255
0
0
255
0
0
205
0
0
0
0
0
0
0
0
169
0
0
255
0
0
209
0
0
0
0
0
0
0
0
0
0
0
0
0
0
13
0
0
246
0
0
255
0
0
86
0
0
0
0
0
34
0
0
255
0
0
255
0
0
255
0
0
255
0
0
255
0
0
255
0
0
255
0
0
255
0
0
255
0
0
255
0
0
205
0
0
0
0
0
124
92
81
239
175
155
252
183
161
207
183
177
229
194
184
220
177
166
232
171
152
227
227
226
255
255
255
247
247
246
238
175
156
242
176
155
249
181
159
241
176
155
55
40
36
0
0
0
0
0
0
0
0
0
0
0
0
0
0
0
0
0
0
0
0
0
0
0
0
0
0
0
0
0
0
34
0
0
255
0
0
255
0
0
255
0
0
255
0
0
255
0
0
255
0
0
255
0
0
255
0
0
255
0
0
255
0
0
205
0
0
0
0
0
0
0
0
98
0
0
255
0
0
249
0
0
77
0
0
0
0
0
0
0
0
0
0
0
151
0
0
255
0
0
234
0
0
0
0
0
0
0
0
34
0
0
255
0
0
255
0
0
255
0
0
255
0
0
255
0
0
255
0
0
255
0
0
255
0
0
255
0
0
255
0
0
205
0
0
1
1
0
226
166
147
253
183
161
253
183
161
231
170
151
253
183
160
253
183
160
253
183
161
230
190
178
233
219
216
231
190
178
253
183
161
253
183
161
253
183
161
253
183
161
152
113
100
0
0
0
0
0
0
0
0
0
0
0
0
0
0
0
0
0
0
0
0
0
0
0
0
0
0
0
0
0
0
0
0
0
0
0
0
0
0
0
0
0
0
0
0
0
0
0
0
0
0
0
177
0
0
255
0
0
190
0
0
0
0
0
0
0
0
0
0
0
0
0
0
0
0
0
218
0
0
255
0
0
226
0
0
112
0
0
46
0
0
144
0
0
245
0
0
255
0
0
170
0
0
0
0
0
0
0
0
0
0
0
0
0
0
0
0
0
0
0
0
0
0
0
0
0
0
0
0
0
177
0
0
255
0
0
190
0
0
0
0
0
0
0
0
86
65
59
252
183
162
253
183
161
253
183
161
237
173
153
230
170
150
231
170
150
244
179
158
253
183
161
234
171
150
235
172
152
253
183
161
253
183
161
253
183
161
253
183
161
200
147
130
0
0
0
0
0
0
0
0
0
0
0
0
0
0
0
0
0
0
0
0
0
0
0
0
0
0
0
0
0
0
0
0
0
0
0
0
0
0
0
0
0
0
0
0
0
0
0
0
0
0
0
177
0
0
255
0
0
190
0
0
0
0
0
0
0
0
0
0
0
0
0
0
0
0
0
98
0
0
245
0
0
255
0
0
255
0
0
255
0
0
255
0
0
255
0
0
220
0
0
28
0
0
0
0
0
0
0
0
0
0
0
0
0
0
0
0
0
0
0
0
0
0
0
0
0
0
0
0
0
177
0
0
255
0
0
190
0
0
0
0
0
0
0
0
152
112
99
253
183
161
253
183
161
253
183
161
235
173
153
232
170
151
190
140
124
166
124
109
130
98
87
44
38
34
139
105
93
253
183
161
253
183
161
253
183
161
253
183
161
227
166
146
0
0
0
0
0
0
0
0
0
0
0
0
0
0
0
0
0
0
0
0
0
0
0
0
0
0
0
0
0
0
0
0
0
0
0
0
0
0
0
0
0
0
0
0
0
0
0
0
0
0
0
177
0
0
255
0
0
190
0
0
0
0
0
0
0
0
0
0
0
0
0
0
0
0
0
0
0
0
92
0
0
207
0
0
245
0
0
252
0
0
238
0
0
185
0
0
42
0
0
0
0
0
0
0
0
0
0
0
0
0
0
0
0
0
0
0
0
0
0
0
0
0
0
0
0
0
0
0
0
177
0
0
255
0
0
190
0
0
0
0
0
0
0
0
186
137
121
252
183
161
253
183
161
240
175
154
233
174
154
234
173
154
124
93
82
29
29
27
126
64
83
179
96
118
224
163
145
253
183
161
253
183
161
253
183
161
253
183
161
243
179
157
3
2
2
0
0
0
0
0
0
0
0
0
0
0
0
0
0
0
0
0
0
0
0
0
0
0
0
0
0
0
0
0
0
0
0
0
0
0
0
0
0
0
0
0
0
0
0
0
0
0
0
0
0
0
0
0
0
0
0
0
0
0
0
0
0
0
0
0
0
0
0
0
0
0
0
0
0
0
0
0
0
0
0
0
0
0
0
0
0
0
0
0
0
0
0
0
0
0
0
0
0
0
0
0
0
0
0
0
0
0
0
0
0
0
0
0
0
0
0
0
0
0
0
0
0
0
0
0
0
0
0
0
0
0
0
0
0
0
0
0
0
0
0
0
209
152
134
253
183
161
253
183
161
226
168
149
253
183
161
253
183
161
252
183
162
234
171
151
234
170
154
244
177
157
253
183
161
253
183
161
253
183
161
253
183
161
253
183
161
252
184
162
40
30
26
0
0
0
0
0
0
0
0
0
0
0
0
0
0
0
0
0
0
0
0
0
0
0
0
0
0
0
0
0
0
0
0
0
0
0
0
0
0
0
0
0
0
0
0
0
0
0
0
0
0
0
0
0
0
0
0
0
0
0
0
0
0
0
0
0
0
0
0
0
0
0
0
0
0
0
0
0
0
0
0
0
0
0
0
0
0
0
0
0
0
0
0
0
0
0
0
0
0
0
0
0
0
0
0
0
0
0
0
0
0
0
0
0
0
0
0
0
0
0
0
0
0
0
0
0
0
0
0
0
0
0
0
0
0
0
0
0
0
0
0
0
225
165
146
253
183
161
253
183
161
245
180
158
236
171
151
253
183
161
253
183
161
253
183
161
253
183
161
253
183
161
253
183
161
253
183
161
253
183
161
253
183
161
253
183
161
252
183
162
69
53
48
0
0
0
0
0
0
0
0
0
0
0
0
0
0
0
0
0
0
0
0
0
0
0
0
0
0
0
0
0
0
0
0
0
0
0
0
0
0
0
0
0
0
0
0
0
0
0
0
0
0
0
0
0
0
0
0
0
0
0
0
0
0
0
0
0
0
0
0
0
0
0
0
0
0
0
0
0
0
0
0
0
0
0
0
0
0
0
0
0
0
0
0
0
0
0
0
0
0
0
0
0
0
0
0
0
0
0
0
0
0
0
0
0
0
0
0
0
0
0
0
0
0
0
0
0
0
0
0
0
0
0
0
0
0
0
0
0
0
1
1
1
233
170
150
253
183
161
242
176
156
230
169
150
252
183
161
253
183
161
253
183
161
253
183
161
250
182
159
253
183
161
253
183
161
253
183
161
253
183
161
253
183
161
253
183
161
244
180
160
128
124
123
0
0
0
0
0
0
0
0
0
0
0
0
0
0
0
0
0
0
0
0
0
0
0
0
0
0
0
0
0
0
0
0
0
0
0
0
0
0
0
0
0
0
0
0
0
0
0
0
0
0
0
0
0
0
0
0
0
0
0
0
0
0
0
0
0
0
0
0
0
0
0
0
0
0
0
0
0
0
0
0
0
0
0
0
0
0
0
0
0
0
0
0
0
0
0
0
0
0
0
0
0
0
0
0
0
0
0
0
0
0
0
0
0
0
0
0
0
0
0
0
0
0
0
0
0
0
0
0
0
0
0
0
0
0
0
0
0
0
2
2
2
236
172
151
253
183
161
230
170
150
253
183
161
253
183
161
247
180
159
253
183
161
253
183
161
231
170
150
253
183
161
253
183
161
253
183
161
253
183
161
253
183
161
249
182
160
230
216
212
215
215
215
58
58
58
0
0
0
0
0
0
0
0
0
0
0
0
0
0
0
0
0
0
0
0
0
0
0
0
0
0
0
0
0
0
0
0
0
0
0
0
0
0
0
0
0
0
0
0
0
0
0
0
0
0
0
0
0
0
0
0
0
0
0
0
0
0
0
0
0
0
0
0
0
0
0
0
0
0
0
0
0
0
0
0
0
0
0
0
0
0
0
0
0
0
0
0
0
0
0
0
0
0
0
0
0
0
0
0
0
0
0
0
0
0
0
0
0
0
0
0
0
0
0
0
0
0
0
0
0
0
0
0
0
0
0
0
0
0
0
139
139
139
231
177
160
253
183
161
248
180
159
228
170
150
231
170
151
226
167
148
230
169
150
226
168
148
247
180
159
253
183
161
253
183
161
253
183
161
253
183
161
250
182
160
226
206
200
244
244
244
243
243
242
229
229
229
58
58
58
0
0
0
0
0
0
0
0
0
0
0
0
0
0
0
90
77
68
90
77
68
91
78
69
92
79
70
92
79
70
92
80
70
92
82
71
92
82
72
93
83
73
94
84
74
94
85
74
93
84
73
88
75
62
93
70
54
95
68
49
105
75
53
112
80
56
123
91
67
122
96
75
107
91
76
100
89
77
101
89
77
97
88
76
99
88
77
100
88
76
101
89
77
102
90
78
103
91
77
104
92
78
105
92
78
105
93
79
106
94
80
106
94
80
106
94
80
107
95
81
84
74
63
0
0
0
0
0
0
66
66
66
213
213
212
235
225
222
247
179
159
253
183
161
253
183
162
253
183
161
253
183
161
253
183
161
253
183
161
253
183
161
253
183
161
253
183
161
253
183
161
244
180
158
230
214
210
250
250
249
235
235
234
255
255
255
255
255
255
211
211
210
1
1
1
0
0
0
0
0
0
0
0
0
0
0
0
92
79
69
92
79
69
93
80
70
93
81
70
94
82
70
95
83
71
94
83
72
94
84
73
95
85
74
96
86
75
92
80
68
79
58
45
80
57
41
91
65
47
102
73
53
116
84
61
127
93
67
140
106
79
148
115
88
145
111
84
122
97
77
102
90
78
100
90
78
100
89
77
101
89
77
103
91
78
104
92
78
106
94
80
107
93
80
107
94
81
108
95
81
109
95
82
109
95
82
109
96
82
110
96
83
87
76
65
0
0
0
5
5
5
219
219
219
239
239
239
249
249
249
233
219
215
242
179
158
253
183
161
253
183
161
253
183
161
253
183
161
253
183
161
253
183
161
253
183
161
251
183
161
230
186
173
239
234
232
251
251
251
230
230
230
255
255
255
255
255
255
255
255
255
255
255
255
159
159
158
0
0
0
0
0
0
0
0
0
0
0
0
93
81
69
94
82
70
94
82
71
95
83
71
96
84
72
97
85
73
96
85
73
96
86
74
97
87
75
86
74
62
83
55
40
93
60
45
90
60
43
95
63
46
99
67
48
107
75
54
123
88
63
149
114
86
173
138
109
188
156
128
180
149
121
148
121
95
107
95
81
101
91
79
102
91
79
105
93
79
106
94
80
107
95
81
109
95
82
109
95
82
110
96
83
110
96
83
111
97
84
111
97
84
112
98
85
89
77
67
0
0
0
161
161
161
255
255
255
255
255
255
231
231
230
255
255
255
240
235
233
234
183
169
253
183
161
253
183
161
253
183
161
253
183
161
240
176
156
231
195
184
233
226
222
254
254
254
249
249
249
231
231
231
255
255
255
255
255
255
255
255
255
255
255
255
255
255
255
245
245
245
70
70
69
0
0
0
0
0
0
0
0
0
96
84
72
96
84
71
97
85
73
97
85
73
98
86
74
99
87
75
98
88
76
99
89
77
88
78
66
85
55
40
108
69
50
113
71
53
116
75
55
114
74
54
115
75
55
122
82
59
129
88
65
149
109
84
190
160
135
232
216
195
229
211
190
193
166
138
157
130
104
102
92
80
104
93
80
107
95
81
108
96
82
109
96
82
110
96
83
111
97
84
112
98
85
112
98
85
114
100
87
114
100
87
114
100
87
90
79
68
36
36
36
239
239
238
240
240
240
255
255
255
249
249
249
234
234
234
255
255
255
247
247
247
228
191
180
253
183
161
234
185
169
232
218
213
246
245
245
255
255
255
255
255
255
241
241
241
236
236
236
255
255
255
255
255
255
255
255
255
255
255
255
255
255
255
255
255
255
255
255
255
197
197
196
0
0
0
0
0
0
0
0
0
98
86
73
99
86
72
100
86
73
100
88
74
100
88
74
101
89
76
101
90
77
101
91
79
84
63
50
109
70
50
114
71
52
119
75
55
119
75
55
116
73
53
117
74
55
121
78
58
122
81
60
131
91
67
177
146
121
230
211
189
237
222
202
197
170
143
174
142
113
116
99
83
106
95
81
108
96
82
110
98
84
111
98
84
112
98
85
113
99
86
114
100
87
115
101
88
116
102
87
116
102
88
116
102
89
91
81
68
161
161
161
255
255
255
235
235
235
255
255
255
255
255
255
246
246
245
232
232
231
244
244
244
236
236
235
217
200
196
238
238
238
234
234
234
255
255
255
250
250
250
232
232
231
245
245
244
255
255
255
255
255
255
255
255
255
255
255
255
255
255
255
255
255
255
255
255
255
255
255
255
252
252
252
96
96
96
0
0
0
0
0
0
101
87
74
102
88
75
102
88
75
103
89
76
103
91
77
104
92
78
103
93
78
99
89
74
98
63
45
114
72
52
119
75
54
127
82
59
127
82
60
126
81
59
123
79
57
114
72
54
109
70
52
112
74
54
138
102
78
184
156
130
209
185
160
188
157
130
171
139
110
143
116
92
107
97
83
110
98
84
111
99
85
111
99
85
113
100
86
114
101
87
116
102
88
117
104
88
117
104
88
117
104
88
121
108
91
115
100
85
229
229
229
253
253
253
234
234
233
255
255
255
255
255
255
255
255
255
254
254
254
237
237
237
232
232
232
235
235
235
255
255
255
241
242
241
234
234
234
239
239
239
255
255
255
255
255
255
255
255
255
255
255
255
255
255
255
255
255
255
255
255
255
255
255
255
255
255
255
255
255
255
255
255
255
205
205
205
82
82
82
0
0
0
103
89
76
104
90
77
104
90
77
105
91
78
105
93
79
106
94
80
105
96
81
97
83
69
109
71
52
122
78
55
129
84
61
135
90
67
139
95
72
138
95
72
128
83
61
121
78
58
112
70
50
106
68
50
101
66
48
131
97
77
160
127
103
163
128
101
162
129
99
164
132
104
110
100
86
112
100
86
113
101
87
114
101
88
115
102
88
116
103
88
117
104
88
118
105
89
118
105
89
119
106
90
127
113
96
156
147
137
251
251
250
230
230
230
255
255
254
255
255
255
255
255
255
255
255
255
255
255
255
255
255
255
255
255
255
235
235
235
255
255
255
255
255
255
255
255
255
255
255
255
255
255
255
255
255
255
255
255
255
249
249
249
255
255
255
255
255
255
255
255
255
255
255
255
255
255
255
255
255
255
255
255
255
235
235
234
200
200
200
0
0
0
105
91
78
105
91
78
106
92
79
107
93
80
107
95
81
108
96
82
108
98
83
97
80
65
114
75
55
128
83
60
134
89
66
143
99
75
137
93
69
131
88
65
127
84
61
122
80
58
114
72
53
109
70
51
93
60
45
107
74
57
142
109
87
153
118
93
151
115
88
183
149
117
152
134
114
157
139
118
151
133
113
160
141
120
144
126
106
137
120
101
138
122
103
133
117
99
123
109
93
120
107
91
122
109
93
174
169
163
220
220
220
247
247
247
255
255
255
255
255
255
255
255
255
255
255
255
255
255
255
247
247
247
238
238
238
250
250
250
255
255
255
255
255
255
255
255
255
255
255
255
255
255
255
255
255
255
255
255
255
233
233
233
255
255
255
255
255
255
255
255
255
255
255
255
255
255
255
255
255
255
249
249
249
236
236
235
221
221
220
35
35
35
108
95
79
108
95
79
109
96
80
110
97
81
111
98
83
112
99
85
113
101
86
102
86
70
116
76
55
127
82
59
133
88
64
133
88
64
127
83
60
127
84
61
130
86
63
122
80
58
114
72
52
106
67
49
111
76
57
122
90
69
136
106
85
131
97
74
146
111
84
190
156
122
180
160
135
180
159
134
180
158
134
189
168
141
165
145
121
137
120
101
165
145
123
173
152
129
163
143
120
135
119
101
135
120
101
205
196
188
233
233
233
255
255
255
255
255
255
255
255
255
255
255
255
255
255
255
255
255
255
246
246
246
231
231
231
255
255
255
255
255
255
255
255
255
255
255
255
255
255
255
255
255
255
255
255
255
255
255
255
233
233
233
244
244
244
255
255
255
255
255
255
255
255
255
255
255
255
243
243
242
235
235
235
255
255
255
247
247
247
56
55
55
110
97
81
111
98
82
112
99
83
113
100
84
115
102
86
117
104
88
118
106
90
109
92
76
114
74
53
122
78
55
129
84
61
135
91
68
128
84
62
122
80
59
127
84
61
133
89
66
124
80
59
108
68
50
92
57
42
91
58
43
139
110
90
133
100
77
166
130
101
199
164
130
185
163
138
168
149
125
149
132
110
148
131
110
144
127
107
139
122
103
136
121
102
133
118
98
134
118
101
134
118
100
146
128
108
187
165
151
249
249
249
255
255
255
255
255
255
255
255
255
255
255
255
255
255
255
255
255
255
253
253
253
236
236
236
255
255
255
255
255
255
255
255
255
255
255
255
255
255
255
255
255
255
255
255
255
255
255
255
255
255
254
218
218
217
235
235
235
235
235
235
234
234
234
235
235
234
245
245
245
255
255
255
255
255
255
204
202
201
1
1
1
112
99
82
113
100
83
114
101
85
116
103
86
119
105
88
125
110
93
124
111
93
112
95
78
112
73
52
122
79
56
126
82
59
130
87
63
136
92
69
121
78
57
115
72
54
141
96
73
126
84
63
107
68
51
91
58
44
94
64
47
124
95
76
125
92
71
173
138
109
191
155
122
179
158
133
190
168
142
164
146
122
137
122
103
154
136
114
167
146
122
156
137
115
157
138
116
156
138
116
162
143
120
176
156
131
201
177
161
255
255
255
255
255
255
255
255
255
255
255
255
255
255
255
255
255
255
255
255
255
234
234
234
255
255
255
255
255
255
255
255
255
255
255
255
255
255
255
255
255
255
255
255
255
255
255
255
255
255
255
255
255
255
225
225
225
247
247
246
255
255
255
255
255
255
255
255
255
255
255
255
255
255
255
235
228
226
204
155
139
0
0
0
116
101
85
118
103
85
121
106
88
123
108
89
133
116
95
147
127
104
130
106
87
115
97
81
104
67
49
89
58
40
100
72
57
99
71
52
99
69
50
93
60
45
113
72
53
99
61
43
85
57
42
58
39
28
46
30
20
51
33
22
62
43
31
111
83
65
158
123
97
128
101
79
115
90
73
148
122
101
144
129
108
138
123
104
153
136
114
159
140
117
165
144
121
177
156
131
183
161
136
179
159
133
166
146
122
195
181
170
255
255
255
255
255
255
255
255
255
255
255
255
255
255
255
255
255
255
245
245
244
233
233
233
255
255
255
255
255
255
255
255
255
255
255
255
255
255
255
255
255
255
255
255
255
255
255
255
255
255
255
255
255
255
240
240
240
241
241
241
255
255
255
255
255
255
255
255
255
238
235
234
230
205
197
244
179
159
216
158
140
0
0
0
121
105
87
121
106
87
124
108
89
124
109
90
127
112
92
132
117
97
121
94
75
89
59
43
75
50
37
73
47
33
90
61
45
79
56
42
56
36
25
73
49
37
95
65
49
64
41
31
53
36
25
72
47
33
91
62
46
69
44
32
61
41
30
65
43
32
138
113
93
136
110
88
93
66
53
114
91
75
139
125
106
139
124
104
144
128
108
148
131
110
150
133
110
171
150
124
189
168
141
193
172
145
195
172
146
210
199
186
255
255
255
255
255
255
255
255
255
255
255
255
255
255
255
255
255
255
230
230
230
249
249
249
255
255
255
255
255
255
255
255
255
255
255
255
255
255
255
255
255
255
255
255
255
255
255
255
255
255
255
255
255
255
255
255
255
224
210
206
234
190
177
233
190
176
232
177
159
249
181
160
252
183
161
253
183
161
212
171
159
1
1
0
141
120
97
124
108
89
124
109
90
126
111
92
129
114
94
142
124
102
134
107
86
115
77
56
99
65
47
86
56
40
90
58
42
87
57
43
81
52
39
91
61
45
114
72
53
83
52
39
42
29
21
77
50
36
97
64
48
70
45
33
58
38
27
70
46
33
143
110
85
161
136
113
59
33
23
142
120
102
140
127
107
142
127
107
157
139
116
175
154
128
170
149
124
166
145
121
175
153
128
177
156
130
187
163
137
210
198
186
255
255
255
255
255
255
255
255
255
255
255
255
255
255
255
255
255
255
237
237
236
255
255
255
255
255
255
255
255
255
255
255
255
255
255
255
255
255
255
255
255
255
255
255
255
255
255
255
255
255
255
255
255
255
255
255
255
235
221
217
253
183
161
253
183
161
253
183
161
253
183
161
253
183
161
253
183
161
233
214
208
45
45
45
147
124
100
129
112
92
126
111
92
128
113
94
131
115
96
138
121
99
137
116
95
110
68
49
122
80
58
115
75
55
134
93
69
129
91
66
125
86
62
92
59
43
114
71
54
72
44
34
48
31
22
62
41
29
114
78
55
93
60
42
91
59
43
113
81
61
146
109
83
173
141
114
67
44
33
153
134
111
162
144
121
176
156
131
158
140
117
166
146
121
172
149
124
181
157
131
170
147
122
156
134
110
185
161
135
207
192
179
255
255
255
255
255
255
255
255
255
255
255
255
255
255
255
255
255
255
235
235
235
255
255
255
255
255
255
255
255
255
255
255
255
255
255
255
255
255
255
255
255
255
255
255
255
255
255
255
255
255
255
255
255
255
255
255
255
234
226
223
253
183
161
253
183
161
253
183
161
253
183
161
253
183
161
253
183
162
235
230
228
58
57
58
154
130
104
158
134
108
148
126
102
153
130
105
157
134
109
155
134
109
143
123
100
115
72
52
115
77
57
122
82
60
146
105
78
142
100
74
121
83
62
106
65
49
113
69
53
70
42
33
62
38
28
91
61
46
90
60
44
110
75
54
97
63
46
92
60
45
125
87
64
152
119
93
122
96
79
176
155
129
186
164
138
183
162
135
185
164
137
179
156
129
172
148
122
166
142
117
162
138
113
159
135
111
167
143
117
194
166
150
255
255
255
255
255
255
255
255
255
255
255
255
255
255
255
255
255
255
236
236
236
255
255
255
255
255
255
255
255
255
255
255
255
255
255
255
255
255
255
255
255
255
255
255
255
255
255
255
255
255
255
255
255
255
255
255
255
236
234
233
253
183
161
253
183
161
253
183
161
253
183
161
253
183
161
239
175
154
195
194
193
1
1
1
145
123
99
151
127
102
152
129
104
154
131
106
151
129
105
149
128
104
151
131
106
133
100
79
116
75
54
131
89
66
131
90
68
123
82
62
114
72
54
107
63
49
114
68
53
94
57
45
70
45
34
79
48
36
119
77
59
92
58
41
76
46
33
60
37
26
122
85
62
141
106
81
155
128
105
174
153
127
169
147
122
155
134
109
167
145
119
169
145
119
184
160
133
187
163
136
177
154
127
171
148
122
174
150
124
208
163
139
212
197
193
249
249
248
252
252
252
255
255
255
255
255
255
247
247
246
228
228
227
251
251
251
255
255
255
255
255
255
255
255
255
255
255
255
255
255
255
255
255
255
255
255
255
255
255
255
255
255
255
255
255
255
255
255
255
245
245
244
243
178
157
253
183
161
253
183
161
253
183
161
253
183
161
241
176
156
9
6
5
0
0
0
135
117
95
136
118
96
139
121
97
149
128
104
155
133
108
152
131
107
161
138
112
141
113
89
108
69
50
129
85
61
139
94
69
131
87
65
108
67
50
101
60
45
117
73
57
83
48
37
73
46
35
51
31
22
99
61
45
101
63
47
79
50
37
52
32
23
122
87
63
128
94
70
161
135
110
159
137
113
153
131
107
155
132
107
160
137
111
161
137
111
162
138
113
165
141
115
160
136
112
168
144
119
176
152
127
189
150
128
175
128
111
70
70
68
155
156
154
174
178
173
246
246
245
254
254
253
254
254
254
230
230
230
255
255
255
255
255
255
255
255
255
255
255
255
255
255
255
255
255
255
255
255
255
255
255
255
238
238
237
255
255
255
249
249
249
217
217
217
221
163
144
253
183
161
253
183
161
253
183
161
253
183
161
250
184
164
4
1
0
0
0
0
157
133
107
160
135
109
153
129
104
154
130
104
161
137
110
163
139
112
166
142
116
158
133
108
115
83
63
120
79
56
133
88
64
111
71
52
115
77
57
77
45
33
84
49
36
54
32
23
27
16
12
40
26
18
84
52
39
100
63
45
72
45
32
68
44
32
115
81
59
168
142
116
175
154
128
168
147
122
174
151
125
169
145
119
174
150
123
169
146
119
161
140
114
166
145
118
165
145
118
156
138
113
155
137
113
135
117
96
181
140
120
34
83
15
32
58
21
34
81
15
50
50
49
133
133
132
167
165
164
226
186
156
230
201
179
234
229
224
246
245
244
254
254
254
240
240
240
214
214
214
174
174
174
104
104
103
75
93
70
64
77
61
28
28
26
29
29
27
177
131
116
253
183
161
253
183
161
253
183
161
253
183
161
251
184
162
79
57
50
0
0
0
161
136
108
146
122
96
140
116
92
145
122
97
155
131
105
159
135
109
161
137
111
160
137
111
128
103
81
114
75
53
112
72
51
67
42
30
41
26
17
33
20
13
36
21
13
45
27
18
28
19
14
31
22
17
32
21
15
65
41
29
67
42
30
87
58
42
97
65
47
175
152
124
182
160
132
179
155
128
162
140
115
169
147
120
177
153
126
176
152
124
176
153
125
178
156
128
175
153
126
163
143
117
161
141
116
129
113
92
54
44
41
34
89
12
35
98
8
35
92
11
33
74
18
32
60
22
109
79
29
253
159
26
254
159
25
253
159
28
225
144
35
25
24
21
29
29
27
29
29
27
29
29
27
29
29
27
33
80
16
33
71
20
32
67
20
34
83
14
100
104
63
250
182
160
246
179
158
252
183
161
232
170
151
251
183
161
180
133
117
0
0
0
144
120
95
139
117
92
143
119
94
139
116
92
139
117
92
142
120
95
142
120
96
136
116
91
127
105
83
114
74
53
80
51
35
30
19
13
42
27
19
44
27
19
44
27
18
52
32
23
32
21
14
33
22
16
31
20
14
46
33
24
63
42
30
99
67
48
101
77
59
175
154
127
173
151
125
168
146
120
159
137
113
159
138
111
165
142
116
170
146
119
172
149
121
176
152
124
172
149
122
170
148
121
167
146
120
136
119
97
0
0
0
24
53
12
36
97
9
35
98
8
35
98
8
35
98
8
36
96
8
156
118
25
219
143
29
218
142
29
143
110
26
32
73
19
34
77
18
33
80
15
34
85
14
34
90
11
35
96
9
35
98
8
35
98
8
35
98
8
35
98
8
162
133
106
247
181
160
223
165
145
247
182
162
161
121
109
53
39
35
0
0
0
141
119
94
147
123
98
144
121
95
137
115
91
138
117
92
146
123
98
147
124
99
144
123
98
101
85
68
110
72
52
93
61
44
36
23
15
85
52
38
106
65
49
97
58
44
86
51
39
71
43
33
50
31
22
49
31
21
51
34
24
71
47
34
97
68
49
141
119
97
164
143
118
162
141
115
162
139
114
165
142
116
170
147
119
169
146
118
174
151
123
169
147
120
169
148
121
170
148
121
169
148
121
169
148
121
142
123
101
0
0
0
3
3
2
31
76
14
35
98
8
35
98
8
35
98
8
35
98
8
35
98
8
35
98
8
35
98
8
35
98
8
35
98
8
35
98
8
35
98
8
35
98
8
35
98
8
35
98
8
35
98
8
35
98
8
35
98
8
35
98
8
36
98
8
102
108
65
115
87
76
18
13
12
4
3
3
0
0
0
0
0
0
144
121
96
147
123
98
148
124
98
143
119
94
146
123
97
144
121
96
127
108
86
52
44
35
20
16
10
80
51
35
100
65
46
35
22
14
81
50
37
77
48
35
63
39
28
52
32
22
53
34
24
47
30
21
40
25
16
47
33
25
61
42
30
122
98
78
163
142
118
162
141
116
160
139
113
160
138
113
167
145
118
165
143
116
163
142
116
170
147
121
174
150
123
170
148
121
167
146
119
166
145
119
168
147
120
135
117
95
0
0
0
0
0
0
8
15
5
34
87
12
35
98
8
35
98
8
35
98
8
35
98
8
35
98
8
35
98
8
35
98
8
35
98
8
35
98
8
35
98
8
35
98
8
35
98
8
35
98
8
35
98
8
35
98
8
35
98
8
35
98
8
35
98
8
34
85
12
2
2
2
0
0
0
0
0
0
0
0
0
0
0
0
111
94
75
111
95
74
114
97
76
120
102
81
121
104
82
107
92
73
31
26
20
13
10
6
27
23
15
79
50
35
89
57
40
34
22
15
47
30
22
53
33
22
44
26
17
35
21
14
38
23
16
37
24
16
33
21
15
42
29
20
76
51
37
80
65
51
135
117
95
149
130
106
150
131
107
151
132
107
156
136
110
160
140
113
162
141
114
165
143
116
169
147
120
161
140
114
159
139
114
156
135
111
157
136
111
127
109
89
0
0
0
0
0
0
0
0
0
28
72
11
35
98
8
35
98
8
35
98
8
35
98
8
35
98
8
35
96
9
35
98
8
35
98
8
35
98
8
35
98
8
35
98
8
35
98
8
35
98
8
35
98
8
35
98
8
35
98
8
35
98
8
35
98
8
29
71
12
0
0
0
0
0
0
0
0
0
0
0
0
0
0
0
99
83
67
100
83
66
102
85
68
106
88
69
97
83
66
31
25
18
10
8
5
18
14
9
27
23
14
44
30
21
95
61
44
35
25
18
45
30
20
47
30
21
58
36
26
48
29
21
40
24
17
29
20
13
27
20
14
59
42
31
109
81
63
65
53
38
44
33
25
106
84
64
103
80
60
95
73
54
89
67
49
84
63
46
73
54
39
71
53
38
61
45
31
58
41
29
56
40
28
49
34
23
48
33
23
34
22
14
0
0
0
0
0
0
0
0
0
26
70
9
35
98
8
35
98
8
35
98
8
35
98
8
35
98
8
35
90
11
35
91
11
35
98
9
35
98
8
35
98
8
35
98
8
35
98
8
35
98
8
35
98
8
35
98
8
35
98
8
35
98
8
35
98
8
29
71
11
0
0
0
0
0
0
0
0
0
0
0
0
0
0
0
110
79
55
109
79
55
108
78
54
98
72
50
31
23
16
18
13
9
9
8
4
20
16
11
29
25
17
30
26
17
70
45
33
43
29
20
46
32
22
40
27
18
43
28
19
37
24
17
31
21
14
25
18
13
26
17
12
70
47
34
78
55
40
76
61
42
8
6
4
63
43
31
76
54
38
87
62
43
84
59
40
82
57
39
75
53
36
70
49
34
82
59
41
89
63
44
90
64
45
97
70
49
93
66
46
73
51
34
0
0
0
0
0
0
0
0
0
27
69
9
35
98
8
35
98
8
35
98
8
35
98
8
35
98
8
35
98
8
35
96
9
35
87
13
35
98
8
35
98
8
35
98
8
35
98
8
35
98
8
35
98
8
35
98
8
35
98
8
35
98
8
35
98
8
30
76
10
0
0
0
0
0
0
0
0
0
0
0
0
0
0
0
109
78
55
107
76
53
86
60
42
34
23
17
21
15
11
19
14
10
7
5
3
20
17
11
29
25
17
33
28
18
27
22
16
51
32
24
58
38
28
36
25
16
33
23
15
32
22
15
28
19
12
39
27
19
61
42
30
78
56
44
32
22
16
82
67
47
31
27
18
48
33
24
60
42
31
95
69
48
98
72
50
91
66
46
86
62
43
78
55
39
75
53
37
61
42
29
74
52
36
86
60
42
88
61
43
73
51
34
0
0
0
0
0
0
0
0
0
26
70
9
35
98
8
35
98
8
35
98
8
35
98
8
35
98
8
35
98
8
35
98
8
35
90
10
35
98
8
35
98
8
35
98
8
35
98
8
35
98
8
35
98
8
35
98
8
35
98
8
35
98
8
35
98
8
33
86
12
0
0
0
0
0
0
0
0
0
0
0
0
0
0
0
63
44
32
51
37
27
24
18
14
24
16
12
21
16
12
19
14
10
10
7
4
14
11
7
31
27
18
32
28
18
33
29
19
19
14
9
57
34
25
80
51
38
74
47
34
42
27
19
35
22
15
30
20
14
35
23
17
34
22
15
34
27
18
85
70
51
24
20
14
42
30
21
64
45
34
41
29
21
43
30
21
40
28
20
47
33
22
59
41
28
57
40
27
42
29
19
65
47
33
95
70
49
105
78
55
87
63
43
0
0
0
0
0
0
0
0
0
28
71
10
35
98
8
35
98
8
35
98
8
35
98
8
35
98
8
35
98
8
35
98
8
36
91
14
35
98
8
35
98
8
35
98
8
35
98
8
35
98
8
35
98
8
35
98
8
35
98
8
35
98
8
35
98
8
36
94
11
2
5
2
0
0
0
0
0
0
0
0
0
0
0
0
34
23
17
21
15
11
20
15
11
22
16
12
22
15
12
20
15
11
14
10
7
7
5
3
27
23
15
32
28
18
31
27
17
31
27
19
16
11
7
52
32
23
86
54
41
65
41
31
53
35
26
49
32
23
31
21
15
22
15
10
70
58
43
68
56
39
6
4
3
40
29
21
58
42
31
38
27
20
37
26
20
47
33
24
59
41
31
93
67
48
120
89
64
124
93
66
108
81
57
125
95
66
99
73
51
37
25
16
0
0
0
0
0
0
0
0
0
30
75
12
35
98
8
35
98
8
35
98
8
35
98
8
35
98
8
35
98
8
35
98
8
34
90
10
36
97
9
35
98
8
35
98
8
35
98
8
35
98
8
35
98
8
35
98
8
35
98
8
35
98
8
35
98
8
36
97
9
11
23
5
0
0
0
0
0
0
0
0
0
0
0
0
19
14
10
19
14
10
20
15
11
22
16
12
22
16
12
22
16
12
20
15
11
7
6
4
17
14
9
30
26
17
31
27
17
32
28
19
26
22
14
23
16
11
40
26
20
56
37
27
71
45
33
67
43
31
37
23
17
49
36
25
79
64
45
36
30
21
7
5
3
35
24
18
56
40
31
39
28
21
38
28
20
38
27
19
43
30
22
49
35
26
61
43
32
102
75
54
95
69
48
104
76
53
58
40
28
44
30
19
0
0
0
0
0
0
0
0
0
31
76
12
39
85
10
41
82
9
38
88
9
35
97
10
35
98
8
35
98
8
35
98
8
33
90
8
36
97
11
35
98
8
35
98
8
35
98
8
35
98
8
35
98
8
35
98
8
35
98
8
35
98
8
35
98
8
35
98
8
17
40
8
0
0
0
0
0
0
0
0
0
0
0
0
18
13
9
18
14
10
19
14
11
21
16
12
21
16
12
21
16
12
20
15
11
9
8
5
7
6
4
26
22
14
30
26
16
30
26
16
32
28
18
22
18
12
40
32
25
69
55
41
131
109
84
106
88
68
72
59
45
27
22
15
46
39
29
7
6
5
7
6
3
33
24
17
52
38
29
39
28
20
38
29
20
38
28
20
33
23
17
38
27
20
41
29
22
44
32
24
57
40
29
62
43
31
70
49
34
57
39
26
0
0
0
0
0
0
29
13
4
62
30
5
69
28
2
69
28
1
68
28
1
62
38
4
49
70
9
36
94
10
35
98
8
33
91
8
37
95
11
39
86
10
42
83
9
38
88
10
36
97
9
35
98
8
35
98
8
35
98
8
35
98
8
35
98
8
35
98
8
17
47
6
0
0
0
0
0
0
0
0
0
0
0
0
18
13
9
19
14
10
19
14
10
21
16
12
21
16
12
20
15
11
20
15
11
12
8
5
7
6
4
17
13
8
31
27
17
31
27
17
24
20
12
18
15
12
33
28
20
36
29
24
24
18
13
10
8
6
10
8
5
14
11
6
38
31
22
8
7
5
8
7
4
24
17
12
52
38
29
44
32
24
37
27
20
41
29
21
36
26
19
22
16
12
40
29
22
33
23
17
36
26
19
40
28
21
66
47
34
59
40
27
0
0
0
31
14
4
68
28
2
69
28
1
69
28
1
69
28
1
69
28
1
69
28
1
69
28
2
63
39
4
42
83
10
47
69
10
63
36
4
69
28
2
69
28
1
68
28
2
62
37
4
50
69
9
37
93
10
35
98
8
35
98
8
35
98
8
35
98
8
18
49
6
0
0
0
0
0
0
0
0
0
0
0
0
17
13
9
19
14
10
19
14
10
21
16
12
22
17
12
20
15
11
20
15
11
14
10
7
7
6
4
9
7
5
30
26
17
31
27
16
21
16
9
24
21
15
32
28
18
21
17
12
15
12
9
18
16
9
18
14
8
54
44
31
41
33
24
16
14
9
19
15
10
18
13
9
49
36
27
47
34
25
37
26
20
43
31
23
38
28
20
28
20
15
23
17
12
41
29
22
31
23
16
35
25
18
17
13
9
31
21
13
0
0
0
60
26
6
69
28
1
69
28
1
69
28
1
69
28
1
69
28
1
69
28
1
69
28
1
69
28
1
63
29
5
69
28
1
69
28
1
69
28
1
69
28
1
69
28
1
69
28
1
69
28
1
65
32
3
55
58
7
48
74
8
42
82
9
39
85
12
15
35
8
0
0
0
0
0
0
0
0
0
0
0
0
17
12
8
19
14
10
19
14
10
20
15
11
22
17
12
20
15
11
19
14
10
17
13
9
16
12
8
8
7
5
16
13
8
24
21
14
20
16
10
27
23
14
31
27
18
14
12
8
18
15
10
19
17
10
21
18
12
37
30
21
22
19
13
17
15
9
21
16
11
27
20
15
42
31
23
50
36
27
39
29
21
43
31
23
42
30
22
35
26
19
18
14
9
31
22
16
36
27
19
35
26
18
21
15
11
14
10
7
1
1
1
59
28
7
69
28
1
69
28
1
69
28
1
69
28
1
69
28
1
69
28
1
69
28
1
66
28
3
67
28
2
69
28
1
69
28
1
69
28
1
69
28
1
69
28
1
69
28
1
69
28
1
69
28
1
69
28
1
69
28
1
69
28
1
61
28
7
0
0
0
0
0
0
0
0
0
0
0
0
0
0
0
17
12
8
18
13
9
18
13
9
20
15
11
21
16
12
19
14
10
19
14
10
19
14
10
21
16
12
12
10
7
7
6
4
14
11
6
20
17
10
26
22
13
26
22
15
17
14
8
22
18
12
21
17
11
26
22
15
26
22
14
23
19
13
19
16
10
21
16
11
25
18
13
44
33
24
49
36
27
45
33
24
41
30
22
44
33
24
36
26
19
30
22
16
20
15
10
37
27
20
26
19
13
26
19
13
15
11
7
0
0
0
25
14
9
51
26
13
59
28
10
62
29
7
64
28
5
65
28
3
64
28
5
63
28
7
58
28
11
67
29
2
69
28
1
69
28
1
69
28
1
69
28
1
69
28
1
69
28
1
69
28
1
69
28
1
68
28
2
61
28
9
47
24
12
23
14
10
0
0
0
0
0
0
0
0
0
0
0
0
0
0
0
15
11
8
18
13
9
18
13
9
19
14
10
21
15
11
19
14
10
19
14
10
20
15
11
13
10
7
13
10
7
16
12
9
20
17
14
13
11
7
19
16
10
13
10
6
21
16
10
24
20
14
23
19
12
29
25
16
28
24
15
20
16
11
23
19
12
20
15
11
27
20
14
44
33
24
45
34
26
40
29
22
50
37
28
44
33
24
42
31
23
40
30
22
24
18
13
30
22
16
35
25
19
27
20
15
11
8
5
0
0
0
0
0
0
0
0
0
2
2
2
6
5
5
10
7
7
11
8
9
10
7
8
6
5
5
4
3
3
31
17
12
54
26
12
61
27
9
62
29
10
62
27
9
60
28
10
57
27
11
53
25
12
42
22
12
23
14
11
5
4
4
0
0
0
0
0
0
0
0
0
0
0
0
0
0
0
0
0
0
0
0
0
