P3
# Created by GIMP version 2.10.30 PNM plug-in
64 64
255
94
92
85
94
92
85
52
51
48
52
51
48
94
92
85
94
92
85
94
92
85
94
92
85
94
92
85
94
92
85
94
92
85
94
92
85
94
92
85
94
92
85
124
122
112
124
122
112
52
51
48
52
51
48
52
51
48
52
51
48
77
75
70
77
75
70
94
92
85
94
92
85
94
92
85
94
92
85
94
92
85
94
92
85
94
92
85
94
92
85
124
122
112
124
122
112
52
51
48
52
51
48
94
92
85
94
92
85
94
92
85
94
92
85
94
92
85
94
92
85
94
92
85
94
92
85
94
92
85
94
92
85
94
92
85
94
92
85
94
92
85
94
92
85
94
92
85
94
92
85
94
92
85
94
92
85
52
51
48
52
51
48
124
122
112
124
122
112
94
92
85
94
92
85
94
92
85
94
92
85
94
92
85
94
92
85
94
92
85
94
92
85
94
92
85
94
92
85
52
51
48
52
51
48
94
92
85
94
92
85
94
92
85
94
92
85
94
92
85
94
92
85
94
92
85
94
92
85
94
92
85
94
92
85
124
122
112
124
122
112
52
51
48
52
51
48
52
51
48
52
51
48
52
51
48
77
75
70
94
92
85
94
92
85
94
92
85
94
92
85
94
92
85
94
92
85
94
92
85
94
92
85
94
92
85
124
122
112
52
51
48
52
51
48
94
92
85
94
92
85
94
92
85
94
92
85
94
92
85
94
92
85
94
92
85
94
92
85
94
92
85
94
92
85
94
92
85
94
92
85
94
92
85
94
92
85
94
92
85
94
92
85
94
92
85
94
92
85
52
51
48
52
51
48
124
122
112
94
92
85
94
92
85
94
92
85
94
92
85
94
92
85
94
92
85
94
92
85
94
92
85
94
92
85
94
92
85
94
92
85
52
51
48
52
51
48
94
92
85
94
92
85
94
92
85
94
92
85
94
92
85
94
92
85
94
92
85
94
92
85
94
92
85
94
92
85
124
122
112
124
122
112
52
51
48
52
51
48
52
51
48
52
51
48
52
51
48
52
51
48
94
92
85
94
92
85
94
92
85
94
92
85
94
92
85
94
92
85
94
92
85
94
92
85
94
92
85
124
122
112
124
122
112
124
122
112
94
92
85
94
92
85
94
92
85
94
92
85
94
92
85
94
92
85
94
92
85
94
92
85
94
92
85
94
92
85
94
92
85
94
92
85
94
92
85
94
92
85
94
92
85
94
92
85
94
92
85
77
75
70
52
51
48
52
51
48
94
92
85
94
92
85
94
92
85
94
92
85
94
92
85
94
92
85
94
92
85
94
92
85
94
92
85
94
92
85
94
92
85
94
92
85
52
51
48
52
51
48
94
92
85
94
92
85
94
92
85
94
92
85
94
92
85
94
92
85
94
92
85
94
92
85
94
92
85
94
92
85
94
92
85
124
122
112
124
122
112
52
51
48
52
51
48
52
51
48
52
51
48
52
51
48
94
92
85
94
92
85
94
92
85
94
92
85
94
92
85
94
92
85
77
75
70
77
75
70
94
92
85
94
92
85
124
122
112
124
122
112
77
75
70
94
92
85
94
92
85
94
92
85
94
92
85
94
92
85
94
92
85
94
92
85
94
92
85
94
92
85
94
92
85
94
92
85
94
92
85
94
92
85
94
92
85
94
92
85
77
75
70
52
51
48
52
51
48
52
51
48
94
92
85
94
92
85
94
92
85
94
92
85
94
92
85
94
92
85
94
92
85
94
92
85
94
92
85
94
92
85
94
92
85
94
92
85
52
51
48
52
51
48
94
92
85
94
92
85
94
92
85
94
92
85
94
92
85
94
92
85
94
92
85
94
92
85
94
92
85
94
92
85
94
92
85
124
122
112
124
122
112
52
51
48
52
51
48
52
51
48
52
51
48
52
51
48
94
92
85
94
92
85
94
92
85
94
92
85
94
92
85
77
75
70
77
75
70
77
75
70
94
92
85
94
92
85
94
92
85
94
92
85
52
51
48
52
51
48
94
92
85
94
92
85
94
92
85
94
92
85
94
92
85
94
92
85
94
92
85
94
92
85
94
92
85
94
92
85
94
92
85
94
92
85
94
92
85
77
75
70
77
75
70
52
51
48
52
51
48
52
51
48
94
92
85
94
92
85
94
92
85
94
92
85
94
92
85
94
92
85
94
92
85
94
92
85
94
92
85
94
92
85
94
92
85
94
92
85
52
51
48
52
51
48
94
92
85
94
92
85
94
92
85
94
92
85
94
92
85
94
92
85
94
92
85
94
92
85
94
92
85
94
92
85
94
92
85
94
92
85
124
122
112
124
122
112
52
51
48
52
51
48
52
51
48
52
51
48
52
51
48
77
75
70
94
92
85
94
92
85
94
92
85
77
75
70
52
51
48
52
51
48
94
92
85
94
92
85
94
92
85
94
92
85
52
51
48
52
51
48
94
92
85
94
92
85
94
92
85
94
92
85
94
92
85
94
92
85
94
92
85
94
92
85
94
92
85
94
92
85
94
92
85
94
92
85
77
75
70
77
75
70
52
51
48
52
51
48
52
51
48
52
51
48
77
75
70
77
75
70
94
92
85
94
92
85
94
92
85
94
92
85
94
92
85
94
92
85
94
92
85
94
92
85
77
75
70
77
75
70
124
122
112
124
122
112
77
75
70
94
92
85
94
92
85
94
92
85
94
92
85
94
92
85
94
92
85
94
92
85
94
92
85
94
92
85
94
92
85
94
92
85
94
92
85
94
92
85
52
51
48
52
51
48
52
51
48
52
51
48
52
51
48
77
75
70
77
75
70
77
75
70
77
75
70
52
51
48
52
51
48
52
51
48
94
92
85
94
92
85
94
92
85
94
92
85
52
51
48
52
51
48
94
92
85
94
92
85
94
92
85
94
92
85
94
92
85
94
92
85
94
92
85
94
92
85
94
92
85
94
92
85
77
75
70
77
75
70
77
75
70
52
51
48
52
51
48
52
51
48
124
122
112
52
51
48
52
51
48
77
75
70
77
75
70
94
92
85
94
92
85
94
92
85
94
92
85
94
92
85
94
92
85
94
92
85
77
75
70
77
75
70
124
122
112
124
122
112
124
122
112
77
75
70
77
75
70
94
92
85
94
92
85
94
92
85
94
92
85
94
92
85
94
92
85
94
92
85
94
92
85
94
92
85
94
92
85
94
92
85
52
51
48
52
51
48
52
51
48
52
51
48
52
51
48
52
51
48
77
75
70
77
75
70
77
75
70
52
51
48
52
51
48
52
51
48
94
92
85
94
92
85
94
92
85
94
92
85
52
51
48
52
51
48
77
75
70
77
75
70
94
92
85
94
92
85
94
92
85
94
92
85
94
92
85
94
92
85
77
75
70
77
75
70
77
75
70
77
75
70
52
51
48
52
51
48
52
51
48
124
122
112
124
122
112
124
122
112
52
51
48
77
75
70
77
75
70
77
75
70
94
92
85
94
92
85
94
92
85
94
92
85
94
92
85
94
92
85
124
122
112
124
122
112
124
122
112
94
92
85
124
122
112
77
75
70
77
75
70
94
92
85
94
92
85
94
92
85
94
92
85
94
92
85
94
92
85
94
92
85
94
92
85
94
92
85
94
92
85
94
92
85
52
51
48
52
51
48
52
51
48
52
51
48
52
51
48
52
51
48
52
51
48
52
51
48
52
51
48
52
51
48
52
51
48
52
51
48
77
75
70
77
75
70
77
75
70
77
75
70
52
51
48
52
51
48
52
51
48
77
75
70
77
75
70
77
75
70
77
75
70
77
75
70
124
122
112
124
122
112
52
51
48
52
51
48
52
51
48
52
51
48
52
51
48
52
51
48
52
51
48
124
122
112
94
92
85
124
122
112
124
122
112
124
122
112
77
75
70
77
75
70
77
75
70
77
75
70
77
75
70
77
75
70
77
75
70
77
75
70
124
122
112
124
122
112
94
92
85
94
92
85
94
92
85
124
122
112
77
75
70
77
75
70
77
75
70
94
92
85
94
92
85
94
92
85
94
92
85
94
92
85
94
92
85
94
92
85
77
75
70
77
75
70
52
51
48
52
51
48
52
51
48
52
51
48
52
51
48
52
51
48
52
51
48
52
51
48
52
51
48
52
51
48
124
122
112
124
122
112
124
122
112
77
75
70
77
75
70
77
75
70
52
51
48
52
51
48
52
51
48
52
51
48
77
75
70
77
75
70
77
75
70
124
122
112
124
122
112
124
122
112
52
51
48
52
51
48
52
51
48
52
51
48
52
51
48
52
51
48
124
122
112
94
92
85
94
92
85
94
92
85
124
122
112
124
122
112
124
122
112
124
122
112
77
75
70
77
75
70
77
75
70
77
75
70
77
75
70
77
75
70
94
92
85
94
92
85
94
92
85
94
92
85
94
92
85
94
92
85
52
51
48
77
75
70
77
75
70
94
92
85
94
92
85
94
92
85
94
92
85
94
92
85
94
92
85
77
75
70
77
75
70
52
51
48
52
51
48
52
51
48
52
51
48
52
51
48
52
51
48
52
51
48
52
51
48
52
51
48
52
51
48
124
122
112
124
122
112
124
122
112
124
122
112
124
122
112
124
122
112
124
122
112
52
51
48
52
51
48
52
51
48
52
51
48
52
51
48
52
51
48
124
122
112
124
122
112
124
122
112
124
122
112
52
51
48
52
51
48
52
51
48
52
51
48
52
51
48
124
122
112
124
122
112
94
92
85
94
92
85
94
92
85
94
92
85
94
92
85
124
122
112
124
122
112
124
122
112
124
122
112
124
122
112
124
122
112
52
51
48
52
51
48
94
92
85
94
92
85
94
92
85
94
92
85
94
92
85
94
92
85
52
51
48
52
51
48
52
51
48
77
75
70
77
75
70
94
92
85
94
92
85
94
92
85
77
75
70
77
75
70
52
51
48
52
51
48
124
122
112
124
122
112
124
122
112
52
51
48
52
51
48
52
51
48
52
51
48
52
51
48
124
122
112
124
122
112
94
92
85
94
92
85
94
92
85
124
122
112
124
122
112
124
122
112
124
122
112
124
122
112
52
51
48
52
51
48
52
51
48
52
51
48
124
122
112
124
122
112
94
92
85
94
92
85
52
51
48
52
51
48
52
51
48
52
51
48
124
122
112
124
122
112
94
92
85
94
92
85
94
92
85
94
92
85
94
92
85
94
92
85
94
92
85
94
92
85
124
122
112
124
122
112
124
122
112
124
122
112
52
51
48
52
51
48
94
92
85
94
92
85
94
92
85
94
92
85
94
92
85
94
92
85
52
51
48
52
51
48
52
51
48
77
75
70
77
75
70
77
75
70
77
75
70
77
75
70
77
75
70
52
51
48
52
51
48
124
122
112
124
122
112
124
122
112
124
122
112
52
51
48
52
51
48
52
51
48
52
51
48
124
122
112
124
122
112
94
92
85
94
92
85
94
92
85
94
92
85
94
92
85
94
92
85
94
92
85
124
122
112
124
122
112
124
122
112
52
51
48
52
51
48
52
51
48
94
92
85
94
92
85
94
92
85
94
92
85
52
51
48
52
51
48
52
51
48
52
51
48
94
92
85
94
92
85
94
92
85
94
92
85
94
92
85
94
92
85
94
92
85
94
92
85
94
92
85
94
92
85
94
92
85
94
92
85
94
92
85
94
92
85
52
51
48
52
51
48
94
92
85
94
92
85
94
92
85
94
92
85
94
92
85
77
75
70
52
51
48
52
51
48
52
51
48
52
51
48
52
51
48
77
75
70
77
75
70
77
75
70
52
51
48
52
51
48
52
51
48
124
122
112
94
92
85
94
92
85
94
92
85
124
122
112
52
51
48
52
51
48
52
51
48
124
122
112
124
122
112
94
92
85
94
92
85
94
92
85
94
92
85
94
92
85
94
92
85
94
92
85
94
92
85
94
92
85
124
122
112
124
122
112
52
51
48
52
51
48
94
92
85
94
92
85
94
92
85
94
92
85
52
51
48
52
51
48
52
51
48
52
51
48
94
92
85
94
92
85
94
92
85
94
92
85
94
92
85
94
92
85
94
92
85
94
92
85
94
92
85
94
92
85
94
92
85
94
92
85
94
92
85
94
92
85
52
51
48
52
51
48
77
75
70
94
92
85
94
92
85
94
92
85
52
51
48
52
51
48
52
51
48
124
122
112
52
51
48
52
51
48
52
51
48
52
51
48
52
51
48
52
51
48
52
51
48
52
51
48
94
92
85
94
92
85
94
92
85
94
92
85
94
92
85
94
92
85
52
51
48
52
51
48
124
122
112
124
122
112
94
92
85
94
92
85
94
92
85
94
92
85
94
92
85
94
92
85
94
92
85
94
92
85
94
92
85
94
92
85
94
92
85
124
122
112
124
122
112
124
122
112
94
92
85
94
92
85
94
92
85
94
92
85
52
51
48
52
51
48
52
51
48
52
51
48
77
75
70
77
75
70
94
92
85
94
92
85
94
92
85
94
92
85
94
92
85
94
92
85
94
92
85
94
92
85
94
92
85
94
92
85
77
75
70
77
75
70
52
51
48
52
51
48
77
75
70
77
75
70
77
75
70
94
92
85
52
51
48
52
51
48
124
122
112
124
122
112
124
122
112
52
51
48
52
51
48
52
51
48
52
51
48
52
51
48
52
51
48
52
51
48
94
92
85
94
92
85
94
92
85
94
92
85
94
92
85
94
92
85
52
51
48
52
51
48
124
122
112
94
92
85
94
92
85
94
92
85
94
92
85
94
92
85
94
92
85
94
92
85
94
92
85
94
92
85
94
92
85
94
92
85
94
92
85
94
92
85
124
122
112
124
122
112
94
92
85
94
92
85
94
92
85
94
92
85
52
51
48
52
51
48
52
51
48
52
51
48
77
75
70
77
75
70
94
92
85
94
92
85
94
92
85
94
92
85
94
92
85
94
92
85
94
92
85
94
92
85
94
92
85
94
92
85
77
75
70
77
75
70
52
51
48
52
51
48
52
51
48
77
75
70
77
75
70
77
75
70
124
122
112
124
122
112
124
122
112
94
92
85
124
122
112
124
122
112
124
122
112
52
51
48
52
51
48
52
51
48
52
51
48
52
51
48
94
92
85
94
92
85
94
92
85
94
92
85
94
92
85
94
92
85
52
51
48
52
51
48
94
92
85
94
92
85
94
92
85
94
92
85
94
92
85
94
92
85
94
92
85
94
92
85
94
92
85
94
92
85
94
92
85
94
92
85
94
92
85
94
92
85
124
122
112
124
122
112
77
75
70
77
75
70
77
75
70
77
75
70
52
51
48
52
51
48
52
51
48
52
51
48
94
92
85
94
92
85
94
92
85
94
92
85
94
92
85
94
92
85
94
92
85
94
92
85
94
92
85
94
92
85
94
92
85
94
92
85
94
92
85
94
92
85
52
51
48
52
51
48
52
51
48
52
51
48
52
51
48
77
75
70
124
122
112
124
122
112
94
92
85
94
92
85
94
92
85
124
122
112
124
122
112
124
122
112
124
122
112
52
51
48
52
51
48
52
51
48
94
92
85
94
92
85
94
92
85
94
92
85
94
92
85
94
92
85
52
51
48
52
51
48
94
92
85
94
92
85
94
92
85
94
92
85
94
92
85
94
92
85
94
92
85
94
92
85
94
92
85
94
92
85
94
92
85
94
92
85
94
92
85
94
92
85
94
92
85
124
122
112
77
75
70
77
75
70
77
75
70
52
51
48
52
51
48
52
51
48
52
51
48
52
51
48
94
92
85
94
92
85
94
92
85
94
92
85
94
92
85
94
92
85
94
92
85
94
92
85
94
92
85
94
92
85
94
92
85
94
92
85
94
92
85
94
92
85
52
51
48
52
51
48
52
51
48
52
51
48
52
51
48
52
51
48
94
92
85
94
92
85
94
92
85
94
92
85
94
92
85
94
92
85
94
92
85
124
122
112
124
122
112
124
122
112
52
51
48
52
51
48
77
75
70
94
92
85
94
92
85
94
92
85
94
92
85
77
75
70
52
51
48
52
51
48
94
92
85
94
92
85
94
92
85
94
92
85
94
92
85
94
92
85
94
92
85
94
92
85
94
92
85
94
92
85
94
92
85
94
92
85
94
92
85
94
92
85
94
92
85
94
92
85
52
51
48
52
51
48
52
51
48
52
51
48
52
51
48
52
51
48
52
51
48
52
51
48
94
92
85
94
92
85
94
92
85
94
92
85
94
92
85
94
92
85
94
92
85
94
92
85
94
92
85
94
92
85
94
92
85
94
92
85
94
92
85
94
92
85
52
51
48
52
51
48
52
51
48
52
51
48
52
51
48
52
51
48
94
92
85
94
92
85
94
92
85
94
92
85
94
92
85
94
92
85
94
92
85
94
92
85
94
92
85
124
122
112
124
122
112
52
51
48
52
51
48
77
75
70
94
92
85
94
92
85
77
75
70
52
51
48
52
51
48
52
51
48
94
92
85
94
92
85
94
92
85
94
92
85
94
92
85
94
92
85
94
92
85
94
92
85
94
92
85
94
92
85
94
92
85
94
92
85
94
92
85
94
92
85
94
92
85
94
92
85
52
51
48
52
51
48
52
51
48
52
51
48
52
51
48
52
51
48
52
51
48
52
51
48
94
92
85
94
92
85
94
92
85
94
92
85
94
92
85
94
92
85
94
92
85
94
92
85
94
92
85
94
92
85
94
92
85
94
92
85
94
92
85
94
92
85
52
51
48
52
51
48
52
51
48
52
51
48
52
51
48
52
51
48
94
92
85
94
92
85
94
92
85
94
92
85
94
92
85
94
92
85
94
92
85
94
92
85
94
92
85
94
92
85
124
122
112
52
51
48
52
51
48
77
75
70
77
75
70
77
75
70
77
75
70
52
51
48
52
51
48
52
51
48
77
75
70
94
92
85
94
92
85
94
92
85
94
92
85
94
92
85
94
92
85
94
92
85
94
92
85
94
92
85
94
92
85
94
92
85
94
92
85
94
92
85
94
92
85
77
75
70
52
51
48
52
51
48
52
51
48
52
51
48
52
51
48
52
51
48
52
51
48
52
51
48
94
92
85
94
92
85
94
92
85
94
92
85
94
92
85
94
92
85
94
92
85
94
92
85
94
92
85
94
92
85
94
92
85
94
92
85
94
92
85
52
51
48
52
51
48
52
51
48
52
51
48
52
51
48
52
51
48
52
51
48
94
92
85
94
92
85
94
92
85
94
92
85
94
92
85
94
92
85
94
92
85
94
92
85
94
92
85
94
92
85
94
92
85
124
122
112
52
51
48
52
51
48
77
75
70
77
75
70
52
51
48
52
51
48
52
51
48
52
51
48
52
51
48
77
75
70
94
92
85
94
92
85
94
92
85
94
92
85
94
92
85
94
92
85
94
92
85
94
92
85
94
92
85
94
92
85
94
92
85
77
75
70
77
75
70
52
51
48
52
51
48
52
51
48
52
51
48
52
51
48
52
51
48
52
51
48
52
51
48
52
51
48
94
92
85
94
92
85
94
92
85
94
92
85
94
92
85
94
92
85
94
92
85
94
92
85
94
92
85
94
92
85
94
92
85
77
75
70
77
75
70
52
51
48
52
51
48
52
51
48
124
122
112
52
51
48
52
51
48
52
51
48
94
92
85
94
92
85
94
92
85
94
92
85
94
92
85
94
92
85
94
92
85
94
92
85
94
92
85
94
92
85
94
92
85
94
92
85
52
51
48
52
51
48
52
51
48
52
51
48
52
51
48
52
51
48
124
122
112
124
122
112
52
51
48
52
51
48
94
92
85
94
92
85
94
92
85
94
92
85
94
92
85
94
92
85
94
92
85
94
92
85
94
92
85
94
92
85
94
92
85
77
75
70
77
75
70
52
51
48
52
51
48
124
122
112
124
122
112
52
51
48
52
51
48
52
51
48
52
51
48
52
51
48
77
75
70
94
92
85
94
92
85
94
92
85
94
92
85
94
92
85
94
92
85
94
92
85
94
92
85
94
92
85
77
75
70
77
75
70
52
51
48
52
51
48
52
51
48
124
122
112
124
122
112
124
122
112
52
51
48
52
51
48
94
92
85
94
92
85
94
92
85
94
92
85
94
92
85
94
92
85
94
92
85
94
92
85
94
92
85
94
92
85
94
92
85
94
92
85
52
51
48
52
51
48
52
51
48
52
51
48
52
51
48
52
51
48
124
122
112
124
122
112
52
51
48
52
51
48
94
92
85
94
92
85
94
92
85
94
92
85
94
92
85
94
92
85
94
92
85
94
92
85
94
92
85
77
75
70
77
75
70
52
51
48
52
51
48
124
122
112
124
122
112
124
122
112
124
122
112
124
122
112
124
122
112
52
51
48
52
51
48
52
51
48
52
51
48
77
75
70
94
92
85
94
92
85
94
92
85
94
92
85
94
92
85
94
92
85
94
92
85
77
75
70
77
75
70
52
51
48
52
51
48
124
122
112
124
122
112
124
122
112
94
92
85
94
92
85
52
51
48
52
51
48
94
92
85
94
92
85
94
92
85
94
92
85
94
92
85
94
92
85
94
92
85
94
92
85
94
92
85
94
92
85
94
92
85
77
75
70
124
122
112
52
51
48
52
51
48
52
51
48
52
51
48
52
51
48
94
92
85
94
92
85
52
51
48
52
51
48
77
75
70
94
92
85
94
92
85
94
92
85
94
92
85
94
92
85
94
92
85
94
92
85
94
92
85
77
75
70
77
75
70
52
51
48
52
51
48
124
122
112
124
122
112
94
92
85
94
92
85
124
122
112
124
122
112
52
51
48
52
51
48
52
51
48
52
51
48
77
75
70
77
75
70
94
92
85
94
92
85
94
92
85
94
92
85
94
92
85
77
75
70
77
75
70
52
51
48
52
51
48
124
122
112
124
122
112
124
122
112
94
92
85
94
92
85
94
92
85
52
51
48
52
51
48
94
92
85
94
92
85
94
92
85
94
92
85
94
92
85
94
92
85
94
92
85
94
92
85
94
92
85
94
92
85
77
75
70
77
75
70
124
122
112
124
122
112
124
122
112
52
51
48
52
51
48
52
51
48
94
92
85
94
92
85
52
51
48
52
51
48
52
51
48
77
75
70
77
75
70
94
92
85
94
92
85
94
92
85
94
92
85
77
75
70
77
75
70
52
51
48
52
51
48
124
122
112
124
122
112
94
92
85
94
92
85
94
92
85
94
92
85
94
92
85
94
92
85
124
122
112
124
122
112
52
51
48
52
51
48
52
51
48
77
75
70
77
75
70
94
92
85
94
92
85
94
92
85
77
75
70
77
75
70
52
51
48
52
51
48
52
51
48
124
122
112
94
92
85
94
92
85
94
92
85
77
75
70
77
75
70
52
51
48
52
51
48
94
92
85
94
92
85
94
92
85
94
92
85
94
92
85
94
92
85
94
92
85
94
92
85
94
92
85
77
75
70
77
75
70
52
51
48
94
92
85
124
122
112
124
122
112
52
51
48
52
51
48
52
51
48
77
75
70
77
75
70
52
51
48
52
51
48
52
51
48
77
75
70
77
75
70
77
75
70
77
75
70
77
75
70
77
75
70
77
75
70
77
75
70
52
51
48
52
51
48
124
122
112
124
122
112
94
92
85
94
92
85
94
92
85
94
92
85
94
92
85
94
92
85
124
122
112
124
122
112
124
122
112
124
122
112
52
51
48
52
51
48
77
75
70
77
75
70
77
75
70
77
75
70
77
75
70
52
51
48
52
51
48
52
51
48
52
51
48
94
92
85
94
92
85
94
92
85
94
92
85
77
75
70
77
75
70
52
51
48
52
51
48
94
92
85
94
92
85
94
92
85
94
92
85
94
92
85
94
92
85
94
92
85
94
92
85
77
75
70
77
75
70
52
51
48
52
51
48
94
92
85
94
92
85
94
92
85
124
122
112
52
51
48
52
51
48
77
75
70
77
75
70
52
51
48
52
51
48
52
51
48
52
51
48
52
51
48
77
75
70
77
75
70
77
75
70
77
75
70
52
51
48
52
51
48
52
51
48
124
122
112
94
92
85
94
92
85
94
92
85
94
92
85
94
92
85
94
92
85
94
92
85
94
92
85
94
92
85
94
92
85
124
122
112
124
122
112
124
122
112
52
51
48
77
75
70
77
75
70
77
75
70
77
75
70
52
51
48
52
51
48
52
51
48
52
51
48
52
51
48
94
92
85
94
92
85
94
92
85
94
92
85
52
51
48
52
51
48
52
51
48
94
92
85
94
92
85
94
92
85
94
92
85
94
92
85
94
92
85
94
92
85
94
92
85
77
75
70
77
75
70
52
51
48
52
51
48
124
122
112
94
92
85
94
92
85
94
92
85
94
92
85
52
51
48
52
51
48
124
122
112
124
122
112
52
51
48
52
51
48
52
51
48
52
51
48
52
51
48
52
51
48
52
51
48
52
51
48
52
51
48
52
51
48
52
51
48
52
51
48
94
92
85
94
92
85
94
92
85
94
92
85
94
92
85
94
92
85
94
92
85
94
92
85
94
92
85
94
92
85
94
92
85
94
92
85
94
92
85
124
122
112
124
122
112
124
122
112
124
122
112
124
122
112
52
51
48
52
51
48
52
51
48
52
51
48
52
51
48
52
51
48
77
75
70
77
75
70
77
75
70
77
75
70
52
51
48
52
51
48
52
51
48
94
92
85
94
92
85
94
92
85
94
92
85
94
92
85
94
92
85
94
92
85
94
92
85
77
75
70
77
75
70
52
51
48
124
122
112
94
92
85
94
92
85
94
92
85
94
92
85
94
92
85
52
51
48
124
122
112
124
122
112
124
122
112
124
122
112
52
51
48
52
51
48
52
51
48
52
51
48
52
51
48
52
51
48
52
51
48
52
51
48
52
51
48
52
51
48
52
51
48
94
92
85
94
92
85
94
92
85
94
92
85
94
92
85
94
92
85
94
92
85
94
92
85
94
92
85
94
92
85
94
92
85
94
92
85
94
92
85
94
92
85
124
122
112
124
122
112
124
122
112
124
122
112
52
51
48
52
51
48
52
51
48
52
51
48
52
51
48
52
51
48
77
75
70
77
75
70
77
75
70
77
75
70
52
51
48
52
51
48
94
92
85
94
92
85
94
92
85
94
92
85
94
92
85
94
92
85
94
92
85
94
92
85
94
92
85
94
92
85
52
51
48
52
51
48
94
92
85
94
92
85
94
92
85
94
92
85
94
92
85
77
75
70
124
122
112
124
122
112
94
92
85
94
92
85
124
122
112
52
51
48
52
51
48
52
51
48
52
51
48
52
51
48
52
51
48
124
122
112
124
122
112
52
51
48
52
51
48
52
51
48
94
92
85
94
92
85
94
92
85
94
92
85
94
92
85
94
92
85
94
92
85
94
92
85
94
92
85
94
92
85
94
92
85
94
92
85
94
92
85
94
92
85
94
92
85
94
92
85
124
122
112
124
122
112
124
122
112
52
51
48
52
51
48
52
51
48
52
51
48
124
122
112
124
122
112
124
122
112
124
122
112
124
122
112
52
51
48
52
51
48
94
92
85
94
92
85
94
92
85
94
92
85
94
92
85
94
92
85
94
92
85
94
92
85
94
92
85
94
92
85
52
51
48
52
51
48
94
92
85
94
92
85
94
92
85
77
75
70
77
75
70
124
122
112
124
122
112
94
92
85
94
92
85
94
92
85
94
92
85
124
122
112
124
122
112
52
51
48
52
51
48
52
51
48
124
122
112
124
122
112
124
122
112
124
122
112
52
51
48
52
51
48
94
92
85
94
92
85
94
92
85
94
92
85
94
92
85
94
92
85
94
92
85
94
92
85
94
92
85
94
92
85
94
92
85
94
92
85
94
92
85
94
92
85
94
92
85
94
92
85
94
92
85
94
92
85
124
122
112
52
51
48
52
51
48
52
51
48
52
51
48
124
122
112
124
122
112
124
122
112
124
122
112
124
122
112
124
122
112
124
122
112
124
122
112
77
75
70
94
92
85
94
92
85
94
92
85
94
92
85
94
92
85
94
92
85
94
92
85
94
92
85
52
51
48
52
51
48
77
75
70
77
75
70
77
75
70
77
75
70
77
75
70
124
122
112
124
122
112
94
92
85
94
92
85
94
92
85
94
92
85
124
122
112
124
122
112
52
51
48
52
51
48
52
51
48
94
92
85
94
92
85
94
92
85
94
92
85
52
51
48
52
51
48
77
75
70
94
92
85
94
92
85
94
92
85
94
92
85
94
92
85
94
92
85
94
92
85
94
92
85
94
92
85
94
92
85
94
92
85
94
92
85
94
92
85
94
92
85
94
92
85
94
92
85
94
92
85
94
92
85
94
92
85
52
51
48
52
51
48
124
122
112
124
122
112
94
92
85
94
92
85
94
92
85
94
92
85
124
122
112
124
122
112
124
122
112
77
75
70
77
75
70
77
75
70
94
92
85
94
92
85
94
92
85
94
92
85
94
92
85
94
92
85
52
51
48
52
51
48
52
51
48
77
75
70
77
75
70
124
122
112
124
122
112
94
92
85
94
92
85
94
92
85
94
92
85
94
92
85
94
92
85
94
92
85
124
122
112
124
122
112
52
51
48
52
51
48
94
92
85
94
92
85
94
92
85
94
92
85
52
51
48
52
51
48
52
51
48
77
75
70
77
75
70
94
92
85
94
92
85
94
92
85
94
92
85
94
92
85
94
92
85
94
92
85
94
92
85
94
92
85
94
92
85
94
92
85
94
92
85
94
92
85
94
92
85
94
92
85
94
92
85
94
92
85
52
51
48
52
51
48
94
92
85
94
92
85
94
92
85
94
92
85
94
92
85
94
92
85
94
92
85
94
92
85
124
122
112
124
122
112
77
75
70
77
75
70
77
75
70
77
75
70
77
75
70
77
75
70
77
75
70
77
75
70
52
51
48
52
51
48
52
51
48
52
51
48
124
122
112
124
122
112
124
122
112
94
92
85
94
92
85
94
92
85
94
92
85
94
92
85
94
92
85
94
92
85
124
122
112
124
122
112
52
51
48
52
51
48
77
75
70
94
92
85
94
92
85
94
92
85
52
51
48
52
51
48
52
51
48
77
75
70
77
75
70
94
92
85
94
92
85
94
92
85
94
92
85
94
92
85
94
92
85
94
92
85
94
92
85
94
92
85
94
92
85
94
92
85
94
92
85
94
92
85
77
75
70
77
75
70
77
75
70
52
51
48
52
51
48
52
51
48
94
92
85
94
92
85
94
92
85
94
92
85
94
92
85
94
92
85
94
92
85
94
92
85
94
92
85
124
122
112
124
122
112
124
122
112
77
75
70
77
75
70
77
75
70
77
75
70
77
75
70
52
51
48
52
51
48
52
51
48
52
51
48
124
122
112
124
122
112
94
92
85
94
92
85
94
92
85
94
92
85
94
92
85
94
92
85
94
92
85
94
92
85
94
92
85
94
92
85
124
122
112
52
51
48
52
51
48
52
51
48
77
75
70
77
75
70
94
92
85
52
51
48
52
51
48
52
51
48
52
51
48
77
75
70
77
75
70
77
75
70
94
92
85
94
92
85
94
92
85
94
92
85
94
92
85
94
92
85
94
92
85
94
92
85
94
92
85
94
92
85
94
92
85
77
75
70
77
75
70
52
51
48
52
51
48
52
51
48
52
51
48
94
92
85
94
92
85
94
92
85
94
92
85
94
92
85
94
92
85
94
92
85
94
92
85
94
92
85
94
92
85
124
122
112
124
122
112
124
122
112
52
51
48
52
51
48
52
51
48
52
51
48
52
51
48
52
51
48
52
51
48
52
51
48
124
122
112
124
122
112
94
92
85
94
92
85
94
92
85
94
92
85
94
92
85
94
92
85
94
92
85
94
92
85
94
92
85
94
92
85
94
92
85
52
51
48
52
51
48
52
51
48
77
75
70
77
75
70
77
75
70
52
51
48
52
51
48
52
51
48
124
122
112
124
122
112
77
75
70
77
75
70
94
92
85
94
92
85
94
92
85
94
92
85
94
92
85
94
92
85
94
92
85
94
92
85
77
75
70
124
122
112
124
122
112
52
51
48
52
51
48
52
51
48
52
51
48
52
51
48
52
51
48
94
92
85
94
92
85
94
92
85
94
92
85
94
92
85
94
92
85
94
92
85
94
92
85
94
92
85
94
92
85
94
92
85
124
122
112
124
122
112
52
51
48
52
51
48
52
51
48
52
51
48
52
51
48
52
51
48
52
51
48
124
122
112
94
92
85
94
92
85
94
92
85
94
92
85
94
92
85
94
92
85
94
92
85
94
92
85
94
92
85
94
92
85
94
92
85
94
92
85
94
92
85
52
51
48
52
51
48
52
51
48
52
51
48
77
75
70
77
75
70
52
51
48
124
122
112
124
122
112
124
122
112
124
122
112
124
122
112
124
122
112
77
75
70
77
75
70
94
92
85
94
92
85
94
92
85
94
92
85
94
92
85
77
75
70
124
122
112
124
122
112
124
122
112
52
51
48
52
51
48
52
51
48
52
51
48
52
51
48
52
51
48
94
92
85
94
92
85
94
92
85
94
92
85
94
92
85
94
92
85
94
92
85
94
92
85
94
92
85
94
92
85
94
92
85
94
92
85
124
122
112
124
122
112
52
51
48
52
51
48
52
51
48
52
51
48
52
51
48
52
51
48
94
92
85
94
92
85
94
92
85
94
92
85
94
92
85
94
92
85
94
92
85
94
92
85
94
92
85
94
92
85
94
92
85
94
92
85
94
92
85
94
92
85
52
51
48
52
51
48
52
51
48
52
51
48
52
51
48
52
51
48
52
51
48
124
122
112
124
122
112
94
92
85
94
92
85
124
122
112
124
122
112
77
75
70
77
75
70
77
75
70
77
75
70
77
75
70
124
122
112
124
122
112
124
122
112
124
122
112
94
92
85
94
92
85
52
51
48
124
122
112
124
122
112
124
122
112
52
51
48
52
51
48
77
75
70
94
92
85
94
92
85
94
92
85
94
92
85
94
92
85
94
92
85
94
92
85
94
92
85
94
92
85
94
92
85
94
92
85
94
92
85
94
92
85
52
51
48
52
51
48
52
51
48
52
51
48
52
51
48
52
51
48
94
92
85
94
92
85
94
92
85
94
92
85
94
92
85
94
92
85
94
92
85
94
92
85
94
92
85
94
92
85
94
92
85
94
92
85
94
92
85
94
92
85
52
51
48
52
51
48
52
51
48
52
51
48
52
51
48
124
122
112
124
122
112
94
92
85
94
92
85
94
92
85
94
92
85
94
92
85
94
92
85
124
122
112
124
122
112
77
75
70
77
75
70
77
75
70
124
122
112
124
122
112
124
122
112
94
92
85
94
92
85
94
92
85
124
122
112
124
122
112
124
122
112
124
122
112
52
51
48
52
51
48
52
51
48
94
92
85
94
92
85
94
92
85
94
92
85
94
92
85
94
92
85
94
92
85
94
92
85
94
92
85
94
92
85
94
92
85
94
92
85
94
92
85
52
51
48
52
51
48
52
51
48
52
51
48
52
51
48
52
51
48
77
75
70
77
75
70
94
92
85
94
92
85
94
92
85
94
92
85
94
92
85
94
92
85
94
92
85
94
92
85
94
92
85
94
92
85
94
92
85
94
92
85
52
51
48
52
51
48
52
51
48
52
51
48
52
51
48
124
122
112
124
122
112
94
92
85
94
92
85
94
92
85
94
92
85
94
92
85
94
92
85
124
122
112
124
122
112
124
122
112
52
51
48
52
51
48
94
92
85
94
92
85
94
92
85
94
92
85
77
75
70
124
122
112
124
122
112
94
92
85
94
92
85
94
92
85
124
122
112
52
51
48
52
51
48
52
51
48
94
92
85
94
92
85
94
92
85
94
92
85
94
92
85
94
92
85
94
92
85
94
92
85
94
92
85
94
92
85
94
92
85
94
92
85
52
51
48
52
51
48
52
51
48
52
51
48
52
51
48
52
51
48
77
75
70
77
75
70
94
92
85
94
92
85
94
92
85
94
92
85
94
92
85
94
92
85
94
92
85
94
92
85
94
92
85
94
92
85
94
92
85
94
92
85
52
51
48
52
51
48
52
51
48
124
122
112
124
122
112
94
92
85
94
92
85
94
92
85
94
92
85
94
92
85
94
92
85
94
92
85
94
92
85
94
92
85
124
122
112
124
122
112
52
51
48
52
51
48
94
92
85
94
92
85
94
92
85
77
75
70
77
75
70
124
122
112
124
122
112
94
92
85
94
92
85
94
92
85
94
92
85
52
51
48
52
51
48
52
51
48
94
92
85
94
92
85
94
92
85
94
92
85
94
92
85
94
92
85
94
92
85
94
92
85
94
92
85
94
92
85
94
92
85
77
75
70
52
51
48
52
51
48
52
51
48
52
51
48
52
51
48
52
51
48
94
92
85
94
92
85
94
92
85
94
92
85
94
92
85
94
92
85
94
92
85
94
92
85
94
92
85
94
92
85
94
92
85
94
92
85
94
92
85
77
75
70
52
51
48
52
51
48
52
51
48
124
122
112
124
122
112
94
92
85
94
92
85
94
92
85
94
92
85
94
92
85
94
92
85
94
92
85
94
92
85
94
92
85
124
122
112
124
122
112
52
51
48
52
51
48
94
92
85
94
92
85
94
92
85
77
75
70
124
122
112
124
122
112
94
92
85
94
92
85
94
92
85
94
92
85
94
92
85
94
92
85
52
51
48
52
51
48
77
75
70
94
92
85
94
92
85
94
92
85
94
92
85
94
92
85
94
92
85
94
92
85
94
92
85
77
75
70
77
75
70
77
75
70
52
51
48
52
51
48
52
51
48
52
51
48
52
51
48
52
51
48
94
92
85
94
92
85
94
92
85
94
92
85
94
92
85
94
92
85
94
92
85
94
92
85
94
92
85
94
92
85
94
92
85
77
75
70
77
75
70
52
51
48
52
51
48
52
51
48
124
122
112
124
122
112
94
92
85
94
92
85
94
92
85
94
92
85
94
92
85
94
92
85
94
92
85
94
92
85
94
92
85
94
92
85
94
92
85
124
122
112
52
51
48
52
51
48
94
92
85
94
92
85
77
75
70
124
122
112
124
122
112
94
92
85
94
92
85
94
92
85
94
92
85
94
92
85
94
92
85
94
92
85
52
51
48
52
51
48
77
75
70
77
75
70
77
75
70
94
92
85
77
75
70
77
75
70
77
75
70
77
75
70
77
75
70
77
75
70
77
75
70
124
122
112
124
122
112
52
51
48
52
51
48
52
51
48
52
51
48
52
51
48
77
75
70
94
92
85
94
92
85
94
92
85
94
92
85
94
92
85
94
92
85
77
75
70
77
75
70
77
75
70
77
75
70
77
75
70
77
75
70
52
51
48
52
51
48
52
51
48
124
122
112
124
122
112
94
92
85
94
92
85
94
92
85
94
92
85
94
92
85
94
92
85
94
92
85
94
92
85
94
92
85
94
92
85
94
92
85
94
92
85
52
51
48
52
51
48
94
92
85
94
92
85
124
122
112
124
122
112
94
92
85
94
92
85
94
92
85
94
92
85
94
92
85
94
92
85
77
75
70
77
75
70
52
51
48
52
51
48
52
51
48
77
75
70
77
75
70
77
75
70
77
75
70
77
75
70
77
75
70
77
75
70
77
75
70
124
122
112
124
122
112
124
122
112
124
122
112
124
122
112
52
51
48
52
51
48
52
51
48
52
51
48
52
51
48
77
75
70
77
75
70
94
92
85
94
92
85
77
75
70
77
75
70
77
75
70
77
75
70
77
75
70
77
75
70
52
51
48
52
51
48
52
51
48
52
51
48
52
51
48
124
122
112
94
92
85
94
92
85
94
92
85
94
92
85
94
92
85
94
92
85
94
92
85
94
92
85
94
92
85
94
92
85
94
92
85
94
92
85
94
92
85
52
51
48
52
51
48
94
92
85
94
92
85
124
122
112
124
122
112
94
92
85
94
92
85
94
92
85
94
92
85
94
92
85
94
92
85
77
75
70
77
75
70
52
51
48
52
51
48
52
51
48
52
51
48
52
51
48
77
75
70
124
122
112
124
122
112
52
51
48
52
51
48
124
122
112
124
122
112
94
92
85
94
92
85
94
92
85
124
122
112
124
122
112
124
122
112
124
122
112
124
122
112
52
51
48
77
75
70
77
75
70
77
75
70
77
75
70
77
75
70
77
75
70
52
51
48
52
51
48
52
51
48
52
51
48
52
51
48
52
51
48
52
51
48
52
51
48
52
51
48
94
92
85
94
92
85
94
92
85
94
92
85
94
92
85
94
92
85
94
92
85
94
92
85
94
92
85
94
92
85
94
92
85
94
92
85
94
92
85
94
92
85
52
51
48
52
51
48
77
75
70
77
75
70
124
122
112
124
122
112
94
92
85
94
92
85
94
92
85
94
92
85
94
92
85
94
92
85
94
92
85
94
92
85
124
122
112
52
51
48
52
51
48
52
51
48
52
51
48
52
51
48
124
122
112
124
122
112
52
51
48
52
51
48
124
122
112
94
92
85
94
92
85
94
92
85
94
92
85
94
92
85
124
122
112
124
122
112
124
122
112
124
122
112
124
122
112
52
51
48
52
51
48
77
75
70
77
75
70
52
51
48
52
51
48
52
51
48
52
51
48
52
51
48
52
51
48
52
51
48
52
51
48
52
51
48
52
51
48
52
51
48
94
92
85
94
92
85
94
92
85
94
92
85
94
92
85
94
92
85
94
92
85
94
92
85
94
92
85
94
92
85
94
92
85
94
92
85
94
92
85
94
92
85
52
51
48
52
51
48
52
51
48
77
75
70
124
122
112
94
92
85
94
92
85
94
92
85
94
92
85
94
92
85
94
92
85
94
92
85
94
92
85
94
92
85
94
92
85
52
51
48
52
51
48
52
51
48
52
51
48
52
51
48
94
92
85
94
92
85
52
51
48
52
51
48
94
92
85
94
92
85
94
92
85
94
92
85
94
92
85
94
92
85
94
92
85
94
92
85
94
92
85
94
92
85
124
122
112
52
51
48
52
51
48
52
51
48
52
51
48
52
51
48
52
51
48
52
51
48
52
51
48
52
51
48
52
51
48
52
51
48
52
51
48
52
51
48
52
51
48
52
51
48
94
92
85
94
92
85
94
92
85
94
92
85
94
92
85
94
92
85
94
92
85
94
92
85
94
92
85
94
92
85
94
92
85
94
92
85
94
92
85
94
92
85
52
51
48
52
51
48
52
51
48
52
51
48
94
92
85
94
92
85
94
92
85
94
92
85
94
92
85
94
92
85
94
92
85
94
92
85
94
92
85
94
92
85
94
92
85
94
92
85
52
51
48
52
51
48
124
122
112
124
122
112
94
92
85
94
92
85
52
51
48
52
51
48
94
92
85
94
92
85
94
92
85
94
92
85
94
92
85
94
92
85
94
92
85
94
92
85
94
92
85
94
92
85
94
92
85
124
122
112
52
51
48
52
51
48
52
51
48
52
51
48
52
51
48
52
51
48
52
51
48
52
51
48
52
51
48
52
51
48
52
51
48
52
51
48
52
51
48
52
51
48
94
92
85
94
92
85
94
92
85
94
92
85
94
92
85
94
92
85
94
92
85
94
92
85
94
92
85
94
92
85
94
92
85
94
92
85
94
92
85
94
92
85
52
51
48
52
51
48
52
51
48
52
51
48
94
92
85
94
92
85
94
92
85
94
92
85
94
92
85
94
92
85
94
92
85
94
92
85
94
92
85
94
92
85
94
92
85
94
92
85
52
51
48
52
51
48
124
122
112
124
122
112
94
92
85
94
92
85
52
51
48
52
51
48
94
92
85
94
92
85
94
92
85
94
92
85
94
92
85
94
92
85
94
92
85
94
92
85
94
92
85
94
92
85
94
92
85
94
92
85
52
51
48
52
51
48
52
51
48
52
51
48
124
122
112
124
122
112
124
122
112
124
122
112
52
51
48
52
51
48
52
51
48
52
51
48
52
51
48
52
51
48
94
92
85
94
92
85
94
92
85
94
92
85
94
92
85
94
92
85
94
92
85
94
92
85
94
92
85
94
92
85
94
92
85
94
92
85
94
92
85
94
92
85
52
51
48
52
51
48
124
122
112
94
92
85
94
92
85
94
92
85
94
92
85
94
92
85
94
92
85
94
92
85
94
92
85
94
92
85
94
92
85
94
92
85
77
75
70
77
75
70
52
51
48
52
51
48
124
122
112
124
122
112
94
92
85
94
92
85
52
51
48
52
51
48
94
92
85
94
92
85
94
92
85
94
92
85
94
92
85
94
92
85
94
92
85
94
92
85
94
92
85
94
92
85
94
92
85
94
92
85
52
51
48
52
51
48
52
51
48
124
122
112
124
122
112
124
122
112
124
122
112
124
122
112
124
122
112
52
51
48
52
51
48
52
51
48
52
51
48
52
51
48
94
92
85
94
92
85
94
92
85
94
92
85
94
92
85
94
92
85
94
92
85
94
92
85
94
92
85
94
92
85
94
92
85
94
92
85
94
92
85
94
92
85
52
51
48
52
51
48
94
92
85
94
92
85
94
92
85
94
92
85
94
92
85
94
92
85
94
92
85
94
92
85
94
92
85
94
92
85
94
92
85
94
92
85
77
75
70
77
75
70
52
51
48
52
51
48
124
122
112
124
122
112
94
92
85
94
92
85
52
51
48
52
51
48
94
92
85
94
92
85
94
92
85
94
92
85
94
92
85
94
92
85
94
92
85
94
92
85
94
92
85
94
92
85
94
92
85
94
92
85
52
51
48
52
51
48
52
51
48
124
122
112
94
92
85
94
92
85
94
92
85
94
92
85
124
122
112
124
122
112
52
51
48
52
51
48
52
51
48
52
51
48
94
92
85
94
92
85
94
92
85
94
92
85
94
92
85
94
92
85
94
92
85
94
92
85
94
92
85
94
92
85
94
92
85
94
92
85
77
75
70
52
51
48
52
51
48
52
51
48
94
92
85
94
92
85
94
92
85
94
92
85
94
92
85
94
92
85
94
92
85
94
92
85
94
92
85
94
92
85
94
92
85
94
92
85
94
92
85
94
92
85
52
51
48
52
51
48
94
92
85
94
92
85
94
92
85
94
92
85
52
51
48
52
51
48
94
92
85
94
92
85
94
92
85
94
92
85
94
92
85
94
92
85
94
92
85
94
92
85
94
92
85
94
92
85
94
92
85
94
92
85
52
51
48
52
51
48
94
92
85
94
92
85
94
92
85
94
92
85
94
92
85
94
92
85
94
92
85
124
122
112
124
122
112
52
51
48
52
51
48
52
51
48
94
92
85
94
92
85
94
92
85
94
92
85
94
92
85
94
92
85
94
92
85
94
92
85
94
92
85
94
92
85
94
92
85
77
75
70
77
75
70
52
51
48
52
51
48
52
51
48
94
92
85
94
92
85
94
92
85
94
92
85
94
92
85
94
92
85
94
92
85
94
92
85
94
92
85
94
92
85
94
92
85
94
92
85
94
92
85
94
92
85
52
51
48
52
51
48
94
92
85
94
92
85
94
92
85
94
92
85
52
51
48
52
51
48
94
92
85
94
92
85
94
92
85
94
92
85
94
92
85
94
92
85
94
92
85
94
92
85
94
92
85
94
92
85
94
92
85
94
92
85
52
51
48
52
51
48
94
92
85
94
92
85
94
92
85
94
92
85
94
92
85
94
92
85
94
92
85
94
92
85
124
122
112
124
122
112
52
51
48
52
51
48
94
92
85
94
92
85
94
92
85
94
92
85
94
92
85
94
92
85
94
92
85
94
92
85
94
92
85
94
92
85
77
75
70
77
75
70
52
51
48
52
51
48
52
51
48
52
51
48
77
75
70
94
92
85
94
92
85
94
92
85
94
92
85
94
92
85
94
92
85
94
92
85
94
92
85
94
92
85
94
92
85
94
92
85
77
75
70
52
51
48
52
51
48
52
51
48
94
92
85
94
92
85
94
92
85
94
92
85
52
51
48
52
51
48
94
92
85
94
92
85
94
92
85
94
92
85
94
92
85
94
92
85
94
92
85
94
92
85
94
92
85
94
92
85
94
92
85
94
92
85
52
51
48
52
51
48
94
92
85
94
92
85
94
92
85
94
92
85
94
92
85
94
92
85
94
92
85
94
92
85
124
122
112
124
122
112
52
51
48
52
51
48
94
92
85
94
92
85
94
92
85
94
92
85
94
92
85
94
92
85
94
92
85
94
92
85
94
92
85
77
75
70
77
75
70
52
51
48
52
51
48
52
51
48
52
51
48
52
51
48
52
51
48
52
51
48
94
92
85
94
92
85
94
92
85
94
92
85
94
92
85
94
92
85
94
92
85
94
92
85
94
92
85
77
75
70
77
75
70
52
51
48
52
51
48
52
51
48
94
92
85
94
92
85
77
75
70
77
75
70
52
51
48
52
51
48
52
51
48
77
75
70
94
92
85
94
92
85
94
92
85
94
92
85
94
92
85
94
92
85
94
92
85
94
92
85
77
75
70
77
75
70
52
51
48
52
51
48
94
92
85
94
92
85
94
92
85
94
92
85
94
92
85
94
92
85
94
92
85
94
92
85
94
92
85
124
122
112
124
122
112
52
51
48
52
51
48
77
75
70
94
92
85
94
92
85
94
92
85
94
92
85
94
92
85
94
92
85
77
75
70
77
75
70
52
51
48
52
51
48
52
51
48
52
51
48
52
51
48
52
51
48
52
51
48
52
51
48
94
92
85
94
92
85
94
92
85
94
92
85
94
92
85
94
92
85
94
92
85
94
92
85
77
75
70
77
75
70
52
51
48
52
51
48
124
122
112
124
122
112
77
75
70
77
75
70
77
75
70
52
51
48
52
51
48
52
51
48
52
51
48
77
75
70
77
75
70
94
92
85
94
92
85
94
92
85
94
92
85
94
92
85
94
92
85
77
75
70
77
75
70
52
51
48
52
51
48
52
51
48
94
92
85
94
92
85
94
92
85
94
92
85
94
92
85
94
92
85
94
92
85
94
92
85
94
92
85
124
122
112
124
122
112
52
51
48
52
51
48
77
75
70
77
75
70
77
75
70
94
92
85
94
92
85
77
75
70
77
75
70
77
75
70
77
75
70
52
51
48
52
51
48
52
51
48
52
51
48
52
51
48
52
51
48
52
51
48
52
51
48
94
92
85
94
92
85
94
92
85
94
92
85
94
92
85
94
92
85
77
75
70
77
75
70
77
75
70
52
51
48
52
51
48
52
51
48
124
122
112
124
122
112
124
122
112
77
75
70
52
51
48
52
51
48
52
51
48
52
51
48
52
51
48
52
51
48
77
75
70
77
75
70
94
92
85
94
92
85
94
92
85
77
75
70
77
75
70
77
75
70
52
51
48
52
51
48
52
51
48
52
51
48
94
92
85
94
92
85
94
92
85
94
92
85
94
92
85
94
92
85
94
92
85
94
92
85
94
92
85
94
92
85
124
122
112
124
122
112
52
51
48
52
51
48
77
75
70
77
75
70
77
75
70
77
75
70
77
75
70
77
75
70
124
122
112
124
122
112
124
122
112
124
122
112
124
122
112
124
122
112
124
122
112
124
122
112
124
122
112
124
122
112
77
75
70
77
75
70
77
75
70
77
75
70
77
75
70
77
75
70
77
75
70
77
75
70
52
51
48
52
51
48
52
51
48
52
51
48
94
92
85
124
122
112
124
122
112
124
122
112
52
51
48
52
51
48
52
51
48
52
51
48
52
51
48
52
51
48
77
75
70
77
75
70
94
92
85
94
92
85
77
75
70
77
75
70
77
75
70
52
51
48
52
51
48
52
51
48
52
51
48
52
51
48
94
92
85
94
92
85
94
92
85
94
92
85
94
92
85
94
92
85
94
92
85
94
92
85
94
92
85
94
92
85
94
92
85
94
92
85
52
51
48
52
51
48
52
51
48
52
51
48
77
75
70
77
75
70
124
122
112
124
122
112
124
122
112
124
122
112
124
122
112
124
122
112
124
122
112
124
122
112
124
122
112
124
122
112
124
122
112
124
122
112
124
122
112
124
122
112
77
75
70
77
75
70
77
75
70
77
75
70
52
51
48
52
51
48
52
51
48
52
51
48
52
51
48
52
51
48
94
92
85
94
92
85
94
92
85
124
122
112
124
122
112
124
122
112
52
51
48
52
51
48
52
51
48
52
51
48
124
122
112
124
122
112
124
122
112
124
122
112
124
122
112
124
122
112
124
122
112
52
51
48
52
51
48
52
51
48
52
51
48
52
51
48
94
92
85
94
92
85
94
92
85
94
92
85
94
92
85
94
92
85
94
92
85
94
92
85
94
92
85
94
92
85
94
92
85
94
92
85
52
51
48
52
51
48
52
51
48
52
51
48
124
122
112
124
122
112
124
122
112
124
122
112
94
92
85
94
92
85
94
92
85
94
92
85
94
92
85
94
92
85
94
92
85
94
92
85
94
92
85
94
92
85
124
122
112
124
122
112
52
51
48
52
51
48
52
51
48
52
51
48
52
51
48
52
51
48
52
51
48
52
51
48
124
122
112
94
92
85
94
92
85
94
92
85
94
92
85
94
92
85
124
122
112
124
122
112
52
51
48
52
51
48
52
51
48
124
122
112
124
122
112
124
122
112
124
122
112
124
122
112
124
122
112
124
122
112
124
122
112
52
51
48
52
51
48
52
51
48
52
51
48
52
51
48
94
92
85
94
92
85
94
92
85
94
92
85
94
92
85
94
92
85
94
92
85
94
92
85
94
92
85
94
92
85
94
92
85
94
92
85
52
51
48
52
51
48
52
51
48
52
51
48
124
122
112
124
122
112
94
92
85
94
92
85
94
92
85
94
92
85
94
92
85
94
92
85
94
92
85
94
92
85
94
92
85
94
92
85
94
92
85
94
92
85
94
92
85
124
122
112
124
122
112
52
51
48
52
51
48
52
51
48
52
51
48
52
51
48
52
51
48
124
122
112
124
122
112
94
92
85
94
92
85
94
92
85
94
92
85
94
92
85
94
92
85
94
92
85
52
51
48
52
51
48
52
51
48
124
122
112
124
122
112
94
92
85
94
92
85
94
92
85
94
92
85
94
92
85
124
122
112
124
122
112
52
51
48
52
51
48
52
51
48
52
51
48
77
75
70
77
75
70
94
92
85
94
92
85
94
92
85
94
92
85
94
92
85
94
92
85
94
92
85
94
92
85
94
92
85
94
92
85
52
51
48
52
51
48
52
51
48
52
51
48
94
92
85
94
92
85
94
92
85
94
92
85
94
92
85
94
92
85
94
92
85
94
92
85
94
92
85
94
92
85
94
92
85
94
92
85
94
92
85
94
92
85
94
92
85
124
122
112
124
122
112
52
51
48
52
51
48
52
51
48
52
51
48
52
51
48
124
122
112
124
122
112
94
92
85
94
92
85
94
92
85
94
92
85
94
92
85
94
92
85
94
92
85
94
92
85
52
51
48
52
51
48
124
122
112
124
122
112
94
92
85
94
92
85
94
92
85
94
92
85
94
92
85
94
92
85
124
122
112
124
122
112
52
51
48
52
51
48
52
51
48
52
51
48
77
75
70
77
75
70
94
92
85
94
92
85
94
92
85
94
92
85
94
92
85
94
92
85
94
92
85
94
92
85
94
92
85
94
92
85
52
51
48
52
51
48
52
51
48
52
51
48
94
92
85
94
92
85
94
92
85
94
92
85
94
92
85
94
92
85
94
92
85
94
92
85
94
92
85
94
92
85
94
92
85
94
92
85
94
92
85
94
92
85
94
92
85
94
92
85
124
122
112
124
122
112
52
51
48
52
51
48
52
51
48
52
51
48
124
122
112
124
122
112
94
92
85
94
92
85
94
92
85
94
92
85
94
92
85
94
92
85
