P3
# Created by GIMP version 2.10.30 PNM plug-in
64 64
255
180
10
75
180
10
75
180
10
75
180
10
75
180
10
75
180
10
75
180
10
75
180
10
75
180
10
75
180
10
75
180
10
75
180
10
75
180
10
75
180
10
75
180
10
75
180
10
75
180
10
75
180
10
75
180
10
75
150
14
105
150
14
105
150
14
105
150
14
105
150
14
105
150
14
105
150
14
105
117
19
138
117
19
138
117
19
138
117
19
138
117
19
138
117
19
138
117
19
138
214
6
41
214
6
41
214
6
41
214
6
41
214
6
41
214
6
41
214
6
41
214
6
41
214
6
41
77
24
178
77
24
178
77
24
178
77
24
178
214
6
41
214
6
41
214
6
41
214
6
41
214
6
41
214
6
41
16
32
239
16
32
239
16
32
239
16
32
239
16
32
239
119
18
136
119
18
136
119
18
136
119
18
136
0
34
255
0
34
255
0
34
255
180
10
75
180
10
75
180
10
75
180
10
75
180
10
75
180
10
75
180
10
75
180
10
75
180
10
75
180
10
75
180
10
75
180
10
75
180
10
75
180
10
75
180
10
75
180
10
75
180
10
75
0
34
255
150
14
105
150
14
105
150
14
105
150
14
105
38
29
217
38
29
217
38
29
217
117
19
138
117
19
138
117
19
138
117
19
138
117
19
138
117
19
138
117
19
138
117
19
138
214
6
41
214
6
41
214
6
41
214
6
41
214
6
41
214
6
41
214
6
41
214
6
41
214
6
41
141
15
114
77
24
178
77
24
178
77
24
178
77
24
178
214
6
41
214
6
41
214
6
41
214
6
41
16
32
239
16
32
239
16
32
239
16
32
239
16
32
239
77
24
178
77
24
178
119
18
136
119
18
136
119
18
136
119
18
136
119
18
136
0
34
255
180
10
75
180
10
75
180
10
75
180
10
75
180
10
75
180
10
75
180
10
75
180
10
75
180
10
75
180
10
75
180
10
75
180
10
75
180
10
75
180
10
75
180
10
75
180
10
75
0
34
255
0
34
255
150
14
105
150
14
105
150
14
105
38
29
217
38
29
217
38
29
217
117
19
138
117
19
138
117
19
138
117
19
138
117
19
138
117
19
138
117
19
138
117
19
138
117
19
138
214
6
41
214
6
41
214
6
41
214
6
41
214
6
41
214
6
41
214
6
41
16
32
239
16
32
239
141
15
114
141
15
114
77
24
178
77
24
178
77
24
178
214
6
41
214
6
41
214
6
41
214
6
41
16
32
239
77
24
178
77
24
178
77
24
178
77
24
178
77
24
178
119
18
136
119
18
136
119
18
136
119
18
136
119
18
136
119
18
136
119
18
136
180
10
75
180
10
75
180
10
75
180
10
75
180
10
75
180
10
75
180
10
75
180
10
75
180
10
75
180
10
75
180
10
75
180
10
75
180
10
75
180
10
75
180
10
75
198
8
57
198
8
57
0
34
255
198
8
57
150
14
105
150
14
105
38
29
217
117
19
138
117
19
138
117
19
138
117
19
138
117
19
138
117
19
138
117
19
138
117
19
138
117
19
138
117
19
138
117
19
138
214
6
41
214
6
41
214
6
41
214
6
41
214
6
41
214
6
41
214
6
41
214
6
41
16
32
239
141
15
114
141
15
114
141
15
114
77
24
178
77
24
178
77
24
178
16
32
239
77
24
178
77
24
178
77
24
178
77
24
178
77
24
178
77
24
178
77
24
178
16
32
239
147
14
108
147
14
108
119
18
136
119
18
136
119
18
136
119
18
136
0
34
255
180
10
75
180
10
75
180
10
75
180
10
75
180
10
75
180
10
75
180
10
75
180
10
75
180
10
75
180
10
75
180
10
75
180
10
75
180
10
75
198
8
57
198
8
57
198
8
57
198
8
57
198
8
57
38
29
217
150
14
105
150
14
105
117
19
138
117
19
138
117
19
138
117
19
138
117
19
138
117
19
138
117
19
138
117
19
138
117
19
138
117
19
138
117
19
138
117
19
138
214
6
41
214
6
41
214
6
41
214
6
41
214
6
41
214
6
41
214
6
41
214
6
41
214
6
41
141
15
114
141
15
114
141
15
114
77
24
178
77
24
178
77
24
178
77
24
178
77
24
178
77
24
178
77
24
178
77
24
178
77
24
178
77
24
178
77
24
178
16
32
239
147
14
108
147
14
108
107
20
148
147
14
108
0
34
255
0
34
255
0
34
255
180
10
75
180
10
75
180
10
75
180
10
75
180
10
75
180
10
75
180
10
75
180
10
75
180
10
75
180
10
75
180
10
75
180
10
75
139
16
116
139
16
116
198
8
57
198
8
57
198
8
57
198
8
57
38
29
217
117
19
138
117
19
138
117
19
138
117
19
138
117
19
138
117
19
138
117
19
138
117
19
138
117
19
138
117
19
138
117
19
138
117
19
138
117
19
138
117
19
138
117
19
138
214
6
41
214
6
41
214
6
41
214
6
41
214
6
41
214
6
41
214
6
41
77
24
178
141
15
114
141
15
114
141
15
114
141
15
114
77
24
178
77
24
178
77
24
178
77
24
178
77
24
178
77
24
178
77
24
178
77
24
178
77
24
178
16
32
239
16
32
239
16
32
239
107
20
148
107
20
148
147
14
108
147
14
108
147
14
108
147
14
108
180
10
75
180
10
75
180
10
75
180
10
75
180
10
75
180
10
75
180
10
75
180
10
75
180
10
75
180
10
75
180
10
75
180
10
75
180
10
75
139
16
116
139
16
116
139
16
116
198
8
57
38
29
217
117
19
138
117
19
138
117
19
138
117
19
138
117
19
138
117
19
138
117
19
138
117
19
138
117
19
138
117
19
138
117
19
138
117
19
138
117
19
138
117
19
138
214
6
41
214
6
41
214
6
41
214
6
41
214
6
41
214
6
41
214
6
41
214
6
41
77
24
178
77
24
178
141
15
114
141
15
114
141
15
114
141
15
114
141
15
114
77
24
178
77
24
178
77
24
178
77
24
178
77
24
178
77
24
178
77
24
178
77
24
178
16
32
239
16
32
239
107
20
148
107
20
148
107
20
148
16
32
239
147
14
108
147
14
108
147
14
108
180
10
75
180
10
75
180
10
75
180
10
75
180
10
75
180
10
75
180
10
75
180
10
75
180
10
75
180
10
75
180
10
75
180
10
75
180
10
75
139
16
116
139
16
116
139
16
116
139
16
116
139
16
116
38
29
217
251
1
4
251
1
4
251
1
4
117
19
138
117
19
138
117
19
138
117
19
138
117
19
138
117
19
138
117
19
138
117
19
138
117
19
138
214
6
41
214
6
41
214
6
41
214
6
41
214
6
41
214
6
41
214
6
41
77
24
178
77
24
178
77
24
178
141
15
114
141
15
114
141
15
114
141
15
114
141
15
114
141
15
114
77
24
178
77
24
178
77
24
178
77
24
178
77
24
178
77
24
178
77
24
178
16
32
239
16
32
239
107
20
148
107
20
148
107
20
148
107
20
148
16
32
239
16
32
239
16
32
239
16
32
239
180
10
75
180
10
75
180
10
75
180
10
75
180
10
75
180
10
75
180
10
75
180
10
75
180
10
75
180
10
75
180
10
75
180
10
75
180
10
75
139
16
116
139
16
116
139
16
116
139
16
116
139
16
116
139
16
116
251
1
4
251
1
4
251
1
4
251
1
4
251
1
4
12
33
243
96
21
159
117
19
138
117
19
138
117
19
138
214
6
41
214
6
41
214
6
41
214
6
41
214
6
41
214
6
41
77
24
178
77
24
178
77
24
178
77
24
178
77
24
178
77
24
178
141
15
114
141
15
114
107
20
148
141
15
114
141
15
114
141
15
114
141
15
114
77
24
178
77
24
178
77
24
178
77
24
178
121
18
134
16
32
239
16
32
239
107
20
148
107
20
148
107
20
148
107
20
148
107
20
148
16
32
239
16
32
239
16
32
239
16
32
239
180
10
75
180
10
75
180
10
75
180
10
75
180
10
75
180
10
75
180
10
75
180
10
75
180
10
75
180
10
75
180
10
75
180
10
75
180
10
75
139
16
116
139
16
116
139
16
116
139
16
116
139
16
116
139
16
116
251
1
4
251
1
4
251
1
4
251
1
4
251
1
4
251
1
4
139
16
116
96
21
159
117
19
138
214
6
41
214
6
41
214
6
41
214
6
41
214
6
41
77
24
178
77
24
178
77
24
178
77
24
178
77
24
178
77
24
178
77
24
178
77
24
178
141
15
114
141
15
114
141
15
114
107
20
148
107
20
148
107
20
148
141
15
114
141
15
114
77
24
178
77
24
178
77
24
178
33
30
222
33
30
222
107
20
148
107
20
148
107
20
148
107
20
148
107
20
148
107
20
148
16
32
239
33
30
222
16
32
239
16
32
239
180
10
75
180
10
75
180
10
75
180
10
75
180
10
75
180
10
75
180
10
75
180
10
75
180
10
75
180
10
75
180
10
75
180
10
75
180
10
75
139
16
116
139
16
116
139
16
116
139
16
116
139
16
116
139
16
116
251
1
4
251
1
4
251
1
4
251
1
4
251
1
4
251
1
4
72
25
183
72
25
183
214
6
41
214
6
41
214
6
41
214
6
41
214
6
41
214
6
41
214
6
41
214
6
41
77
24
178
77
24
178
77
24
178
77
24
178
77
24
178
77
24
178
141
15
114
141
15
114
141
15
114
107
20
148
107
20
148
107
20
148
107
20
148
107
20
148
107
20
148
77
24
178
77
24
178
33
30
222
107
20
148
107
20
148
107
20
148
107
20
148
107
20
148
107
20
148
107
20
148
33
30
222
121
18
134
121
18
134
147
14
108
180
10
75
180
10
75
180
10
75
1
34
254
198
8
57
180
10
75
180
10
75
180
10
75
180
10
75
180
10
75
180
10
75
180
10
75
180
10
75
180
10
75
139
16
116
139
16
116
139
16
116
139
16
116
251
1
4
251
1
4
251
1
4
251
1
4
251
1
4
251
1
4
251
1
4
214
6
41
214
6
41
214
6
41
214
6
41
214
6
41
214
6
41
214
6
41
214
6
41
214
6
41
214
6
41
214
6
41
214
6
41
77
24
178
77
24
178
77
24
178
77
24
178
141
15
114
141
15
114
141
15
114
141
15
114
107
20
148
107
20
148
107
20
148
107
20
148
107
20
148
107
20
148
107
20
148
107
20
148
107
20
148
107
20
148
107
20
148
107
20
148
107
20
148
107
20
148
107
20
148
33
30
222
121
18
134
121
18
134
147
14
108
180
10
75
0
34
255
1
34
254
198
8
57
198
8
57
211
6
44
211
6
44
180
10
75
180
10
75
180
10
75
180
10
75
180
10
75
180
10
75
180
10
75
139
16
116
139
16
116
139
16
116
139
16
116
251
1
4
251
1
4
251
1
4
251
1
4
251
1
4
251
1
4
214
6
41
214
6
41
214
6
41
214
6
41
214
6
41
214
6
41
214
6
41
214
6
41
214
6
41
214
6
41
214
6
41
214
6
41
214
6
41
214
6
41
214
6
41
214
6
41
141
15
114
141
15
114
141
15
114
141
15
114
141
15
114
107
20
148
107
20
148
107
20
148
107
20
148
107
20
148
107
20
148
107
20
148
107
20
148
107
20
148
107
20
148
107
20
148
107
20
148
107
20
148
107
20
148
107
20
148
121
18
134
121
18
134
141
15
114
141
15
114
0
34
255
198
8
57
198
8
57
198
8
57
211
6
44
211
6
44
211
6
44
211
6
44
180
10
75
180
10
75
180
10
75
180
10
75
180
10
75
180
10
75
139
16
116
139
16
116
139
16
116
139
16
116
251
1
4
251
1
4
251
1
4
251
1
4
214
6
41
214
6
41
214
6
41
214
6
41
214
6
41
214
6
41
214
6
41
214
6
41
214
6
41
214
6
41
214
6
41
214
6
41
214
6
41
214
6
41
214
6
41
214
6
41
214
6
41
214
6
41
141
15
114
141
15
114
141
15
114
141
15
114
141
15
114
141
15
114
107
20
148
107
20
148
107
20
148
107
20
148
107
20
148
107
20
148
107
20
148
107
20
148
107
20
148
107
20
148
107
20
148
107
20
148
107
20
148
107
20
148
121
18
134
121
18
134
141
15
114
141
15
114
232
3
23
232
3
23
232
3
23
232
3
23
232
3
23
232
3
23
211
6
44
211
6
44
211
6
44
211
6
44
180
10
75
180
10
75
180
10
75
180
10
75
139
16
116
139
16
116
139
16
116
139
16
116
251
1
4
251
1
4
251
1
4
214
6
41
214
6
41
214
6
41
214
6
41
214
6
41
214
6
41
214
6
41
214
6
41
214
6
41
214
6
41
214
6
41
214
6
41
214
6
41
214
6
41
214
6
41
214
6
41
214
6
41
214
6
41
214
6
41
141
15
114
141
15
114
141
15
114
141
15
114
141
15
114
141
15
114
107
20
148
107
20
148
107
20
148
107
20
148
107
20
148
107
20
148
107
20
148
107
20
148
107
20
148
107
20
148
107
20
148
107
20
148
107
20
148
107
20
148
107
20
148
141
15
114
141
15
114
141
15
114
232
3
23
232
3
23
232
3
23
232
3
23
232
3
23
211
6
44
211
6
44
211
6
44
211
6
44
211
6
44
211
6
44
180
10
75
180
10
75
180
10
75
198
8
57
139
16
116
139
16
116
139
16
116
251
1
4
251
1
4
251
1
4
214
6
41
214
6
41
214
6
41
214
6
41
214
6
41
214
6
41
214
6
41
214
6
41
214
6
41
214
6
41
214
6
41
214
6
41
214
6
41
214
6
41
214
6
41
214
6
41
214
6
41
214
6
41
214
6
41
141
15
114
141
15
114
141
15
114
141
15
114
141
15
114
141
15
114
141
15
114
107
20
148
107
20
148
107
20
148
107
20
148
107
20
148
107
20
148
107
20
148
107
20
148
107
20
148
107
20
148
107
20
148
107
20
148
107
20
148
107
20
148
107
20
148
107
20
148
141
15
114
232
3
23
232
3
23
232
3
23
232
3
23
211
6
44
211
6
44
211
6
44
211
6
44
211
6
44
211
6
44
211
6
44
211
6
44
198
8
57
180
10
75
180
10
75
139
16
116
251
1
4
251
1
4
251
1
4
251
1
4
251
1
4
251
1
4
251
1
4
251
1
4
251
1
4
251
1
4
251
1
4
251
1
4
214
6
41
214
6
41
214
6
41
214
6
41
214
6
41
214
6
41
214
6
41
214
6
41
214
6
41
214
6
41
214
6
41
214
6
41
141
15
114
141
15
114
141
15
114
141
15
114
141
15
114
141
15
114
121
18
134
33
30
222
107
20
148
107
20
148
107
20
148
107
20
148
107
20
148
107
20
148
107
20
148
107
20
148
107
20
148
107
20
148
107
20
148
107
20
148
107
20
148
107
20
148
107
20
148
107
20
148
232
3
23
232
3
23
232
3
23
211
6
44
211
6
44
211
6
44
211
6
44
211
6
44
211
6
44
211
6
44
211
6
44
211
6
44
170
11
85
251
1
4
180
10
75
251
1
4
160
13
95
160
13
95
251
1
4
251
1
4
251
1
4
251
1
4
251
1
4
251
1
4
251
1
4
251
1
4
251
1
4
251
1
4
251
1
4
251
1
4
72
25
183
72
25
183
72
25
183
72
25
183
72
25
183
214
6
41
214
6
41
141
15
114
141
15
114
141
15
114
141
15
114
141
15
114
141
15
114
141
15
114
141
15
114
141
15
114
121
18
134
121
18
134
107
20
148
107
20
148
107
20
148
107
20
148
107
20
148
107
20
148
107
20
148
107
20
148
107
20
148
107
20
148
107
20
148
107
20
148
107
20
148
107
20
148
107
20
148
107
20
148
232
3
23
232
3
23
211
6
44
211
6
44
211
6
44
206
7
49
206
7
49
206
7
49
206
7
49
206
7
49
251
1
4
251
1
4
251
1
4
251
1
4
251
1
4
251
1
4
160
13
95
160
13
95
251
1
4
251
1
4
251
1
4
251
1
4
251
1
4
251
1
4
251
1
4
251
1
4
251
1
4
251
1
4
251
1
4
251
1
4
251
1
4
72
25
183
72
25
183
141
15
114
141
15
114
141
15
114
141
15
114
141
15
114
141
15
114
141
15
114
141
15
114
141
15
114
141
15
114
141
15
114
141
15
114
141
15
114
141
15
114
107
20
148
107
20
148
107
20
148
107
20
148
107
20
148
107
20
148
107
20
148
107
20
148
107
20
148
107
20
148
107
20
148
107
20
148
107
20
148
107
20
148
107
20
148
107
20
148
107
20
148
206
7
49
206
7
49
206
7
49
206
7
49
206
7
49
206
7
49
206
7
49
206
7
49
206
7
49
251
1
4
251
1
4
251
1
4
251
1
4
251
1
4
251
1
4
251
1
4
160
13
95
160
13
95
160
13
95
251
1
4
251
1
4
251
1
4
251
1
4
251
1
4
251
1
4
251
1
4
251
1
4
251
1
4
251
1
4
141
15
114
141
15
114
141
15
114
141
15
114
141
15
114
141
15
114
141
15
114
141
15
114
141
15
114
141
15
114
141
15
114
141
15
114
141
15
114
141
15
114
141
15
114
141
15
114
141
15
114
107
20
148
107
20
148
107
20
148
107
20
148
107
20
148
107
20
148
107
20
148
107
20
148
107
20
148
107
20
148
107
20
148
107
20
148
107
20
148
107
20
148
107
20
148
107
20
148
107
20
148
107
20
148
206
7
49
206
7
49
206
7
49
206
7
49
206
7
49
206
7
49
206
7
49
206
7
49
206
7
49
251
1
4
251
1
4
251
1
4
251
1
4
251
1
4
251
1
4
251
1
4
160
13
95
160
13
95
160
13
95
160
13
95
251
1
4
251
1
4
124
18
131
124
18
131
251
1
4
251
1
4
141
15
114
141
15
114
141
15
114
141
15
114
141
15
114
141
15
114
141
15
114
141
15
114
141
15
114
141
15
114
141
15
114
141
15
114
141
15
114
141
15
114
141
15
114
141
15
114
141
15
114
141
15
114
141
15
114
141
15
114
107
20
148
107
20
148
107
20
148
107
20
148
107
20
148
107
20
148
107
20
148
107
20
148
107
20
148
107
20
148
107
20
148
107
20
148
107
20
148
107
20
148
107
20
148
107
20
148
107
20
148
254
0
1
206
7
49
206
7
49
206
7
49
206
7
49
206
7
49
206
7
49
206
7
49
206
7
49
251
1
4
251
1
4
251
1
4
251
1
4
251
1
4
251
1
4
251
1
4
251
1
4
160
13
95
160
13
95
160
13
95
160
13
95
251
1
4
251
1
4
251
1
4
124
18
131
124
18
131
141
15
114
141
15
114
141
15
114
141
15
114
141
15
114
141
15
114
141
15
114
141
15
114
141
15
114
141
15
114
141
15
114
141
15
114
141
15
114
141
15
114
141
15
114
141
15
114
141
15
114
14
32
241
141
15
114
141
15
114
107
20
148
107
20
148
107
20
148
107
20
148
107
20
148
107
20
148
107
20
148
107
20
148
107
20
148
107
20
148
107
20
148
107
20
148
107
20
148
107
20
148
107
20
148
114
19
141
121
18
134
14
32
241
14
32
241
206
7
49
206
7
49
206
7
49
206
7
49
206
7
49
206
7
49
206
7
49
211
6
44
211
6
44
139
16
116
251
1
4
251
1
4
251
1
4
251
1
4
251
1
4
160
13
95
160
13
95
160
13
95
160
13
95
160
13
95
160
13
95
252
0
3
252
0
3
124
18
131
124
18
131
124
18
131
124
18
131
141
15
114
141
15
114
141
15
114
141
15
114
141
15
114
141
15
114
141
15
114
141
15
114
141
15
114
141
15
114
141
15
114
141
15
114
141
15
114
141
15
114
141
15
114
141
15
114
14
32
241
14
32
241
14
32
241
107
20
148
107
20
148
107
20
148
107
20
148
107
20
148
107
20
148
107
20
148
107
20
148
107
20
148
107
20
148
107
20
148
107
20
148
107
20
148
114
19
141
114
19
141
14
32
241
14
32
241
14
32
241
206
7
49
206
7
49
206
7
49
206
7
49
206
7
49
206
7
49
211
6
44
211
6
44
139
16
116
139
16
116
139
16
116
139
16
116
251
1
4
251
1
4
251
1
4
160
13
95
160
13
95
160
13
95
160
13
95
160
13
95
160
13
95
160
13
95
252
0
3
124
18
131
124
18
131
124
18
131
124
18
131
124
18
131
124
18
131
141
15
114
141
15
114
141
15
114
141
15
114
141
15
114
141
15
114
141
15
114
141
15
114
141
15
114
141
15
114
141
15
114
141
15
114
141
15
114
141
15
114
14
32
241
14
32
241
14
32
241
14
32
241
14
32
241
107
20
148
107
20
148
107
20
148
107
20
148
107
20
148
107
20
148
107
20
148
107
20
148
107
20
148
107
20
148
107
20
148
114
19
141
14
32
241
14
32
241
14
32
241
14
32
241
206
7
49
206
7
49
206
7
49
206
7
49
206
7
49
206
7
49
211
6
44
139
16
116
139
16
116
139
16
116
139
16
116
139
16
116
139
16
116
139
16
116
251
1
4
160
13
95
160
13
95
160
13
95
160
13
95
160
13
95
160
13
95
160
13
95
252
0
3
252
0
3
124
18
131
124
18
131
124
18
131
124
18
131
124
18
131
124
18
131
124
18
131
141
15
114
141
15
114
141
15
114
141
15
114
141
15
114
141
15
114
141
15
114
141
15
114
141
15
114
141
15
114
141
15
114
141
15
114
107
20
148
14
32
241
14
32
241
14
32
241
14
32
241
14
32
241
14
32
241
141
15
114
141
15
114
141
15
114
107
20
148
107
20
148
107
20
148
107
20
148
107
20
148
107
20
148
14
32
241
14
32
241
14
32
241
14
32
241
14
32
241
206
7
49
206
7
49
206
7
49
206
7
49
206
7
49
211
6
44
139
16
116
139
16
116
139
16
116
139
16
116
139
16
116
139
16
116
139
16
116
252
0
3
252
0
3
160
13
95
160
13
95
160
13
95
160
13
95
160
13
95
160
13
95
160
13
95
160
13
95
252
0
3
124
18
131
124
18
131
124
18
131
124
18
131
124
18
131
124
18
131
124
18
131
124
18
131
141
15
114
141
15
114
141
15
114
141
15
114
141
15
114
141
15
114
141
15
114
141
15
114
141
15
114
141
15
114
107
20
148
141
15
114
14
32
241
14
32
241
14
32
241
14
32
241
14
32
241
14
32
241
14
32
241
14
32
241
14
32
241
121
18
134
107
20
148
107
20
148
107
20
148
107
20
148
14
32
241
14
32
241
14
32
241
14
32
241
14
32
241
14
32
241
206
7
49
206
7
49
206
7
49
206
7
49
206
7
49
211
6
44
211
6
44
211
6
44
211
6
44
211
6
44
252
0
3
252
0
3
252
0
3
252
0
3
252
0
3
160
13
95
160
13
95
160
13
95
160
13
95
160
13
95
160
13
95
160
13
95
160
13
95
160
13
95
251
1
4
124
18
131
124
18
131
124
18
131
124
18
131
124
18
131
124
18
131
124
18
131
124
18
131
124
18
131
141
15
114
141
15
114
141
15
114
141
15
114
141
15
114
141
15
114
141
15
114
141
15
114
141
15
114
141
15
114
14
32
241
14
32
241
14
32
241
14
32
241
14
32
241
14
32
241
14
32
241
14
32
241
14
32
241
14
32
241
14
32
241
107
20
148
107
20
148
14
32
241
14
32
241
14
32
241
14
32
241
14
32
241
14
32
241
14
32
241
206
7
49
206
7
49
206
7
49
206
7
49
206
7
49
211
6
44
211
6
44
211
6
44
211
6
44
211
6
44
211
6
44
85
23
170
252
0
3
252
0
3
160
13
95
160
13
95
160
13
95
160
13
95
160
13
95
160
13
95
160
13
95
160
13
95
160
13
95
160
13
95
160
13
95
124
18
131
124
18
131
124
18
131
124
18
131
124
18
131
124
18
131
124
18
131
124
18
131
124
18
131
124
18
131
124
18
131
141
15
114
141
15
114
141
15
114
141
15
114
141
15
114
141
15
114
141
15
114
141
15
114
141
15
114
14
32
241
14
32
241
14
32
241
14
32
241
14
32
241
14
32
241
14
32
241
14
32
241
14
32
241
14
32
241
14
32
241
14
32
241
14
32
241
14
32
241
14
32
241
14
32
241
14
32
241
14
32
241
14
32
241
206
7
49
206
7
49
206
7
49
206
7
49
206
7
49
206
7
49
211
6
44
211
6
44
211
6
44
211
6
44
211
6
44
85
23
170
85
23
170
85
23
170
160
13
95
160
13
95
160
13
95
160
13
95
160
13
95
160
13
95
160
13
95
160
13
95
160
13
95
160
13
95
160
13
95
124
18
131
124
18
131
124
18
131
124
18
131
124
18
131
124
18
131
124
18
131
124
18
131
124
18
131
124
18
131
124
18
131
124
18
131
124
18
131
141
15
114
141
15
114
141
15
114
141
15
114
141
15
114
141
15
114
141
15
114
14
32
241
14
32
241
14
32
241
14
32
241
14
32
241
14
32
241
14
32
241
14
32
241
14
32
241
14
32
241
14
32
241
14
32
241
14
32
241
14
32
241
14
32
241
14
32
241
14
32
241
14
32
241
14
32
241
206
7
49
206
7
49
206
7
49
25
31
230
25
31
230
206
7
49
211
6
44
211
6
44
211
6
44
211
6
44
211
6
44
211
6
44
85
23
170
85
23
170
160
13
95
160
13
95
160
13
95
160
13
95
160
13
95
160
13
95
160
13
95
160
13
95
160
13
95
160
13
95
124
18
131
124
18
131
124
18
131
124
18
131
124
18
131
124
18
131
124
18
131
124
18
131
124
18
131
124
18
131
124
18
131
124
18
131
124
18
131
124
18
131
141
15
114
141
15
114
141
15
114
141
15
114
141
15
114
141
15
114
141
15
114
141
15
114
14
32
241
14
32
241
14
32
241
14
32
241
14
32
241
14
32
241
14
32
241
14
32
241
14
32
241
14
32
241
14
32
241
14
32
241
14
32
241
14
32
241
14
32
241
14
32
241
14
32
241
14
32
241
206
7
49
206
7
49
25
31
230
25
31
230
25
31
230
206
7
49
206
7
49
211
6
44
211
6
44
211
6
44
160
13
95
160
13
95
160
13
95
160
13
95
160
13
95
160
13
95
160
13
95
160
13
95
160
13
95
160
13
95
160
13
95
160
13
95
160
13
95
160
13
95
124
18
131
124
18
131
124
18
131
124
18
131
124
18
131
124
18
131
124
18
131
124
18
131
124
18
131
124
18
131
124
18
131
124
18
131
124
18
131
124
18
131
141
15
114
141
15
114
141
15
114
141
15
114
141
15
114
114
19
141
114
19
141
114
19
141
14
32
241
14
32
241
14
32
241
14
32
241
14
32
241
14
32
241
14
32
241
14
32
241
14
32
241
14
32
241
14
32
241
14
32
241
14
32
241
14
32
241
14
32
241
14
32
241
14
32
241
14
32
241
25
31
230
25
31
230
25
31
230
25
31
230
25
31
230
206
7
49
206
7
49
160
13
95
160
13
95
160
13
95
160
13
95
160
13
95
160
13
95
160
13
95
160
13
95
160
13
95
160
13
95
160
13
95
160
13
95
160
13
95
13
33
242
160
13
95
160
13
95
124
18
131
124
18
131
124
18
131
124
18
131
124
18
131
124
18
131
124
18
131
124
18
131
124
18
131
124
18
131
124
18
131
124
18
131
124
18
131
124
18
131
124
18
131
141
15
114
141
15
114
141
15
114
141
15
114
141
15
114
141
15
114
114
19
141
114
19
141
114
19
141
14
32
241
14
32
241
14
32
241
14
32
241
14
32
241
14
32
241
14
32
241
14
32
241
14
32
241
14
32
241
14
32
241
14
32
241
14
32
241
14
32
241
14
32
241
14
32
241
14
32
241
25
31
230
25
31
230
25
31
230
25
31
230
25
31
230
206
7
49
206
7
49
206
7
49
160
13
95
160
13
95
160
13
95
160
13
95
160
13
95
160
13
95
160
13
95
160
13
95
160
13
95
160
13
95
160
13
95
160
13
95
13
33
242
13
33
242
124
18
131
124
18
131
124
18
131
124
18
131
124
18
131
124
18
131
124
18
131
124
18
131
124
18
131
124
18
131
124
18
131
124
18
131
124
18
131
124
18
131
124
18
131
124
18
131
141
15
114
141
15
114
141
15
114
141
15
114
141
15
114
141
15
114
141
15
114
141
15
114
114
19
141
14
32
241
14
32
241
14
32
241
14
32
241
14
32
241
14
32
241
14
32
241
14
32
241
14
32
241
14
32
241
14
32
241
14
32
241
14
32
241
14
32
241
14
32
241
14
32
241
14
32
241
25
31
230
25
31
230
25
31
230
25
31
230
25
31
230
206
7
49
206
7
49
206
7
49
160
13
95
160
13
95
160
13
95
160
13
95
160
13
95
160
13
95
160
13
95
160
13
95
160
13
95
160
13
95
160
13
95
160
13
95
160
13
95
13
33
242
13
33
242
124
18
131
124
18
131
124
18
131
124
18
131
124
18
131
124
18
131
124
18
131
124
18
131
124
18
131
124
18
131
124
18
131
124
18
131
13
33
242
13
33
242
124
18
131
141
15
114
141
15
114
141
15
114
141
15
114
141
15
114
141
15
114
141
15
114
141
15
114
141
15
114
14
32
241
14
32
241
14
32
241
14
32
241
14
32
241
14
32
241
14
32
241
14
32
241
14
32
241
14
32
241
14
32
241
14
32
241
14
32
241
14
32
241
14
32
241
14
32
241
14
32
241
25
31
230
25
31
230
25
31
230
25
31
230
160
13
95
160
13
95
206
7
49
206
7
49
206
7
49
160
13
95
160
13
95
160
13
95
160
13
95
160
13
95
160
13
95
160
13
95
160
13
95
160
13
95
160
13
95
160
13
95
124
18
131
13
33
242
13
33
242
13
33
242
13
33
242
124
18
131
124
18
131
124
18
131
124
18
131
124
18
131
124
18
131
124
18
131
124
18
131
13
33
242
13
33
242
13
33
242
13
33
242
72
25
183
141
15
114
141
15
114
141
15
114
141
15
114
141
15
114
141
15
114
141
15
114
141
15
114
141
15
114
141
15
114
14
32
241
14
32
241
14
32
241
14
32
241
14
32
241
14
32
241
14
32
241
14
32
241
14
32
241
14
32
241
14
32
241
14
32
241
14
32
241
14
32
241
14
32
241
14
32
241
25
31
230
25
31
230
25
31
230
25
31
230
0
34
255
160
13
95
160
13
95
160
13
95
206
7
49
160
13
95
160
13
95
160
13
95
160
13
95
160
13
95
160
13
95
160
13
95
160
13
95
160
13
95
160
13
95
124
18
131
124
18
131
13
33
242
13
33
242
13
33
242
13
33
242
13
33
242
160
13
95
72
25
183
72
25
183
124
18
131
124
18
131
13
33
242
13
33
242
13
33
242
13
33
242
13
33
242
82
23
173
48
28
207
141
15
114
141
15
114
141
15
114
141
15
114
141
15
114
141
15
114
141
15
114
141
15
114
141
15
114
141
15
114
65
26
190
14
32
241
14
32
241
14
32
241
14
32
241
14
32
241
14
32
241
14
32
241
14
32
241
14
32
241
14
32
241
14
32
241
14
32
241
14
32
241
14
32
241
14
32
241
25
31
230
25
31
230
25
31
230
25
31
230
0
34
255
0
34
255
0
34
255
160
13
95
160
13
95
160
13
95
160
13
95
160
13
95
160
13
95
160
13
95
160
13
95
160
13
95
160
13
95
160
13
95
160
13
95
160
13
95
160
13
95
13
33
242
13
33
242
13
33
242
13
33
242
13
33
242
13
33
242
72
25
183
72
25
183
13
33
242
13
33
242
13
33
242
13
33
242
13
33
242
13
33
242
13
33
242
147
15
108
48
28
207
141
15
114
141
15
114
141
15
114
141
15
114
34
30
221
141
15
114
141
15
114
141
15
114
141
15
114
14
32
241
65
26
190
65
26
190
14
32
241
14
32
241
14
32
241
14
32
241
14
32
241
14
32
241
14
32
241
14
32
241
14
32
241
14
32
241
14
32
241
14
32
241
14
32
241
14
32
241
25
31
230
25
31
230
25
31
230
25
31
230
0
34
255
0
34
255
0
34
255
138
16
117
138
16
117
160
13
95
160
13
95
160
13
95
160
13
95
160
13
95
160
13
95
160
13
95
160
13
95
160
13
95
160
13
95
160
13
95
160
13
95
13
33
242
13
33
242
13
33
242
13
33
242
13
33
242
13
33
242
13
33
242
13
33
242
13
33
242
13
33
242
13
33
242
13
33
242
13
33
242
13
33
242
147
15
108
147
15
108
82
23
173
141
15
114
141
15
114
141
15
114
141
15
114
34
30
221
34
30
221
34
30
221
34
30
221
14
32
241
14
32
241
65
26
190
65
26
190
65
26
190
14
32
241
14
32
241
14
32
241
14
32
241
14
32
241
14
32
241
14
32
241
14
32
241
14
32
241
14
32
241
14
32
241
14
32
241
14
32
241
25
31
230
25
31
230
25
31
230
25
31
230
0
34
255
0
34
255
0
34
255
0
34
255
138
16
117
138
16
117
160
13
95
160
13
95
160
13
95
160
13
95
160
13
95
160
13
95
160
13
95
160
13
95
160
13
95
160
13
95
160
13
95
13
33
242
13
33
242
13
33
242
13
33
242
13
33
242
13
33
242
13
33
242
13
33
242
13
33
242
13
33
242
13
33
242
13
33
242
13
33
242
13
33
242
147
15
108
147
15
108
147
15
108
141
15
114
141
15
114
141
15
114
141
15
114
141
15
114
34
30
221
34
30
221
14
32
241
14
32
241
14
32
241
65
26
190
65
26
190
65
26
190
65
26
190
65
26
190
14
32
241
14
32
241
14
32
241
14
32
241
14
32
241
14
32
241
14
32
241
14
32
241
14
32
241
14
32
241
14
32
241
25
31
230
25
31
230
25
31
230
25
31
230
25
31
230
25
31
230
0
34
255
0
34
255
138
16
117
138
16
117
138
16
117
48
28
207
160
13
95
160
13
95
160
13
95
160
13
95
160
13
95
74
24
181
160
13
95
160
13
95
160
13
95
13
33
242
13
33
242
13
33
242
13
33
242
13
33
242
13
33
242
13
33
242
13
33
242
13
33
242
13
33
242
13
33
242
13
33
242
13
33
242
13
33
242
102
21
153
102
21
153
102
21
153
141
15
114
141
15
114
141
15
114
141
15
114
141
15
114
34
30
221
14
32
241
14
32
241
14
32
241
14
32
241
65
26
190
65
26
190
65
26
190
65
26
190
65
26
190
65
26
190
14
32
241
14
32
241
14
32
241
14
32
241
14
32
241
14
32
241
14
32
241
14
32
241
14
32
241
14
32
241
25
31
230
25
31
230
25
31
230
25
31
230
25
31
230
25
31
230
25
31
230
0
34
255
138
16
117
138
16
117
138
16
117
48
28
207
48
28
207
160
13
95
160
13
95
160
13
95
160
13
95
74
24
181
74
24
181
160
13
95
160
13
95
102
21
153
13
33
242
13
33
242
13
33
242
13
33
242
13
33
242
13
33
242
13
33
242
13
33
242
13
33
242
13
33
242
13
33
242
13
33
242
102
21
153
102
21
153
102
21
153
102
21
153
141
15
114
141
15
114
141
15
114
141
15
114
141
15
114
14
32
241
14
32
241
14
32
241
14
32
241
14
32
241
65
26
190
65
26
190
65
26
190
65
26
190
65
26
190
65
26
190
65
26
190
14
32
241
14
32
241
14
32
241
14
32
241
14
32
241
14
32
241
14
32
241
14
32
241
14
32
241
25
31
230
25
31
230
25
31
230
25
31
230
25
31
230
25
31
230
25
31
230
25
31
230
138
16
117
138
16
117
138
16
117
48
28
207
48
28
207
160
13
95
160
13
95
160
13
95
74
24
181
74
24
181
102
21
153
102
21
153
102
21
153
13
33
242
13
33
242
13
33
242
13
33
242
13
33
242
13
33
242
13
33
242
13
33
242
13
33
242
13
33
242
13
33
242
13
33
242
13
33
242
102
21
153
102
21
153
102
21
153
102
21
153
141
15
114
141
15
114
141
15
114
141
15
114
14
32
241
14
32
241
14
32
241
14
32
241
14
32
241
14
32
241
65
26
190
65
26
190
65
26
190
65
26
190
65
26
190
65
26
190
65
26
190
65
26
190
14
32
241
14
32
241
14
32
241
14
32
241
14
32
241
14
32
241
14
32
241
14
32
241
25
31
230
25
31
230
25
31
230
25
31
230
25
31
230
25
31
230
25
31
230
25
31
230
25
31
230
25
31
230
138
16
117
138
16
117
48
28
207
160
13
95
160
13
95
160
13
95
74
24
181
74
24
181
74
24
181
13
33
242
13
33
242
13
33
242
13
33
242
13
33
242
13
33
242
17
32
238
13
33
242
13
33
242
13
33
242
13
33
242
13
33
242
13
33
242
13
33
242
13
33
242
102
21
153
102
21
153
102
21
153
102
21
153
141
15
114
141
15
114
141
15
114
14
32
241
14
32
241
14
32
241
14
32
241
14
32
241
14
32
241
14
32
241
14
32
241
65
26
190
65
26
190
65
26
190
65
26
190
65
26
190
65
26
190
65
26
190
65
26
190
14
32
241
14
32
241
14
32
241
14
32
241
14
32
241
14
32
241
14
32
241
96
21
159
25
31
230
25
31
230
25
31
230
25
31
230
25
31
230
25
31
230
25
31
230
25
31
230
25
31
230
25
31
230
138
16
117
48
28
207
160
13
95
160
13
95
74
24
181
74
24
181
74
24
181
13
33
242
13
33
242
13
33
242
13
33
242
13
33
242
13
33
242
13
33
242
17
32
238
13
33
242
13
33
242
13
33
242
13
33
242
13
33
242
13
33
242
13
33
242
13
33
242
13
33
242
102
21
153
102
21
153
102
21
153
141
15
114
141
15
114
14
32
241
14
32
241
14
32
241
14
32
241
14
32
241
14
32
241
14
32
241
14
32
241
14
32
241
65
26
190
65
26
190
65
26
190
65
26
190
65
26
190
65
26
190
65
26
190
65
26
190
65
26
190
65
26
190
14
32
241
14
32
241
14
32
241
14
32
241
14
32
241
96
21
159
96
21
159
25
31
230
25
31
230
25
31
230
25
31
230
25
31
230
25
31
230
25
31
230
25
31
230
138
16
117
138
16
117
160
13
95
160
13
95
160
13
95
74
24
181
13
33
242
13
33
242
13
33
242
13
33
242
13
33
242
13
33
242
13
33
242
13
33
242
13
33
242
17
32
238
13
33
242
13
33
242
13
33
242
13
33
242
13
33
242
13
33
242
13
33
242
13
33
242
13
33
242
13
33
242
102
21
153
102
21
153
141
15
114
147
15
108
14
32
241
14
32
241
14
32
241
14
32
241
14
32
241
14
32
241
14
32
241
14
32
241
14
32
241
65
26
190
65
26
190
65
26
190
65
26
190
65
26
190
65
26
190
65
26
190
65
26
190
65
26
190
65
26
190
65
26
190
14
32
241
14
32
241
14
32
241
65
26
190
96
21
159
96
21
159
96
21
159
138
16
117
138
16
117
138
16
117
138
16
117
138
16
117
138
16
117
138
16
117
138
16
117
138
16
117
160
13
95
160
13
95
74
24
181
13
33
242
13
33
242
13
33
242
13
33
242
13
33
242
13
33
242
13
33
242
13
33
242
13
33
242
17
32
238
17
32
238
17
32
238
13
33
242
13
33
242
13
33
242
13
33
242
13
33
242
13
33
242
13
33
242
13
33
242
13
33
242
13
33
242
102
21
153
147
15
108
14
32
241
14
32
241
14
32
241
14
32
241
14
32
241
14
32
241
14
32
241
14
32
241
14
32
241
34
30
221
65
26
190
65
26
190
65
26
190
65
26
190
65
26
190
65
26
190
65
26
190
65
26
190
65
26
190
65
26
190
65
26
190
65
26
190
65
26
190
65
26
190
65
26
190
96
21
159
96
21
159
96
21
159
96
21
159
138
16
117
138
16
117
138
16
117
138
16
117
138
16
117
138
16
117
138
16
117
138
16
117
96
21
159
13
33
242
13
33
242
13
33
242
13
33
242
13
33
242
13
33
242
13
33
242
13
33
242
13
33
242
13
33
242
13
33
242
17
32
238
17
32
238
17
32
238
13
33
242
13
33
242
13
33
242
13
33
242
13
33
242
13
33
242
13
33
242
13
33
242
13
33
242
13
33
242
13
33
242
147
15
108
147
15
108
145
15
110
145
15
110
71
25
184
145
15
110
31
30
224
31
30
224
34
30
221
34
30
221
34
30
221
65
26
190
65
26
190
65
26
190
65
26
190
65
26
190
65
26
190
65
26
190
65
26
190
65
26
190
65
26
190
65
26
190
65
26
190
65
26
190
65
26
190
65
26
190
96
21
159
96
21
159
96
21
159
96
21
159
96
21
159
138
16
117
138
16
117
138
16
117
96
21
159
96
21
159
96
21
159
96
21
159
96
21
159
74
24
181
74
24
181
74
24
181
74
24
181
74
24
181
13
33
242
13
33
242
13
33
242
13
33
242
13
33
242
17
32
238
17
32
238
17
32
238
17
32
238
17
32
238
13
33
242
13
33
242
13
33
242
13
33
242
13
33
242
13
33
242
13
33
242
13
33
242
13
33
242
13
33
242
13
33
242
145
15
110
145
15
110
145
15
110
71
25
184
31
30
224
31
30
224
34
30
221
34
30
221
34
30
221
34
30
221
65
26
190
65
26
190
65
26
190
65
26
190
65
26
190
65
26
190
65
26
190
65
26
190
65
26
190
65
26
190
65
26
190
65
26
190
65
26
190
65
26
190
65
26
190
96
21
159
96
21
159
96
21
159
96
21
159
96
21
159
96
21
159
96
21
159
96
21
159
96
21
159
96
21
159
96
21
159
96
21
159
96
21
159
74
24
181
74
24
181
74
24
181
74
24
181
74
24
181
74
24
181
74
24
181
74
24
181
145
15
110
145
15
110
17
32
238
17
32
238
17
32
238
17
32
238
17
32
238
13
33
242
13
33
242
13
33
242
13
33
242
13
33
242
13
33
242
13
33
242
13
33
242
13
33
242
13
33
242
13
33
242
13
33
242
145
15
110
145
15
110
145
15
110
31
30
224
31
30
224
34
30
221
34
30
221
34
30
221
34
30
221
65
26
190
65
26
190
65
26
190
65
26
190
65
26
190
65
26
190
65
26
190
65
26
190
65
26
190
65
26
190
65
26
190
65
26
190
65
26
190
65
26
190
65
26
190
96
21
159
96
21
159
96
21
159
96
21
159
96
21
159
96
21
159
96
21
159
96
21
159
96
21
159
96
21
159
96
21
159
96
21
159
96
21
159
74
24
181
74
24
181
74
24
181
74
24
181
74
24
181
74
24
181
74
24
181
74
24
181
74
24
181
145
15
110
17
32
238
17
32
238
17
32
238
17
32
238
17
32
238
13
33
242
13
33
242
13
33
242
102
21
153
102
21
153
102
21
153
102
21
153
102
21
153
102
21
153
102
21
153
102
21
153
145
15
110
145
15
110
145
15
110
145
15
110
31
30
224
34
30
221
34
30
221
34
30
221
34
30
221
34
30
221
65
26
190
65
26
190
65
26
190
65
26
190
65
26
190
65
26
190
65
26
190
65
26
190
65
26
190
65
26
190
65
26
190
65
26
190
65
26
190
65
26
190
65
26
190
96
21
159
96
21
159
96
21
159
96
21
159
96
21
159
96
21
159
96
21
159
96
21
159
96
21
159
96
21
159
96
21
159
96
21
159
74
24
181
74
24
181
74
24
181
74
24
181
74
24
181
74
24
181
74
24
181
74
24
181
74
24
181
74
24
181
17
32
238
17
32
238
17
32
238
17
32
238
17
32
238
17
32
238
17
32
238
13
33
242
102
21
153
102
21
153
102
21
153
102
21
153
102
21
153
102
21
153
102
21
153
102
21
153
102
21
153
145
15
110
145
15
110
145
15
110
71
25
184
34
30
221
34
30
221
34
30
221
34
30
221
119
18
136
119
18
136
65
26
190
65
26
190
65
26
190
65
26
190
65
26
190
65
26
190
65
26
190
65
26
190
65
26
190
65
26
190
65
26
190
65
26
190
65
26
190
65
26
190
65
26
190
96
21
159
96
21
159
96
21
159
96
21
159
96
21
159
96
21
159
96
21
159
96
21
159
96
21
159
96
21
159
96
21
159
96
21
159
74
24
181
74
24
181
74
24
181
74
24
181
74
24
181
74
24
181
74
24
181
74
24
181
74
24
181
74
24
181
17
32
238
17
32
238
17
32
238
17
32
238
17
32
238
17
32
238
17
32
238
102
21
153
102
21
153
145
15
110
145
15
110
102
21
153
102
21
153
102
21
153
102
21
153
102
21
153
102
21
153
102
21
153
145
15
110
71
25
184
31
30
224
34
30
221
34
30
221
119
18
136
119
18
136
119
18
136
119
18
136
119
18
136
65
26
190
65
26
190
65
26
190
65
26
190
65
26
190
65
26
190
65
26
190
65
26
190
65
26
190
65
26
190
65
26
190
65
26
190
65
26
190
65
26
190
96
21
159
96
21
159
96
21
159
96
21
159
96
21
159
96
21
159
96
21
159
96
21
159
96
21
159
96
21
159
96
21
159
74
24
181
74
24
181
74
24
181
74
24
181
74
24
181
17
32
238
17
32
238
17
32
238
17
32
238
17
32
238
17
32
238
17
32
238
17
32
238
17
32
238
17
32
238
17
32
238
17
32
238
17
32
238
17
32
238
17
32
238
17
32
238
17
32
238
17
32
238
17
32
238
102
21
153
102
21
153
102
21
153
102
21
153
102
21
153
71
25
184
71
25
184
34
30
221
34
30
221
34
30
221
34
30
221
34
30
221
34
30
221
65
26
190
65
26
190
65
26
190
65
26
190
65
26
190
65
26
190
65
26
190
65
26
190
65
26
190
65
26
190
65
26
190
65
26
190
65
26
190
65
26
190
65
26
190
65
26
190
96
21
159
96
21
159
96
21
159
96
21
159
96
21
159
96
21
159
96
21
159
96
21
159
96
21
159
96
21
159
96
21
159
74
24
181
17
32
238
17
32
238
17
32
238
17
32
238
17
32
238
17
32
238
17
32
238
17
32
238
17
32
238
17
32
238
17
32
238
17
32
238
17
32
238
17
32
238
17
32
238
17
32
238
17
32
238
17
32
238
17
32
238
17
32
238
17
32
238
17
32
238
17
32
238
17
32
238
17
32
238
17
32
238
17
32
238
142
15
113
142
15
113
34
30
221
34
30
221
34
30
221
71
25
184
71
25
184
71
25
184
65
26
190
65
26
190
65
26
190
65
26
190
65
26
190
65
26
190
65
26
190
65
26
190
65
26
190
65
26
190
65
26
190
65
26
190
65
26
190
65
26
190
65
26
190
65
26
190
65
26
190
74
24
181
74
24
181
74
24
181
74
24
181
74
24
181
74
24
181
74
24
181
74
24
181
74
24
181
74
24
181
74
24
181
74
24
181
74
24
181
17
32
238
17
32
238
17
32
238
17
32
238
17
32
238
17
32
238
17
32
238
17
32
238
17
32
238
17
32
238
17
32
238
17
32
238
17
32
238
17
32
238
17
32
238
17
32
238
17
32
238
17
32
238
17
32
238
17
32
238
17
32
238
17
32
238
17
32
238
17
32
238
17
32
238
145
15
110
142
15
113
142
15
113
142
15
113
142
15
113
145
15
110
145
15
110
65
26
190
65
26
190
65
26
190
65
26
190
65
26
190
65
26
190
65
26
190
65
26
190
65
26
190
65
26
190
65
26
190
65
26
190
65
26
190
65
26
190
65
26
190
65
26
190
65
26
190
65
26
190
65
26
190
74
24
181
74
24
181
74
24
181
74
24
181
74
24
181
74
24
181
74
24
181
74
24
181
74
24
181
74
24
181
74
24
181
74
24
181
74
24
181
74
24
181
17
32
238
17
32
238
17
32
238
17
32
238
17
32
238
17
32
238
17
32
238
17
32
238
17
32
238
17
32
238
17
32
238
17
32
238
17
32
238
142
15
113
17
32
238
17
32
238
17
32
238
17
32
238
17
32
238
17
32
238
17
32
238
17
32
238
17
32
238
145
15
110
142
15
113
142
15
113
142
15
113
142
15
113
142
15
113
65
26
190
65
26
190
65
26
190
65
26
190
65
26
190
65
26
190
65
26
190
65
26
190
65
26
190
65
26
190
65
26
190
65
26
190
65
26
190
65
26
190
65
26
190
65
26
190
65
26
190
65
26
190
65
26
190
65
26
190
65
26
190
74
24
181
74
24
181
74
24
181
74
24
181
74
24
181
74
24
181
74
24
181
74
24
181
74
24
181
74
24
181
74
24
181
74
24
181
74
24
181
74
24
181
74
24
181
74
24
181
17
32
238
17
32
238
17
32
238
17
32
238
17
32
238
17
32
238
17
32
238
17
32
238
17
32
238
17
32
238
17
32
238
142
15
113
142
15
113
142
15
113
142
15
113
142
15
113
17
32
238
17
32
238
17
32
238
74
24
181
74
24
181
142
15
113
142
15
113
142
15
113
142
15
113
142
15
113
65
26
190
65
26
190
65
26
190
65
26
190
65
26
190
65
26
190
65
26
190
65
26
190
65
26
190
65
26
190
65
26
190
65
26
190
65
26
190
65
26
190
65
26
190
65
26
190
65
26
190
65
26
190
65
26
190
65
26
190
65
26
190
65
26
190
74
24
181
74
24
181
74
24
181
74
24
181
74
24
181
74
24
181
74
24
181
74
24
181
74
24
181
74
24
181
74
24
181
74
24
181
74
24
181
74
24
181
74
24
181
74
24
181
74
24
181
17
32
238
17
32
238
17
32
238
17
32
238
17
32
238
17
32
238
17
32
238
17
32
238
17
32
238
17
32
238
17
32
238
142
15
113
142
15
113
142
15
113
142
15
113
142
15
113
142
15
113
142
15
113
142
15
113
142
15
113
142
15
113
142
15
113
142
15
113
65
26
190
65
26
190
65
26
190
65
26
190
65
26
190
65
26
190
65
26
190
65
26
190
65
26
190
65
26
190
65
26
190
65
26
190
65
26
190
65
26
190
65
26
190
65
26
190
65
26
190
65
26
190
65
26
190
65
26
190
65
26
190
65
26
190
65
26
190
65
26
190
74
24
181
74
24
181
74
24
181
74
24
181
74
24
181
74
24
181
74
24
181
74
24
181
74
24
181
74
24
181
74
24
181
74
24
181
74
24
181
74
24
181
74
24
181
74
24
181
74
24
181
74
24
181
17
32
238
17
32
238
17
32
238
17
32
238
17
32
238
17
32
238
17
32
238
17
32
238
17
32
238
17
32
238
17
32
238
142
15
113
142
15
113
142
15
113
142
15
113
142
15
113
142
15
113
142
15
113
142
15
113
142
15
113
142
15
113
65
26
190
65
26
190
65
26
190
65
26
190
65
26
190
65
26
190
65
26
190
65
26
190
65
26
190
65
26
190
65
26
190
65
26
190
65
26
190
65
26
190
65
26
190
65
26
190
65
26
190
65
26
190
65
26
190
65
26
190
65
26
190
65
26
190
65
26
190
65
26
190
65
26
190
74
24
181
74
24
181
74
24
181
74
24
181
74
24
181
74
24
181
74
24
181
74
24
181
74
24
181
74
24
181
74
24
181
74
24
181
74
24
181
74
24
181
74
24
181
74
24
181
74
24
181
74
24
181
74
24
181
17
32
238
17
32
238
17
32
238
17
32
238
17
32
238
17
32
238
17
32
238
17
32
238
17
32
238
17
32
238
142
15
113
142
15
113
142
15
113
142
15
113
142
15
113
142
15
113
142
15
113
142
15
113
65
26
190
65
26
190
65
26
190
65
26
190
65
26
190
65
26
190
65
26
190
65
26
190
65
26
190
65
26
190
65
26
190
65
26
190
65
26
190
65
26
190
65
26
190
65
26
190
65
26
190
65
26
190
65
26
190
65
26
190
65
26
190
65
26
190
65
26
190
65
26
190
65
26
190
65
26
190
65
26
190
96
21
159
74
24
181
74
24
181
74
24
181
74
24
181
74
24
181
74
24
181
74
24
181
74
24
181
74
24
181
74
24
181
74
24
181
74
24
181
74
24
181
74
24
181
74
24
181
74
24
181
74
24
181
74
24
181
17
32
238
17
32
238
17
32
238
17
32
238
17
32
238
17
32
238
17
32
238
17
32
238
17
32
238
17
32
238
17
32
238
142
15
113
142
15
113
142
15
113
142
15
113
142
15
113
65
26
190
65
26
190
65
26
190
65
26
190
65
26
190
65
26
190
65
26
190
65
26
190
65
26
190
65
26
190
65
26
190
65
26
190
65
26
190
65
26
190
65
26
190
65
26
190
65
26
190
65
26
190
65
26
190
65
26
190
65
26
190
65
26
190
65
26
190
65
26
190
65
26
190
65
26
190
65
26
190
65
26
190
65
26
190
96
21
159
96
21
159
74
24
181
74
24
181
74
24
181
74
24
181
74
24
181
74
24
181
74
24
181
74
24
181
74
24
181
74
24
181
74
24
181
74
24
181
74
24
181
74
24
181
74
24
181
74
24
181
74
24
181
17
32
238
17
32
238
17
32
238
17
32
238
17
32
238
17
32
238
17
32
238
17
32
238
17
32
238
17
32
238
17
32
238
17
32
238
142
15
113
142
15
113
142
15
113
142
15
113
142
15
113
164
12
91
164
12
91
65
26
190
65
26
190
65
26
190
65
26
190
65
26
190
65
26
190
65
26
190
65
26
190
65
26
190
65
26
190
65
26
190
65
26
190
65
26
190
65
26
190
65
26
190
65
26
190
65
26
190
65
26
190
65
26
190
65
26
190
65
26
190
65
26
190
65
26
190
65
26
190
65
26
190
65
26
190
96
21
159
96
21
159
96
21
159
74
24
181
74
24
181
74
24
181
74
24
181
74
24
181
74
24
181
74
24
181
74
24
181
74
24
181
74
24
181
74
24
181
74
24
181
74
24
181
74
24
181
74
24
181
17
32
238
17
32
238
17
32
238
17
32
238
17
32
238
17
32
238
17
32
238
17
32
238
17
32
238
17
32
238
17
32
238
17
32
238
17
32
238
142
15
113
142
15
113
142
15
113
142
15
113
142
15
113
164
12
91
164
12
91
164
12
91
164
12
91
164
12
91
164
12
91
164
12
91
65
26
190
65
26
190
65
26
190
65
26
190
65
26
190
65
26
190
65
26
190
65
26
190
65
26
190
65
26
190
65
26
190
65
26
190
65
26
190
65
26
190
65
26
190
65
26
190
65
26
190
65
26
190
65
26
190
65
26
190
65
26
190
96
21
159
96
21
159
96
21
159
96
21
159
74
24
181
74
24
181
74
24
181
74
24
181
74
24
181
74
24
181
74
24
181
74
24
181
74
24
181
74
24
181
74
24
181
74
24
181
74
24
181
74
24
181
17
32
238
17
32
238
17
32
238
17
32
238
17
32
238
17
32
238
243
2
12
243
2
12
243
2
12
243
2
12
243
2
12
243
2
12
243
2
12
243
2
12
142
15
113
142
15
113
142
15
113
142
15
113
142
15
113
142
15
113
142
15
113
142
15
113
164
12
91
164
12
91
164
12
91
164
12
91
164
12
91
164
12
91
164
12
91
65
26
190
65
26
190
65
26
190
65
26
190
65
26
190
65
26
190
65
26
190
65
26
190
65
26
190
65
26
190
65
26
190
65
26
190
65
26
190
65
26
190
65
26
190
65
26
190
65
26
190
