P3
# Created by GIMP version 2.10.30 PNM plug-in
64 64
255
0
255
159
0
255
159
0
255
159
0
255
159
0
255
159
28
220
152
38
190
146
38
190
146
28
220
152
28
220
152
0
255
159
0
255
159
28
220
152
38
190
146
38
190
146
28
220
152
28
220
152
28
220
152
28
220
152
38
190
146
38
190
146
24
228
153
24
228
153
24
228
153
24
228
153
22
230
154
22
230
154
22
230
154
22
230
154
0
255
159
22
230
154
22
230
154
22
230
154
22
230
154
0
255
159
0
255
159
0
255
159
22
230
154
22
230
154
22
230
154
22
230
154
0
255
159
0
255
159
0
255
159
22
230
154
22
230
154
22
230
154
22
230
154
22
230
154
24
228
153
0
255
159
0
255
159
0
255
159
24
228
153
24
228
153
22
230
154
22
230
154
0
255
159
22
230
154
22
230
154
0
255
159
0
255
159
0
255
159
0
255
159
0
255
159
0
255
159
0
255
159
0
255
159
0
255
159
0
255
159
0
255
159
0
255
159
0
255
159
0
255
159
0
255
159
0
255
159
0
255
159
38
190
146
34
202
148
26
223
152
28
220
152
28
220
152
28
220
152
38
190
146
34
202
148
30
215
151
24
228
153
24
228
153
24
228
153
24
228
153
24
228
153
22
230
154
22
230
154
0
255
159
22
230
154
22
230
154
22
230
154
22
230
154
0
255
159
0
255
159
0
255
159
22
230
154
22
230
154
22
230
154
22
230
154
0
255
159
0
255
159
22
230
154
22
230
154
22
230
154
22
230
154
22
230
154
22
230
154
0
255
159
0
255
159
0
255
159
0
255
159
0
255
159
24
228
153
22
230
154
22
230
154
0
255
159
22
230
154
0
255
159
22
230
154
22
230
154
0
255
159
0
255
159
0
255
159
0
255
159
0
255
159
0
255
159
0
255
159
0
255
159
0
255
159
0
255
159
0
255
159
0
255
159
0
255
159
0
255
159
0
255
159
26
223
152
34
202
148
26
223
152
28
220
152
26
223
152
26
223
152
28
220
152
26
223
152
22
230
154
0
255
159
22
230
154
22
230
154
0
255
159
24
228
153
22
230
154
30
215
151
30
215
151
33
206
149
33
206
149
22
230
154
0
255
159
0
255
159
0
255
159
0
255
159
30
215
151
33
206
149
33
206
149
24
228
153
0
255
159
24
228
153
22
230
154
22
230
154
0
255
159
22
230
154
22
230
154
0
255
159
0
255
159
0
255
159
22
230
154
0
255
159
0
255
159
24
228
153
0
255
159
0
255
159
0
255
159
0
255
159
22
230
154
24
228
153
24
228
153
22
230
154
0
255
159
0
255
159
0
255
159
0
255
159
0
255
159
0
255
159
0
255
159
0
255
159
0
255
159
38
190
146
38
190
146
28
220
152
0
255
159
0
255
159
0
255
159
34
202
148
21
232
154
23
230
154
21
232
154
21
232
154
21
232
154
21
232
154
21
232
154
22
230
154
21
232
154
22
230
154
22
230
154
22
230
154
22
230
154
22
230
154
24
228
153
24
228
153
22
230
154
0
255
159
0
255
159
0
255
159
0
255
159
0
255
159
30
215
151
30
215
151
0
255
159
0
255
159
0
255
159
24
228
153
30
215
151
30
215
151
0
255
159
22
230
154
22
230
154
0
255
159
0
255
159
24
228
153
22
230
154
0
255
159
0
255
159
22
230
154
0
255
159
0
255
159
0
255
159
0
255
159
22
230
154
22
230
154
24
228
153
26
223
152
34
202
148
0
255
159
0
255
159
0
255
159
0
255
159
0
255
159
0
255
159
0
255
159
0
255
159
28
220
152
38
190
146
38
190
146
0
255
159
26
223
152
0
255
159
0
255
159
21
232
154
21
232
154
21
232
154
21
232
154
21
232
154
21
232
154
29
218
152
21
232
154
23
230
154
21
232
154
21
232
154
21
232
154
20
234
155
20
234
155
21
232
154
21
232
154
20
234
155
0
255
159
0
255
159
0
255
159
0
255
159
0
255
159
30
215
151
0
255
159
0
255
159
0
255
159
30
215
151
33
206
149
30
215
151
30
215
151
0
255
159
22
230
154
0
255
159
0
255
159
30
215
151
24
228
153
0
255
159
0
255
159
0
255
159
22
230
154
0
255
159
0
255
159
0
255
159
0
255
159
22
230
154
22
230
154
22
230
154
26
223
152
34
202
148
0
255
159
0
255
159
38
190
146
28
220
152
28
220
152
38
190
146
28
220
152
0
255
159
0
255
159
0
255
159
0
255
159
28
220
152
25
225
153
0
255
159
0
255
159
29
218
152
21
232
154
0
255
159
0
255
159
21
232
154
21
232
154
0
255
159
21
232
154
29
218
152
23
230
154
20
234
155
20
234
155
0
255
159
20
234
155
21
232
154
21
232
154
21
232
154
20
234
155
0
255
159
0
255
159
0
255
159
0
255
159
0
255
159
0
255
159
0
255
159
0
255
159
28
219
152
21
233
154
30
215
151
0
255
159
0
255
159
0
255
159
0
255
159
28
219
152
21
233
154
0
255
159
0
255
159
0
255
159
0
255
159
0
255
159
0
255
159
0
255
159
22
230
154
0
255
159
22
230
154
22
230
154
22
230
154
0
255
159
0
255
159
28
220
152
38
190
146
0
255
159
28
220
152
28
220
152
38
190
146
28
220
152
28
220
152
0
255
159
0
255
159
0
255
159
24
228
153
24
228
153
0
255
159
0
255
159
27
221
152
20
234
155
20
234
155
0
255
159
21
232
154
21
232
154
20
234
155
0
255
159
0
255
159
0
255
159
19
236
155
20
234
155
0
255
159
20
234
155
19
236
155
19
236
155
19
236
155
20
234
155
0
255
159
0
255
159
0
255
159
0
255
159
0
255
159
0
255
159
0
255
159
28
219
152
28
219
152
28
219
152
0
255
159
0
255
159
0
255
159
0
255
159
0
255
159
21
233
154
21
233
154
21
233
154
0
255
159
0
255
159
0
255
159
0
255
159
0
255
159
0
255
159
0
255
159
0
255
159
22
230
154
22
230
154
24
228
153
0
255
159
0
255
159
28
220
152
38
190
146
0
255
159
0
255
159
28
220
152
28
220
152
28
220
152
28
220
152
28
220
152
26
224
152
0
255
159
0
255
159
0
255
159
0
255
159
0
255
159
0
255
159
30
214
151
27
221
152
0
255
159
20
234
155
20
234
155
20
235
155
0
255
159
0
255
159
0
255
159
19
237
155
19
236
155
0
255
159
19
237
155
19
237
155
25
226
153
26
224
152
0
255
159
0
255
159
0
255
159
0
255
159
0
255
159
0
255
159
0
255
159
0
255
159
20
233
155
0
255
159
0
255
159
0
255
159
0
255
159
0
255
159
0
255
159
0
255
159
0
255
159
0
255
159
0
255
159
0
255
159
21
233
154
22
230
154
22
230
154
22
230
154
22
230
154
22
230
154
0
255
159
0
255
159
0
255
159
24
228
153
28
220
152
0
255
159
28
220
152
28
220
152
0
255
159
0
255
159
28
220
152
28
220
152
28
220
152
26
224
152
26
224
152
25
227
153
25
227
153
24
228
153
0
255
159
0
255
159
0
255
159
25
225
153
21
232
154
0
255
159
20
234
155
0
255
159
20
234
155
19
237
155
18
237
155
18
237
155
0
255
159
0
255
159
0
255
159
0
255
159
0
255
159
19
235
155
18
237
155
25
226
153
0
255
159
0
255
159
0
255
159
0
255
159
0
255
159
0
255
159
20
233
155
0
255
159
0
255
159
0
255
159
0
255
159
21
233
154
0
255
159
0
255
159
27
220
152
0
255
159
0
255
159
0
255
159
0
255
159
0
255
159
0
255
159
22
230
154
22
230
154
0
255
159
22
230
154
22
230
154
0
255
159
22
230
154
22
230
154
22
230
154
28
220
152
0
255
159
0
255
159
0
255
159
0
255
159
0
255
159
28
220
152
28
220
152
25
227
153
25
227
153
25
227
153
24
228
153
24
228
153
0
255
159
0
255
159
0
255
159
0
255
159
24
228
153
21
232
154
21
232
154
0
255
159
0
255
159
26
223
153
18
237
155
0
255
159
0
255
159
0
255
159
0
255
159
0
255
159
0
255
159
0
255
159
0
255
159
0
255
159
24
226
153
0
255
159
0
255
159
0
255
159
0
255
159
0
255
159
21
233
154
0
255
159
0
255
159
0
255
159
0
255
159
20
233
155
0
255
159
0
255
159
0
255
159
0
255
159
20
233
155
0
255
159
0
255
159
0
255
159
0
255
159
0
255
159
0
255
159
22
230
154
22
230
154
22
230
154
22
230
154
0
255
159
22
230
154
22
230
154
22
230
154
26
223
152
0
255
159
28
220
152
28
220
152
0
255
159
0
255
159
26
223
152
26
223
152
26
224
152
26
224
152
25
225
153
25
225
153
24
228
153
24
228
153
0
255
159
0
255
159
0
255
159
0
255
159
27
221
152
26
223
153
21
233
155
0
255
159
0
255
159
25
224
153
19
235
155
0
255
159
0
255
159
0
255
159
0
255
159
0
255
159
0
255
159
0
255
159
0
255
159
0
255
159
0
255
159
0
255
159
0
255
159
0
255
159
0
255
159
0
255
159
0
255
159
0
255
159
0
255
159
20
233
155
20
233
155
0
255
159
0
255
159
0
255
159
0
255
159
20
233
155
20
233
155
20
233
155
20
233
155
20
233
155
0
255
159
0
255
159
0
255
159
22
230
154
22
230
154
22
230
154
0
255
159
22
230
154
0
255
159
22
230
154
26
223
152
0
255
159
28
220
152
28
220
152
34
202
148
0
255
159
0
255
159
0
255
159
0
255
159
0
255
159
25
225
153
25
225
153
25
225
153
25
225
153
0
255
159
0
255
159
0
255
159
0
255
159
0
255
159
0
255
159
0
255
159
0
255
159
0
255
159
0
255
159
0
255
159
18
237
155
18
237
155
18
237
155
0
255
159
0
255
159
0
255
159
0
255
159
0
255
159
0
255
159
0
255
159
0
255
159
0
255
159
0
255
159
0
255
159
0
255
159
0
255
159
0
255
159
0
255
159
0
255
159
0
255
159
27
220
152
0
255
159
0
255
159
20
233
155
20
233
155
20
233
155
20
233
155
20
233
155
20
233
155
20
233
155
0
255
159
22
230
154
22
230
154
22
230
154
0
255
159
0
255
159
0
255
159
30
215
151
34
202
148
26
223
152
0
255
159
38
190
146
28
220
152
26
223
152
0
255
159
0
255
159
0
255
159
0
255
159
0
255
159
0
255
159
0
255
159
0
255
159
0
255
159
0
255
159
0
255
159
0
255
159
0
255
159
0
255
159
0
255
159
0
255
159
0
255
159
20
234
155
19
236
155
0
255
159
18
237
155
18
237
155
0
255
159
24
227
153
18
237
155
24
226
153
18
237
155
0
255
159
0
255
159
0
255
159
0
255
159
0
255
159
0
255
159
0
255
159
0
255
159
0
255
159
0
255
159
0
255
159
0
255
159
0
255
159
20
233
155
0
255
159
27
220
152
27
220
152
20
233
155
20
233
155
0
255
159
20
233
155
20
233
155
20
233
155
0
255
159
22
231
154
22
231
154
0
255
159
0
255
159
0
255
159
0
255
159
34
202
148
34
202
148
26
223
152
0
255
159
28
220
152
28
220
152
0
255
159
0
255
159
0
255
159
0
255
159
0
255
159
0
255
159
0
255
159
0
255
159
0
255
159
0
255
159
0
255
159
0
255
159
22
231
154
22
231
154
19
236
155
16
240
156
22
231
154
22
231
154
16
240
156
16
240
156
0
255
159
0
255
159
17
239
156
0
255
159
24
227
153
17
239
156
18
237
155
16
240
156
0
255
159
0
255
159
0
255
159
0
255
159
0
255
159
0
255
159
0
255
159
0
255
159
0
255
159
0
255
159
0
255
159
27
221
152
27
220
152
0
255
159
0
255
159
20
233
155
20
233
155
20
233
155
20
233
155
20
233
155
20
233
155
27
220
152
20
233
155
0
255
159
0
255
159
0
255
159
0
255
159
0
255
159
0
255
159
0
255
159
34
202
148
34
202
148
26
223
152
26
223
152
28
220
152
28
220
152
25
227
153
0
255
159
0
255
159
0
255
159
21
231
154
0
255
159
0
255
159
0
255
159
0
255
159
0
255
159
0
255
159
0
255
159
0
255
159
0
255
159
0
255
159
16
240
156
22
231
154
16
240
156
16
240
156
16
240
156
16
240
156
0
255
159
0
255
159
16
240
156
0
255
159
16
240
156
16
240
156
0
255
159
0
255
159
0
255
159
0
255
159
0
255
159
0
255
159
0
255
159
23
228
154
17
238
156
0
255
159
0
255
159
0
255
159
20
234
155
20
234
155
0
255
159
0
255
159
0
255
159
20
233
155
20
233
155
20
233
155
0
255
159
20
233
155
20
233
155
20
233
155
0
255
159
0
255
159
0
255
159
0
255
159
22
231
154
22
231
154
0
255
159
0
255
159
26
223
152
26
223
152
0
255
159
0
255
159
0
255
159
0
255
159
0
255
159
21
231
154
0
255
159
0
255
159
0
255
159
21
232
154
21
233
155
21
233
155
21
233
155
21
233
155
21
233
155
21
233
155
28
220
152
0
255
159
0
255
159
0
255
159
16
240
156
16
240
156
16
240
156
16
240
156
17
239
156
0
255
159
0
255
159
0
255
159
16
240
156
16
240
156
0
255
159
0
255
159
0
255
159
0
255
159
0
255
159
0
255
159
23
228
154
24
228
153
17
238
156
0
255
159
0
255
159
20
234
155
20
234
155
20
234
155
20
234
155
0
255
159
20
233
155
20
233
155
20
233
155
0
255
159
20
233
155
20
233
155
20
233
155
20
233
155
0
255
159
0
255
159
0
255
159
0
255
159
22
231
154
22
231
154
0
255
159
0
255
159
0
255
159
0
255
159
0
255
159
28
220
152
0
255
159
0
255
159
21
231
154
29
216
151
23
229
153
0
255
159
0
255
159
0
255
159
21
232
154
21
233
155
21
233
155
21
233
155
21
233
155
21
233
155
21
233
155
21
233
155
19
236
155
0
255
159
0
255
159
16
240
156
16
240
156
17
239
156
17
239
156
16
240
156
0
255
159
0
255
159
16
240
156
0
255
159
0
255
159
16
241
156
0
255
159
0
255
159
0
255
159
0
255
159
17
238
156
17
238
156
17
238
156
0
255
159
0
255
159
20
234
155
20
234
155
0
255
159
0
255
159
0
255
159
0
255
159
20
233
155
22
231
154
22
231
154
20
233
155
20
233
155
20
233
155
0
255
159
0
255
159
0
255
159
22
231
154
22
231
154
22
231
154
22
231
154
0
255
159
0
255
159
0
255
159
0
255
159
26
223
152
28
220
152
0
255
159
0
255
159
21
231
154
21
231
154
0
255
159
0
255
159
0
255
159
0
255
159
21
232
154
21
233
155
21
233
155
21
233
155
21
233
155
0
255
159
0
255
159
0
255
159
21
232
154
0
255
159
0
255
159
0
255
159
0
255
159
0
255
159
17
239
156
16
240
156
16
240
156
0
255
159
0
255
159
0
255
159
16
241
156
16
241
156
0
255
159
0
255
159
0
255
159
0
255
159
0
255
159
0
255
159
0
255
159
0
255
159
0
255
159
0
255
159
20
234
155
0
255
159
0
255
159
0
255
159
0
255
159
0
255
159
0
255
159
0
255
159
0
255
159
0
255
159
0
255
159
0
255
159
0
255
159
0
255
159
30
215
151
29
217
151
0
255
159
0
255
159
0
255
159
0
255
159
0
255
159
0
255
159
0
255
159
0
255
159
0
255
159
23
230
154
21
231
154
21
231
154
0
255
159
0
255
159
0
255
159
0
255
159
0
255
159
0
255
159
21
233
155
21
233
155
28
220
152
28
220
152
28
220
152
21
233
155
22
231
154
0
255
159
0
255
159
0
255
159
0
255
159
0
255
159
0
255
159
0
255
159
0
255
159
0
255
159
0
255
159
0
255
159
16
241
156
0
255
159
0
255
159
0
255
159
0
255
159
0
255
159
0
255
159
0
255
159
0
255
159
0
255
159
0
255
159
0
255
159
0
255
159
0
255
159
0
255
159
0
255
159
0
255
159
0
255
159
0
255
159
0
255
159
0
255
159
0
255
159
0
255
159
0
255
159
0
255
159
0
255
159
0
255
159
0
255
159
22
231
154
26
224
153
26
224
153
26
224
153
34
205
149
26
223
152
0
255
159
0
255
159
0
255
159
23
230
154
21
231
154
29
216
151
23
229
153
0
255
159
0
255
159
0
255
159
0
255
159
0
255
159
0
255
159
0
255
159
0
255
159
0
255
159
0
255
159
28
220
152
30
214
151
26
225
153
0
255
159
0
255
159
0
255
159
0
255
159
0
255
159
0
255
159
0
255
159
16
241
156
16
241
156
0
255
159
0
255
159
22
232
154
0
255
159
0
255
159
0
255
159
0
255
159
0
255
159
0
255
159
0
255
159
0
255
159
0
255
159
0
255
159
0
255
159
0
255
159
0
255
159
0
255
159
0
255
159
0
255
159
0
255
159
0
255
159
0
255
159
0
255
159
0
255
159
22
232
154
0
255
159
0
255
159
0
255
159
22
231
154
0
255
159
29
217
151
22
231
154
22
231
154
29
217
151
0
255
159
0
255
159
0
255
159
0
255
159
23
230
154
0
255
159
0
255
159
0
255
159
0
255
159
0
255
159
0
255
159
0
255
159
0
255
159
21
233
155
0
255
159
0
255
159
0
255
159
0
255
159
0
255
159
0
255
159
19
236
155
19
236
155
0
255
159
19
236
155
0
255
159
0
255
159
0
255
159
0
255
159
0
255
159
16
241
156
0
255
159
0
255
159
22
232
154
0
255
159
0
255
159
0
255
159
0
255
159
0
255
159
0
255
159
0
255
159
0
255
159
0
255
159
0
255
159
19
235
155
19
235
155
19
235
155
19
235
155
0
255
159
0
255
159
0
255
159
0
255
159
0
255
159
0
255
159
22
232
154
22
232
154
22
232
154
0
255
159
0
255
159
22
231
154
22
231
154
22
231
154
22
231
154
22
231
154
29
217
151
0
255
159
0
255
159
0
255
159
0
255
159
34
202
148
0
255
159
0
255
159
0
255
159
0
255
159
0
255
159
0
255
159
0
255
159
0
255
159
22
230
154
21
233
155
21
233
155
28
220
152
0
255
159
0
255
159
0
255
159
0
255
159
0
255
159
0
255
159
19
236
155
16
240
156
0
255
159
16
240
156
16
241
156
0
255
159
0
255
159
0
255
159
16
241
156
22
232
154
0
255
159
0
255
159
0
255
159
0
255
159
0
255
159
16
240
156
0
255
159
0
255
159
0
255
159
0
255
159
20
235
155
19
235
155
19
235
155
19
235
155
0
255
159
0
255
159
0
255
159
0
255
159
0
255
159
27
222
152
28
218
151
22
232
154
22
232
154
0
255
159
0
255
159
0
255
159
22
230
154
30
215
151
29
217
151
22
231
154
22
231
154
0
255
159
0
255
159
0
255
159
0
255
159
23
230
154
23
230
154
23
230
154
0
255
159
0
255
159
0
255
159
0
255
159
0
255
159
0
255
159
21
232
154
21
232
154
0
255
159
0
255
159
0
255
159
0
255
159
0
255
159
0
255
159
0
255
159
0
255
159
0
255
159
16
240
156
16
240
156
16
240
156
16
241
156
16
240
156
0
255
159
0
255
159
16
240
156
22
231
154
0
255
159
0
255
159
0
255
159
18
237
155
22
229
154
16
239
156
0
255
159
0
255
159
0
255
159
16
240
156
18
237
155
0
255
159
0
255
159
0
255
159
0
255
159
0
255
159
0
255
159
0
255
159
20
235
155
0
255
159
27
220
152
21
233
155
21
232
155
0
255
159
22
231
154
0
255
159
0
255
159
29
217
151
23
229
154
23
229
154
0
255
159
0
255
159
0
255
159
23
230
154
23
230
154
23
230
154
23
230
154
23
230
154
0
255
159
0
255
159
0
255
159
0
255
159
0
255
159
0
255
159
28
218
151
0
255
159
0
255
159
0
255
159
21
232
154
0
255
159
0
255
159
21
232
154
21
232
154
19
235
155
0
255
159
0
255
159
16
240
156
16
240
156
16
240
156
0
255
159
0
255
159
16
240
156
16
240
156
16
240
156
0
255
159
0
255
159
0
255
159
18
237
155
0
255
159
0
255
159
0
255
159
0
255
159
0
255
159
19
237
155
24
227
153
0
255
159
0
255
159
0
255
159
0
255
159
0
255
159
0
255
159
19
237
155
0
255
159
0
255
159
26
223
152
20
234
155
20
234
155
0
255
159
0
255
159
0
255
159
20
233
155
0
255
159
20
233
155
0
255
159
0
255
159
0
255
159
22
231
154
23
230
154
23
230
154
23
230
154
23
230
154
23
230
154
23
230
154
21
232
154
0
255
159
0
255
159
0
255
159
0
255
159
0
255
159
0
255
159
0
255
159
0
255
159
0
255
159
0
255
159
0
255
159
0
255
159
0
255
159
0
255
159
0
255
159
0
255
159
0
255
159
0
255
159
18
238
155
0
255
159
0
255
159
22
231
154
18
238
155
16
240
156
0
255
159
0
255
159
0
255
159
0
255
159
0
255
159
0
255
159
0
255
159
0
255
159
0
255
159
0
255
159
0
255
159
0
255
159
0
255
159
0
255
159
0
255
159
18
237
156
18
237
155
0
255
159
0
255
159
0
255
159
20
234
155
20
234
155
20
234
155
20
234
155
0
255
159
0
255
159
0
255
159
0
255
159
27
220
152
0
255
159
0
255
159
22
231
154
22
231
154
0
255
159
23
230
154
31
213
151
23
230
154
23
230
154
0
255
159
0
255
159
0
255
159
0
255
159
0
255
159
0
255
159
0
255
159
0
255
159
0
255
159
0
255
159
0
255
159
0
255
159
0
255
159
0
255
159
0
255
159
0
255
159
0
255
159
0
255
159
0
255
159
0
255
159
0
255
159
0
255
159
20
235
155
25
225
153
19
236
155
16
240
156
0
255
159
0
255
159
0
255
159
15
241
156
0
255
159
0
255
159
0
255
159
0
255
159
0
255
159
18
237
156
0
255
159
0
255
159
0
255
159
0
255
159
0
255
159
18
237
156
0
255
159
0
255
159
0
255
159
0
255
159
22
232
154
22
232
154
22
232
154
22
231
154
20
233
155
20
233
155
0
255
159
0
255
159
0
255
159
0
255
159
26
224
153
22
231
154
0
255
159
0
255
159
0
255
159
31
213
151
23
230
154
23
230
154
0
255
159
0
255
159
0
255
159
0
255
159
0
255
159
0
255
159
0
255
159
0
255
159
0
255
159
0
255
159
0
255
159
0
255
159
0
255
159
0
255
159
21
232
154
21
232
154
0
255
159
0
255
159
0
255
159
0
255
159
0
255
159
0
255
159
0
255
159
0
255
159
0
255
159
0
255
159
0
255
159
0
255
159
0
255
159
15
241
156
21
232
154
0
255
159
0
255
159
0
255
159
0
255
159
18
237
156
20
234
155
0
255
159
0
255
159
0
255
159
0
255
159
0
255
159
0
255
159
0
255
159
21
232
154
21
232
154
22
232
154
22
232
154
22
232
154
22
232
154
24
227
153
24
227
153
0
255
159
0
255
159
0
255
159
0
255
159
24
227
153
26
224
153
0
255
159
23
230
154
0
255
159
23
230
154
23
230
154
23
230
154
0
255
159
0
255
159
0
255
159
0
255
159
0
255
159
0
255
159
0
255
159
0
255
159
0
255
159
0
255
159
0
255
159
0
255
159
0
255
159
0
255
159
21
232
154
0
255
159
0
255
159
28
220
152
28
220
152
0
255
159
0
255
159
19
236
155
19
236
155
0
255
159
19
236
155
0
255
159
0
255
159
0
255
159
16
238
156
16
238
156
16
238
156
16
238
156
17
238
156
0
255
159
0
255
159
20
235
155
20
234
155
0
255
159
0
255
159
0
255
159
20
234
155
21
232
154
20
234
155
21
232
154
21
232
154
22
230
154
22
232
154
22
232
154
22
232
154
0
255
159
24
227
153
24
227
153
0
255
159
0
255
159
0
255
159
0
255
159
0
255
159
26
224
153
0
255
159
23
230
154
23
230
154
0
255
159
23
230
154
23
230
154
0
255
159
0
255
159
0
255
159
0
255
159
0
255
159
0
255
159
14
241
156
14
241
156
0
255
159
21
232
154
14
241
156
0
255
159
0
255
159
0
255
159
21
232
154
0
255
159
0
255
159
0
255
159
0
255
159
0
255
159
0
255
159
19
236
155
19
236
155
19
236
155
19
236
155
17
237
155
0
255
159
0
255
159
16
238
156
16
238
156
16
238
156
16
238
156
16
240
156
0
255
159
0
255
159
19
236
155
19
236
155
19
236
155
0
255
159
0
255
159
0
255
159
19
236
155
19
235
155
26
223
153
26
223
153
0
255
159
0
255
159
0
255
159
20
234
155
0
255
159
26
224
152
24
227
153
24
227
153
0
255
159
0
255
159
0
255
159
23
230
154
34
205
149
0
255
159
0
255
159
23
230
154
23
230
154
23
230
154
23
230
154
0
255
159
0
255
159
0
255
159
0
255
159
0
255
159
16
240
156
16
240
156
16
240
156
0
255
159
0
255
159
14
241
156
0
255
159
0
255
159
15
240
156
0
255
159
16
240
156
14
241
156
0
255
159
0
255
159
0
255
159
27
222
152
0
255
159
22
232
155
15
241
156
13
242
157
19
236
155
0
255
159
0
255
159
18
237
155
17
238
156
17
238
156
16
240
156
16
240
156
0
255
159
0
255
159
19
236
155
25
225
153
25
225
153
20
234
155
0
255
159
0
255
159
20
234
155
21
232
155
0
255
159
0
255
159
0
255
159
0
255
159
22
231
154
26
221
152
0
255
159
23
230
154
23
230
154
30
214
150
0
255
159
0
255
159
23
230
154
23
228
154
31
212
150
0
255
159
0
255
159
0
255
159
0
255
159
0
255
159
23
230
154
0
255
159
0
255
159
0
255
159
16
240
156
16
240
156
16
240
156
23
230
154
0
255
159
16
240
156
16
240
156
0
255
159
0
255
159
0
255
159
0
255
159
0
255
159
16
240
156
16
240
156
16
240
156
0
255
159
0
255
159
15
241
156
13
243
157
13
243
157
13
243
157
12
244
157
13
243
157
0
255
159
0
255
159
0
255
159
12
245
157
12
245
157
12
245
157
13
244
157
0
255
159
0
255
159
13
243
156
13
243
156
0
255
159
0
255
159
0
255
159
0
255
159
0
255
159
16
240
156
16
240
156
0
255
159
17
239
156
23
230
153
29
217
151
29
217
151
0
255
159
23
230
154
0
255
159
0
255
159
0
255
159
0
255
159
23
230
154
23
228
154
23
228
154
0
255
159
23
230
154
0
255
159
0
255
159
0
255
159
24
228
154
16
240
156
0
255
159
0
255
159
0
255
159
0
255
159
0
255
159
16
240
156
22
231
154
16
240
156
16
240
156
22
231
154
0
255
159
0
255
159
0
255
159
0
255
159
17
239
156
16
240
156
0
255
159
0
255
159
0
255
159
13
243
157
13
243
157
13
243
157
13
243
157
13
243
157
13
243
157
13
243
157
0
255
159
0
255
159
11
244
157
11
244
157
11
244
157
11
244
157
0
255
159
0
255
159
0
255
159
13
242
157
0
255
159
0
255
159
13
242
157
21
233
154
20
235
154
16
240
156
16
240
156
15
241
156
16
240
156
23
230
153
26
223
153
0
255
159
0
255
159
26
222
152
20
234
155
0
255
159
0
255
159
0
255
159
30
214
150
23
228
154
23
228
154
0
255
159
23
230
154
31
213
151
31
213
151
0
255
159
0
255
159
17
238
156
0
255
159
0
255
159
0
255
159
0
255
159
0
255
159
0
255
159
0
255
159
0
255
159
22
231
154
16
240
156
0
255
159
0
255
159
0
255
159
0
255
159
16
240
156
0
255
159
0
255
159
0
255
159
0
255
159
0
255
159
19
237
155
0
255
159
13
243
157
0
255
159
0
255
159
0
255
159
0
255
159
12
244
157
12
244
157
0
255
159
11
244
157
0
255
159
0
255
159
0
255
159
0
255
159
0
255
159
0
255
159
0
255
159
0
255
159
13
242
157
0
255
159
14
242
157
14
242
157
20
234
155
15
241
156
15
241
156
15
241
156
0
255
159
0
255
159
20
234
155
20
234
155
21
232
154
0
255
159
0
255
159
30
214
150
34
204
149
23
228
154
0
255
159
23
230
154
22
230
154
0
255
159
0
255
159
0
255
159
0
255
159
0
255
159
0
255
159
0
255
159
0
255
159
16
240
156
17
239
156
16
240
156
0
255
159
0
255
159
22
231
154
0
255
159
0
255
159
0
255
159
0
255
159
16
240
156
0
255
159
0
255
159
0
255
159
14
242
157
0
255
159
0
255
159
19
237
155
19
237
155
0
255
159
13
243
157
13
243
157
13
243
157
12
244
157
12
244
157
11
244
157
0
255
159
0
255
159
0
255
159
0
255
159
0
255
159
0
255
159
0
255
159
0
255
159
0
255
159
0
255
159
13
242
157
0
255
159
0
255
159
0
255
159
14
242
157
0
255
159
0
255
159
0
255
159
0
255
159
0
255
159
20
234
155
0
255
159
0
255
159
0
255
159
0
255
159
31
212
150
23
228
154
0
255
159
16
240
156
17
238
156
0
255
159
0
255
159
0
255
159
0
255
159
0
255
159
0
255
159
0
255
159
0
255
159
0
255
159
16
240
156
16
240
156
16
240
156
16
240
156
0
255
159
0
255
159
0
255
159
0
255
159
0
255
159
0
255
159
0
255
159
0
255
159
0
255
159
14
242
157
0
255
159
0
255
159
19
237
155
13
243
157
18
238
156
0
255
159
13
243
157
17
238
156
12
244
157
12
244
157
16
238
156
11
244
157
13
242
157
18
237
156
0
255
159
0
255
159
0
255
159
0
255
159
0
255
159
0
255
159
13
242
157
0
255
159
0
255
159
0
255
159
0
255
159
0
255
159
0
255
159
0
255
159
29
217
152
0
255
159
0
255
159
0
255
159
0
255
159
0
255
159
0
255
159
0
255
159
23
228
154
23
228
154
0
255
159
0
255
159
0
255
159
0
255
159
0
255
159
0
255
159
0
255
159
0
255
159
0
255
159
0
255
159
0
255
159
0
255
159
16
240
156
16
240
156
22
231
154
22
231
154
0
255
159
0
255
159
0
255
159
0
255
159
0
255
159
0
255
159
0
255
159
14
242
157
14
242
157
0
255
159
0
255
159
0
255
159
0
255
159
0
255
159
14
242
157
0
255
159
0
255
159
0
255
159
0
255
159
0
255
159
0
255
159
20
235
154
0
255
159
0
255
159
0
255
159
13
242
157
14
241
156
0
255
159
0
255
159
0
255
159
0
255
159
0
255
159
0
255
159
0
255
159
0
255
159
0
255
159
0
255
159
0
255
159
0
255
159
0
255
159
0
255
159
26
222
152
26
222
152
0
255
159
26
222
152
0
255
159
23
228
154
31
212
150
0
255
159
0
255
159
0
255
159
0
255
159
0
255
159
0
255
159
0
255
159
0
255
159
0
255
159
0
255
159
0
255
159
0
255
159
0
255
159
0
255
159
0
255
159
0
255
159
0
255
159
0
255
159
0
255
159
14
242
157
14
242
157
0
255
159
0
255
159
14
242
157
0
255
159
14
242
157
0
255
159
0
255
159
0
255
159
0
255
159
0
255
159
0
255
159
0
255
159
0
255
159
0
255
159
0
255
159
13
243
157
0
255
159
0
255
159
0
255
159
0
255
159
0
255
159
16
241
156
16
241
156
16
241
156
0
255
159
16
241
156
0
255
159
0
255
159
0
255
159
0
255
159
0
255
159
0
255
159
0
255
159
0
255
159
0
255
159
26
222
152
26
222
152
20
234
155
26
222
152
27
221
152
0
255
159
20
234
155
23
228
154
0
255
159
0
255
159
0
255
159
0
255
159
0
255
159
0
255
159
0
255
159
0
255
159
0
255
159
16
240
156
16
240
156
16
240
156
16
240
156
0
255
159
22
231
154
16
240
156
16
240
156
0
255
159
0
255
159
0
255
159
0
255
159
0
255
159
14
242
157
14
242
157
0
255
159
0
255
159
0
255
159
0
255
159
0
255
159
0
255
159
0
255
159
0
255
159
0
255
159
0
255
159
0
255
159
0
255
159
0
255
159
0
255
159
0
255
159
0
255
159
0
255
159
0
255
159
16
241
156
16
241
156
0
255
159
0
255
159
16
241
156
16
241
156
16
241
156
0
255
159
0
255
159
0
255
159
0
255
159
0
255
159
16
240
156
16
240
156
26
222
152
26
222
152
26
222
152
20
234
155
20
234
155
0
255
159
27
221
152
0
255
159
0
255
159
0
255
159
0
255
159
0
255
159
0
255
159
0
255
159
0
255
159
0
255
159
0
255
159
16
240
156
16
240
156
16
240
156
16
240
156
17
239
156
0
255
159
16
240
156
16
240
156
0
255
159
0
255
159
0
255
159
0
255
159
0
255
159
0
255
159
0
255
159
14
242
157
0
255
159
0
255
159
25
225
153
14
242
157
0
255
159
0
255
159
13
243
157
13
243
157
13
243
157
13
243
157
13
243
157
0
255
159
0
255
159
0
255
159
0
255
159
0
255
159
0
255
159
14
243
157
13
243
157
0
255
159
0
255
159
0
255
159
0
255
159
0
255
159
16
240
156
0
255
159
0
255
159
16
240
156
0
255
159
16
240
156
16
240
156
20
234
155
20
234
155
20
234
155
0
255
159
26
222
152
26
222
152
26
222
152
0
255
159
0
255
159
0
255
159
0
255
159
0
255
159
0
255
159
0
255
159
0
255
159
0
255
159
0
255
159
16
240
156
16
240
156
0
255
159
0
255
159
0
255
159
0
255
159
0
255
159
0
255
159
0
255
159
0
255
159
0
255
159
0
255
159
15
241
156
14
242
157
14
242
157
14
242
157
0
255
159
0
255
159
20
235
155
20
235
155
13
243
157
0
255
159
0
255
159
19
237
155
19
237
155
19
237
155
0
255
159
0
255
159
0
255
159
0
255
159
13
243
157
13
243
157
13
243
157
0
255
159
0
255
159
0
255
159
0
255
159
16
241
156
16
241
156
16
240
156
16
240
156
16
240
156
0
255
159
0
255
159
16
240
156
17
239
156
16
240
156
20
234
155
20
234
155
0
255
159
20
234
155
20
234
155
20
234
155
0
255
159
0
255
159
31
212
150
0
255
159
0
255
159
0
255
159
0
255
159
0
255
159
0
255
159
0
255
159
0
255
159
16
240
156
17
238
156
0
255
159
0
255
159
0
255
159
0
255
159
0
255
159
0
255
159
0
255
159
0
255
159
0
255
159
0
255
159
14
242
157
14
242
157
14
242
157
0
255
159
0
255
159
14
242
157
20
235
155
14
242
157
14
242
157
0
255
159
0
255
159
13
243
157
19
237
155
19
237
155
0
255
159
13
243
157
0
255
159
13
243
157
13
243
157
13
243
157
13
243
157
13
243
157
0
255
159
16
241
156
16
241
156
16
241
156
16
241
156
16
240
156
16
240
156
16
240
156
0
255
159
0
255
159
16
240
156
17
239
156
16
240
156
20
234
155
0
255
159
21
232
154
20
234
155
20
234
155
20
234
155
0
255
159
0
255
159
23
228
154
0
255
159
0
255
159
0
255
159
0
255
159
0
255
159
0
255
159
0
255
159
0
255
159
16
240
156
17
238
156
0
255
159
17
238
156
0
255
159
0
255
159
0
255
159
0
255
159
0
255
159
0
255
159
0
255
159
0
255
159
0
255
159
14
242
157
14
242
157
0
255
159
14
242
157
14
242
157
15
241
156
14
242
157
14
242
157
19
237
155
13
243
157
0
255
159
19
237
155
19
237
155
13
243
157
0
255
159
13
243
157
13
243
157
19
237
155
13
243
157
13
243
157
13
243
157
0
255
159
16
241
156
16
241
156
16
241
156
0
255
159
0
255
159
16
240
156
16
240
156
16
240
156
0
255
159
0
255
159
16
240
156
17
239
156
20
234
155
0
255
159
0
255
159
0
255
159
0
255
159
0
255
159
0
255
159
0
255
159
23
228
154
0
255
159
0
255
159
0
255
159
0
255
159
0
255
159
0
255
159
0
255
159
24
227
153
22
231
154
0
255
159
0
255
159
0
255
159
0
255
159
14
242
157
14
242
157
14
242
157
0
255
159
0
255
159
0
255
159
0
255
159
0
255
159
0
255
159
0
255
159
0
255
159
0
255
159
14
242
157
14
242
157
14
242
157
22
231
154
19
237
155
0
255
159
0
255
159
0
255
159
13
243
157
0
255
159
0
255
159
13
243
157
13
243
157
13
243
157
13
243
157
19
237
155
13
243
157
16
241
156
16
241
156
16
241
156
0
255
159
0
255
159
16
240
156
16
240
156
22
232
154
16
240
156
22
232
154
0
255
159
0
255
159
0
255
159
0
255
159
0
255
159
0
255
159
27
221
152
20
234
155
0
255
159
0
255
159
0
255
159
23
228
154
0
255
159
0
255
159
0
255
159
0
255
159
0
255
159
0
255
159
0
255
159
0
255
159
0
255
159
18
237
155
0
255
159
0
255
159
22
231
154
20
235
155
0
255
159
0
255
159
0
255
159
0
255
159
0
255
159
0
255
159
0
255
159
0
255
159
0
255
159
0
255
159
0
255
159
0
255
159
14
242
157
20
235
155
22
231
154
22
232
154
0
255
159
0
255
159
0
255
159
0
255
159
0
255
159
0
255
159
16
241
156
16
241
156
16
241
156
16
241
156
16
241
156
16
241
156
16
241
156
16
241
156
0
255
159
0
255
159
16
240
156
17
239
156
16
240
156
16
240
156
16
240
156
16
240
156
0
255
159
0
255
159
0
255
159
0
255
159
22
232
154
20
234
155
20
234
155
21
233
154
0
255
159
0
255
159
0
255
159
26
224
153
0
255
159
0
255
159
0
255
159
0
255
159
18
236
155
18
237
155
0
255
159
0
255
159
18
236
155
18
236
155
0
255
159
0
255
159
0
255
159
0
255
159
0
255
159
0
255
159
0
255
159
0
255
159
0
255
159
0
255
159
0
255
159
0
255
159
0
255
159
0
255
159
0
255
159
0
255
159
0
255
159
0
255
159
22
231
154
22
232
154
22
232
154
0
255
159
22
232
154
16
241
156
0
255
159
0
255
159
0
255
159
0
255
159
0
255
159
0
255
159
16
241
156
16
241
156
16
241
156
0
255
159
0
255
159
0
255
159
0
255
159
16
240
156
16
240
156
16
240
156
16
240
156
22
232
154
22
232
154
0
255
159
0
255
159
0
255
159
20
234
155
20
234
155
22
232
154
20
234
155
0
255
159
0
255
159
0
255
159
26
224
153
20
234
154
18
236
155
18
236
155
0
255
159
0
255
159
24
226
153
24
226
153
0
255
159
0
255
159
0
255
159
0
255
159
0
255
159
17
239
156
17
239
156
0
255
159
0
255
159
0
255
159
0
255
159
0
255
159
0
255
159
0
255
159
0
255
159
0
255
159
0
255
159
0
255
159
0
255
159
0
255
159
16
240
156
22
231
154
22
231
154
0
255
159
0
255
159
16
241
156
16
241
156
16
241
156
0
255
159
0
255
159
0
255
159
0
255
159
0
255
159
0
255
159
0
255
159
16
241
156
16
241
156
0
255
159
0
255
159
0
255
159
16
240
156
22
231
154
16
240
156
16
240
156
22
232
154
22
232
154
0
255
159
0
255
159
0
255
159
20
234
155
20
234
155
0
255
159
0
255
159
0
255
159
0
255
159
0
255
159
26
224
153
20
234
154
18
236
155
18
236
155
0
255
159
18
236
155
0
255
159
0
255
159
0
255
159
0
255
159
0
255
159
0
255
159
0
255
159
0
255
159
0
255
159
0
255
159
0
255
159
0
255
159
0
255
159
16
240
156
0
255
159
16
240
156
0
255
159
0
255
159
16
240
156
22
231
154
16
240
156
0
255
159
0
255
159
0
255
159
0
255
159
0
255
159
0
255
159
0
255
159
16
241
156
16
241
156
16
241
156
0
255
159
16
241
156
0
255
159
16
241
156
16
241
156
16
241
156
16
241
156
0
255
159
0
255
159
16
240
156
0
255
159
16
241
156
17
238
156
16
240
156
16
240
156
16
240
156
22
232
154
27
221
152
0
255
159
0
255
159
0
255
159
22
232
154
22
232
154
0
255
159
0
255
159
0
255
159
0
255
159
26
224
153
18
236
155
18
236
155
0
255
159
0
255
159
0
255
159
0
255
159
0
255
159
0
255
159
0
255
159
0
255
159
0
255
159
18
237
155
0
255
159
0
255
159
0
255
159
0
255
159
0
255
159
0
255
159
0
255
159
0
255
159
16
240
156
0
255
159
0
255
159
16
240
156
16
240
156
16
240
156
16
240
156
16
240
156
18
238
156
0
255
159
0
255
159
16
240
156
16
241
156
0
255
159
0
255
159
16
241
156
0
255
159
16
241
156
16
241
156
16
241
156
16
241
156
16
240
156
16
240
156
0
255
159
22
232
154
24
228
153
16
240
156
16
240
156
16
240
156
16
240
156
16
240
156
16
240
156
0
255
159
0
255
159
20
234
155
0
255
159
0
255
159
0
255
159
20
234
155
0
255
159
0
255
159
0
255
159
0
255
159
26
224
153
18
236
155
0
255
159
0
255
159
0
255
159
0
255
159
18
237
155
18
237
155
18
237
155
18
237
155
0
255
159
0
255
159
18
237
155
18
237
155
18
237
155
0
255
159
23
230
154
17
239
156
17
239
156
0
255
159
0
255
159
0
255
159
0
255
159
0
255
159
17
239
156
17
239
156
23
230
154
0
255
159
0
255
159
0
255
159
0
255
159
0
255
159
17
239
156
16
240
156
16
240
156
0
255
159
0
255
159
16
240
156
16
240
156
16
240
156
16
240
156
16
240
156
16
240
156
16
240
156
16
240
156
16
240
156
17
239
156
16
240
156
0
255
159
16
240
156
17
239
156
16
240
156
16
240
156
0
255
159
20
234
155
20
234
155
20
234
155
0
255
159
0
255
159
0
255
159
0
255
159
0
255
159
0
255
159
0
255
159
23
228
154
0
255
159
0
255
159
0
255
159
0
255
159
24
226
153
18
237
155
18
237
155
18
237
155
18
237
155
0
255
159
0
255
159
18
237
155
18
237
155
18
237
155
17
239
156
17
239
156
17
239
156
17
239
156
17
239
156
0
255
159
0
255
159
0
255
159
0
255
159
0
255
159
0
255
159
0
255
159
0
255
159
0
255
159
0
255
159
0
255
159
0
255
159
17
239
156
17
239
156
17
239
156
16
240
156
0
255
159
16
240
156
16
240
156
22
232
154
16
240
156
16
240
156
16
240
156
16
240
156
16
240
156
16
240
156
16
240
156
16
240
156
22
232
154
24
228
153
16
240
156
0
255
159
22
232
154
0
255
159
20
234
155
20
234
155
20
234
155
0
255
159
0
255
159
0
255
159
0
255
159
20
234
155
0
255
159
23
228
154
0
255
159
18
236
155
28
218
151
0
255
159
0
255
159
24
226
153
24
226
153
18
237
155
18
237
155
18
237
155
0
255
159
0
255
159
0
255
159
18
237
155
18
237
155
17
239
156
17
239
156
17
239
156
23
230
154
23
230
154
23
230
154
0
255
159
0
255
159
0
255
159
0
255
159
0
255
159
0
255
159
0
255
159
0
255
159
23
230
154
0
255
159
0
255
159
17
239
156
17
239
156
0
255
159
16
240
156
0
255
159
16
240
156
16
240
156
22
232
154
22
232
154
0
255
159
22
232
154
17
239
156
16
240
156
16
240
156
0
255
159
16
240
156
16
240
156
17
239
156
16
240
156
16
240
156
16
240
156
16
240
156
27
221
152
27
221
152
0
255
159
0
255
159
0
255
159
0
255
159
0
255
159
23
228
154
0
255
159
23
228
154
0
255
159
0
255
159
25
224
152
0
255
159
0
255
159
18
237
155
24
226
153
0
255
159
18
237
155
19
235
155
0
255
159
0
255
159
0
255
159
0
255
159
18
237
155
23
230
154
23
230
154
17
239
156
17
239
156
17
239
156
17
239
156
0
255
159
17
239
156
17
239
156
0
255
159
0
255
159
0
255
159
0
255
159
23
230
154
23
230
154
23
230
154
0
255
159
0
255
159
17
239
156
0
255
159
16
240
156
0
255
159
0
255
159
0
255
159
16
240
156
0
255
159
16
240
156
16
240
156
16
240
156
16
240
156
16
240
156
16
240
156
0
255
159
16
240
156
16
240
156
16
240
156
0
255
159
0
255
159
0
255
159
0
255
159
0
255
159
0
255
159
0
255
159
20
234
155
0
255
159
0
255
159
23
228
154
0
255
159
0
255
159
0
255
159
0
255
159
0
255
159
0
255
159
0
255
159
0
255
159
18
236
155
24
226
153
0
255
159
18
237
155
0
255
159
0
255
159
18
237
155
0
255
159
18
237
155
23
230
154
23
230
154
17
239
156
17
239
156
17
239
156
0
255
159
0
255
159
0
255
159
0
255
159
0
255
159
0
255
159
0
255
159
0
255
159
0
255
159
0
255
159
0
255
159
0
255
159
0
255
159
0
255
159
0
255
159
0
255
159
0
255
159
0
255
159
0
255
159
16
240
156
0
255
159
16
240
156
16
240
156
16
240
156
16
240
156
16
240
156
16
240
156
22
232
154
0
255
159
0
255
159
0
255
159
16
240
156
16
240
156
22
232
154
0
255
159
0
255
159
20
234
155
20
234
155
20
234
155
0
255
159
0
255
159
0
255
159
0
255
159
0
255
159
0
255
159
25
224
152
25
224
152
0
255
159
18
236
155
0
255
159
0
255
159
18
236
155
0
255
159
18
237
155
0
255
159
0
255
159
18
237
155
0
255
159
24
226
153
23
230
154
23
230
154
17
239
156
17
239
156
17
239
156
0
255
159
0
255
159
0
255
159
0
255
159
17
239
156
0
255
159
0
255
159
0
255
159
0
255
159
0
255
159
0
255
159
0
255
159
0
255
159
0
255
159
0
255
159
0
255
159
0
255
159
0
255
159
0
255
159
0
255
159
0
255
159
0
255
159
16
240
156
16
240
156
22
232
154
22
232
154
27
221
152
22
232
154
0
255
159
16
240
156
16
240
156
22
232
154
22
232
154
16
240
156
27
221
152
22
232
154
0
255
159
22
232
154
22
232
154
22
232
154
0
255
159
0
255
159
0
255
159
0
255
159
0
255
159
25
224
152
25
224
152
0
255
159
20
234
154
18
236
155
28
220
152
0
255
159
18
236
155
18
237
155
0
255
159
0
255
159
18
237
155
18
237
155
18
237
155
18
237
155
24
226
153
18
237
155
17
239
156
17
239
156
0
255
159
0
255
159
0
255
159
22
232
154
17
239
156
17
239
156
17
239
156
23
230
154
23
230
154
23
230
154
17
239
156
17
239
156
17
239
156
17
239
156
0
255
159
0
255
159
0
255
159
0
255
159
0
255
159
0
255
159
17
239
156
0
255
159
0
255
159
22
232
154
0
255
159
22
232
154
22
232
154
0
255
159
0
255
159
17
239
156
17
239
156
29
217
151
20
234
155
20
234
155
29
217
151
22
232
154
22
232
154
0
255
159
0
255
159
26
224
153
0
255
159
0
255
159
0
255
159
0
255
159
0
255
159
28
218
151
0
255
159
0
255
159
18
236
155
18
236
155
20
234
154
20
234
154
20
234
154
19
235
155
0
255
159
0
255
159
18
237
155
18
237
155
18
237
155
18
237
155
18
237
155
18
237
155
18
237
155
0
255
159
0
255
159
0
255
159
0
255
159
17
239
156
17
239
156
17
239
156
17
239
156
17
239
156
0
255
159
0
255
159
17
239
156
23
230
154
23
230
154
17
239
156
17
239
156
17
239
156
17
239
156
17
239
156
0
255
159
0
255
159
0
255
159
0
255
159
0
255
159
0
255
159
0
255
159
0
255
159
0
255
159
0
255
159
0
255
159
17
239
156
17
239
156
0
255
159
22
232
154
22
232
154
29
217
151
22
232
154
22
232
154
22
232
154
26
224
153
0
255
159
0
255
159
0
255
159
0
255
159
0
255
159
0
255
159
0
255
159
0
255
159
0
255
159
18
236
155
18
236
155
20
234
154
20
234
154
20
234
154
19
235
155
0
255
159
0
255
159
0
255
159
0
255
159
18
237
155
18
237
155
0
255
159
0
255
159
17
239
156
0
255
159
0
255
159
0
255
159
0
255
159
17
239
156
0
255
159
0
255
159
17
239
156
17
239
156
17
239
156
0
255
159
0
255
159
0
255
159
0
255
159
0
255
159
0
255
159
0
255
159
17
239
156
17
239
156
0
255
159
0
255
159
0
255
159
0
255
159
0
255
159
0
255
159
0
255
159
0
255
159
0
255
159
0
255
159
0
255
159
0
255
159
0
255
159
0
255
159
22
231
154
22
232
154
29
217
151
22
232
154
22
232
154
22
232
154
0
255
159
0
255
159
0
255
159
0
255
159
26
224
153
0
255
159
0
255
159
0
255
159
0
255
159
0
255
159
0
255
159
0
255
159
20
234
154
20
234
154
20
234
154
19
235
155
0
255
159
0
255
159
18
237
155
19
235
155
0
255
159
0
255
159
0
255
159
0
255
159
18
237
155
0
255
159
0
255
159
0
255
159
0
255
159
0
255
159
0
255
159
0
255
159
0
255
159
0
255
159
0
255
159
17
239
156
0
255
159
0
255
159
0
255
159
0
255
159
0
255
159
0
255
159
0
255
159
0
255
159
17
239
156
17
239
156
17
239
156
17
239
156
0
255
159
0
255
159
0
255
159
0
255
159
0
255
159
0
255
159
0
255
159
0
255
159
0
255
159
0
255
159
0
255
159
0
255
159
0
255
159
0
255
159
0
255
159
0
255
159
0
255
159
22
232
154
22
232
154
22
232
154
0
255
159
0
255
159
0
255
159
0
255
159
20
234
154
18
236
155
26
223
152
18
236
155
18
236
155
18
236
155
18
237
155
24
226
153
0
255
159
0
255
159
0
255
159
18
237
155
18
237
155
0
255
159
18
237
155
18
237
155
0
255
159
0
255
159
0
255
159
0
255
159
0
255
159
0
255
159
0
255
159
0
255
159
0
255
159
0
255
159
0
255
159
0
255
159
0
255
159
0
255
159
17
239
156
17
239
156
0
255
159
0
255
159
0
255
159
0
255
159
0
255
159
0
255
159
23
230
154
0
255
159
0
255
159
0
255
159
23
230
154
0
255
159
0
255
159
0
255
159
0
255
159
23
230
154
17
239
156
22
232
154
22
232
154
0
255
159
0
255
159
0
255
159
0
255
159
0
255
159
22
232
154
23
229
154
23
229
154
23
229
154
0
255
159
0
255
159
26
223
152
18
236
155
18
236
155
26
223
152
0
255
159
18
236
155
25
224
152
18
236
155
18
237
155
18
237
155
0
255
159
0
255
159
0
255
159
18
237
155
0
255
159
24
226
153
26
224
153
18
237
155
0
255
159
0
255
159
18
237
155
0
255
159
0
255
159
0
255
159
0
255
159
0
255
159
0
255
159
0
255
159
0
255
159
0
255
159
0
255
159
17
239
156
0
255
159
0
255
159
17
239
156
17
239
156
23
230
154
23
230
154
0
255
159
0
255
159
0
255
159
0
255
159
0
255
159
17
239
156
23
230
154
23
230
154
23
230
154
23
230
154
23
230
154
0
255
159
17
239
156
29
217
151
22
232
154
0
255
159
23
229
154
0
255
159
0
255
159
22
232
154
22
232
154
22
232
154
24
228
153
30
215
151
30
215
151
0
255
159
22
231
154
18
236
155
18
236
155
25
224
152
0
255
159
18
236
155
18
236
155
18
236
155
0
255
159
18
236
155
0
255
159
0
255
159
0
255
159
0
255
159
0
255
159
0
255
159
0
255
159
0
255
159
0
255
159
18
237
155
18
237
155
17
239
156
0
255
159
0
255
159
0
255
159
0
255
159
0
255
159
0
255
159
0
255
159
0
255
159
17
239
156
0
255
159
0
255
159
17
239
156
17
239
156
17
239
156
0
255
159
23
230
154
23
230
154
0
255
159
0
255
159
0
255
159
0
255
159
0
255
159
23
230
154
23
230
154
23
230
154
23
230
154
23
230
154
0
255
159
0
255
159
0
255
159
0
255
159
0
255
159
0
255
159
0
255
159
0
255
159
22
232
154
22
232
154
29
217
151
24
228
153
30
215
151
30
215
151
22
231
154
22
231
154
18
236
155
18
236
155
18
236
155
18
236
155
18
236
155
18
236
155
18
236
155
0
255
159
0
255
159
0
255
159
0
255
159
0
255
159
0
255
159
0
255
159
0
255
159
0
255
159
0
255
159
0
255
159
0
255
159
19
235
155
18
238
156
23
230
154
23
230
154
0
255
159
0
255
159
0
255
159
0
255
159
0
255
159
0
255
159
0
255
159
0
255
159
0
255
159
17
239
156
0
255
159
17
239
156
17
239
156
17
239
156
0
255
159
17
239
156
0
255
159
0
255
159
0
255
159
0
255
159
23
230
154
0
255
159
23
230
154
23
230
154
23
230
154
0
255
159
0
255
159
0
255
159
0
255
159
0
255
159
0
255
159
0
255
159
0
255
159
22
232
154
23
229
154
22
232
154
22
231
154
30
215
151
30
215
151
0
255
159
0
255
159
18
236
155
18
236
155
18
236
155
18
236
155
18
236
155
18
236
155
18
236
155
25
224
152
0
255
159
0
255
159
0
255
159
0
255
159
18
237
155
18
237
155
18
237
155
0
255
159
0
255
159
0
255
159
0
255
159
0
255
159
0
255
159
0
255
159
0
255
159
0
255
159
0
255
159
17
239
156
0
255
159
17
239
156
17
239
156
17
239
156
17
239
156
0
255
159
18
237
156
0
255
159
0
255
159
0
255
159
0
255
159
17
239
156
22
232
154
0
255
159
0
255
159
0
255
159
0
255
159
0
255
159
0
255
159
0
255
159
0
255
159
0
255
159
0
255
159
0
255
159
0
255
159
0
255
159
0
255
159
0
255
159
0
255
159
0
255
159
22
232
154
22
232
154
22
231
154
22
231
154
22
231
154
22
231
154
0
255
159
0
255
159
20
234
154
20
234
154
18
236
155
18
236
155
18
236
155
25
224
152
34
202
148
25
224
152
0
255
159
0
255
159
0
255
159
0
255
159
18
236
155
0
255
159
18
237
155
0
255
159
0
255
159
0
255
159
0
255
159
0
255
159
0
255
159
0
255
159
0
255
159
0
255
159
0
255
159
17
239
156
17
239
156
0
255
159
0
255
159
0
255
159
17
239
156
17
239
156
0
255
159
17
239
156
17
239
156
0
255
159
17
239
156
17
239
156
17
239
156
0
255
159
0
255
159
0
255
159
0
255
159
0
255
159
0
255
159
0
255
159
0
255
159
0
255
159
29
217
151
0
255
159
22
232
154
22
232
154
0
255
159
0
255
159
0
255
159
22
232
154
22
232
154
22
231
154
22
231
154
22
231
154
22
231
154
22
231
154
0
255
159
0
255
159
